font.ufo
<glyph name="ampersand" format="1">
	<unicode hex="0026"/>
	<advance width="600"/>
	<outline>
		<contour>
			<point x="242" y="-12" type="curve" smooth="yes"/>
			<point x="322" y="-12"/>
			<point x="382" y="29"/>
			<point x="433" y="86" type="curve" smooth="yes"/>
			<point x="491" y="156"/>
			<point x="533" y="247"/>
			<point x="561" y="345" type="curve"/>
			<point x="518" y="345" type="line"/>
			<point x="493" y="252"/>
			<point x="456" y="172"/>
			<point x="402" y="110" type="curve" smooth="yes"/>
			<point x="359" y="61"/>
			<point x="305" y="26"/>
			<point x="246" y="26" type="curve" smooth="yes"/>
			<point x="166" y="26"/>
			<point x="98" y="83"/>
			<point x="98" y="170" type="curve" smooth="yes"/>
			<point x="98" y="329"/>
			<point x="386" y="387"/>
			<point x="386" y="551" type="curve" smooth="yes"/>
			<point x="386" y="620"/>
			<point x="347" y="671"/>
			<point x="275" y="671" type="curve" smooth="yes"/>
			<point x="196" y="671"/>
			<point x="141" y="609"/>
			<point x="141" y="524" type="curve" smooth="yes"/>
			<point x="141" y="381"/>
			<point x="276" y="195"/>
			<point x="407" y="81" type="curve" smooth="yes"/>
			<point x="462" y="34"/>
			<point x="512" y="4"/>
			<point x="556" y="-12" type="curve"/>
			<point x="571" y="27" type="line"/>
			<point x="530" y="42"/>
			<point x="483" y="71"/>
			<point x="433" y="114" type="curve" smooth="yes"/>
			<point x="313" y="215"/>
			<point x="182" y="392"/>
			<point x="182" y="526" type="curve" smooth="yes"/>
			<point x="182" y="586"/>
			<point x="216" y="635"/>
			<point x="274" y="635" type="curve" smooth="yes"/>
			<point x="327" y="635"/>
			<point x="346" y="592"/>
			<point x="346" y="549" type="curve" smooth="yes"/>
			<point x="346" y="400"/>
			<point x="53" y="350"/>
			<point x="53" y="167" type="curve" smooth="yes"/>
			<point x="53" y="58"/>
			<point x="137" y="-12"/>
		</contour>
	</outline>
</glyph>
<glyph name="parenright" format="1">
	<unicode hex="0029"/>
	<advance width="600"/>
	<outline>
		<contour>
			<point x="144" y="-174" type="line"/>
			<point x="288" y="-70"/>
			<point x="376" y="82"/>
			<point x="376" y="278" type="curve" smooth="yes"/>
			<point x="376" y="474"/>
			<point x="288" y="626"/>
			<point x="144" y="730" type="curve"/>
			<point x="119" y="702" type="line"/>
			<point x="263" y="591"/>
			<point x="331" y="452"/>
			<point x="331" y="278" type="curve" smooth="yes"/>
			<point x="331" y="104"/>
			<point x="263" y="-35"/>
			<point x="119" y="-146" type="curve"/>
		</contour>
	</outline>
</glyph>
<glyph name="zero" format="1">
  <advance width="600"/>
  <unicode hex="0030"/>
  <outline>
    <contour>
      <point x="300" y="-12" type="curve" smooth="yes"/>
      <point x="439" y="-12"/>
      <point x="519" y="111"/>
      <point x="519" y="322" type="curve" smooth="yes"/>
      <point x="519" y="534"/>
      <point x="439" y="651"/>
      <point x="300" y="651" type="curve" smooth="yes"/>
      <point x="161" y="651"/>
      <point x="81" y="534"/>
      <point x="81" y="322" type="curve" smooth="yes"/>
      <point x="81" y="111"/>
      <point x="161" y="-12"/>
    </contour>
    <contour>
      <point x="300" y="26" type="curve" smooth="yes"/>
      <point x="196" y="26"/>
      <point x="125" y="128"/>
      <point x="125" y="322" type="curve" smooth="yes"/>
      <point x="125" y="516"/>
      <point x="196" y="613"/>
      <point x="300" y="613" type="curve" smooth="yes"/>
      <point x="404" y="613"/>
      <point x="475" y="516"/>
      <point x="475" y="322" type="curve" smooth="yes"/>
      <point x="475" y="128"/>
      <point x="404" y="26"/>
    </contour>
    <contour>
      <point x="300" y="271" type="curve" smooth="yes"/>
      <point x="328" y="271"/>
      <point x="355" y="292"/>
      <point x="355" y="331" type="curve" smooth="yes"/>
      <point x="355" y="370"/>
      <point x="328" y="391"/>
      <point x="300" y="391" type="curve" smooth="yes"/>
      <point x="272" y="391"/>
      <point x="245" y="370"/>
      <point x="245" y="331" type="curve" smooth="yes"/>
      <point x="245" y="292"/>
      <point x="272" y="271"/>
    </contour>
  </outline>
</glyph>
<glyph name="one" format="1">
  <advance width="600"/>
  <unicode hex="0031"/>
  <outline>
    <contour>
      <point x="108" y="0" type="line"/>
      <point x="522" y="0" type="line"/>
      <point x="522" y="39" type="line"/>
      <point x="343" y="39" type="line"/>
      <point x="343" y="639" type="line"/>
      <point x="310" y="639" type="line"/>
      <point x="273" y="622"/>
      <point x="224" y="608"/>
      <point x="160" y="599" type="curve"/>
      <point x="160" y="569" type="line"/>
      <point x="299" y="569" type="line"/>
      <point x="299" y="39" type="line"/>
      <point x="108" y="39" type="line"/>
    </contour>
  </outline>
</glyph>
<glyph name="two" format="1">
  <advance width="600"/>
  <unicode hex="0032"/>
  <outline>
    <contour>
      <point x="82" y="0" type="line"/>
      <point x="514" y="0" type="line"/>
      <point x="514" y="40" type="line"/>
      <point x="269" y="40" type="line" smooth="yes"/>
      <point x="229" y="40"/>
      <point x="190" y="37"/>
      <point x="149" y="35" type="curve"/>
      <point x="352" y="223"/>
      <point x="478" y="345"/>
      <point x="478" y="472" type="curve" smooth="yes"/>
      <point x="478" y="580"/>
      <point x="405" y="651"/>
      <point x="280" y="651" type="curve" smooth="yes"/>
      <point x="194" y="651"/>
      <point x="132" y="610"/>
      <point x="79" y="557" type="curve"/>
      <point x="108" y="529" type="line"/>
      <point x="152" y="577"/>
      <point x="211" y="613"/>
      <point x="276" y="613" type="curve" smooth="yes"/>
      <point x="386" y="613"/>
      <point x="434" y="551"/>
      <point x="434" y="471" type="curve" smooth="yes"/>
      <point x="434" y="356"/>
      <point x="318" y="241"/>
      <point x="82" y="28" type="curve"/>
    </contour>
  </outline>
</glyph>
<glyph name="five" format="1">
  <advance width="600"/>
  <unicode hex="0035"/>
  <outline>
    <contour>
      <point x="287" y="-12" type="curve" smooth="yes"/>
      <point x="404" y="-12"/>
      <point x="516" y="65"/>
      <point x="516" y="201" type="curve" smooth="yes"/>
      <point x="516" y="341"/>
      <point x="421" y="403"/>
      <point x="296" y="403" type="curve" smooth="yes"/>
      <point x="238" y="403"/>
      <point x="199" y="389"/>
      <point x="158" y="369" type="curve"/>
      <point x="179" y="600" type="line"/>
      <point x="483" y="600" type="line"/>
      <point x="483" y="639" type="line"/>
      <point x="139" y="639" type="line"/>
      <point x="115" y="340" type="line"/>
      <point x="146" y="321" type="line"/>
      <point x="193" y="347"/>
      <point x="230" y="364"/>
      <point x="289" y="364" type="curve" smooth="yes"/>
      <point x="401" y="364"/>
      <point x="470" y="302"/>
      <point x="470" y="199" type="curve" smooth="yes"/>
      <point x="470" y="96"/>
      <point x="386" y="27"/>
      <point x="287" y="27" type="curve" smooth="yes"/>
      <point x="185" y="27"/>
      <point x="131" y="66"/>
      <point x="87" y="105" type="curve"/>
      <point x="62" y="74" type="line"/>
      <point x="109" y="33"/>
      <point x="171" y="-12"/>
    </contour>
  </outline>
</glyph>
<glyph name="seven" format="1">
	<unicode hex="0037"/>
	<advance width="600"/>
	<outline>
		<contour>
			<point x="245" y="0" type="curve"/>
			<point x="294" y="0" type="line"/>
			<point x="303" y="252"/>
			<point x="353" y="410"/>
			<point x="528" y="613" type="curve"/>
			<point x="528" y="639" type="line"/>
			<point x="74" y="639" type="line"/>
			<point x="74" y="600" type="line"/>
			<point x="472" y="600" type="line"/>
			<point x="318" y="414"/>
			<point x="255" y="259"/>
		</contour>
	</outline>
</glyph>
<glyph name="less" format="1">
  <advance width="600"/>
  <unicode hex="003C"/>
  <outline>
    <contour>
      <point x="488" y="58" type="line"/>
      <point x="488" y="106" type="line"/>
      <point x="166" y="330" type="line"/>
      <point x="166" y="334" type="line"/>
      <point x="488" y="558" type="line"/>
      <point x="488" y="606" type="line"/>
      <point x="123" y="352" type="line"/>
      <point x="123" y="312" type="line"/>
    </contour>
  </outline>
</glyph>
<glyph name="greater" format="1">
  <advance width="600"/>
  <unicode hex="003E"/>
  <outline>
    <contour>
      <point x="112" y="58" type="line"/>
      <point x="477" y="312" type="line"/>
      <point x="477" y="352" type="line"/>
      <point x="112" y="606" type="line"/>
      <point x="112" y="558" type="line"/>
      <point x="434" y="334" type="line"/>
      <point x="434" y="330" type="line"/>
      <point x="112" y="106" type="line"/>
    </contour>
  </outline>
</glyph>
<glyph name="E" format="1">
  <advance width="600"/>
  <unicode hex="0045"/>
  <outline>
    <contour>
      <point x="127" y="0" type="line"/>
      <point x="527" y="0" type="line"/>
      <point x="527" y="40" type="line"/>
      <point x="173" y="40" type="line"/>
      <point x="173" y="330" type="line"/>
      <point x="463" y="330" type="line"/>
      <point x="463" y="370" type="line"/>
      <point x="173" y="370" type="line"/>
      <point x="173" y="619" type="line"/>
      <point x="517" y="619" type="line"/>
      <point x="517" y="659" type="line"/>
      <point x="127" y="659" type="line"/>
    </contour>
    <contour>
      <point x="336" y="679" type="move" name="aboveUC"/>
    </contour>
    <contour>
      <point x="429" y="0" type="move" name="ogonekUC"/>
    </contour>
    <contour>
      <point x="329" y="0" type="move" name="baseLC"/>
    </contour>
    <contour>
      <point x="338" y="-20" type="move" name="belowLC"/>
    </contour>
  </outline>
</glyph>
<glyph name="K" format="1">
  <advance width="600"/>
  <unicode hex="004B"/>
  <outline>
    <contour>
      <point x="115" y="0" type="line"/>
      <point x="162" y="0" type="line"/>
      <point x="162" y="227" type="line"/>
      <point x="544" y="659" type="line"/>
      <point x="489" y="659" type="line"/>
      <point x="164" y="293" type="line"/>
      <point x="162" y="293" type="line"/>
      <point x="162" y="659" type="line"/>
      <point x="115" y="659" type="line"/>
    </contour>
    <contour>
      <point x="518" y="0" type="line"/>
      <point x="571" y="0" type="line"/>
      <point x="315" y="441" type="line"/>
      <point x="285" y="404" type="line"/>
    </contour>
    <contour>
      <point x="328" y="679" type="move" name="aboveUC"/>
    </contour>
    <contour>
      <point x="346" y="-20" type="move" name="belowLC"/>
    </contour>
  </outline>
</glyph>
<glyph name="R" format="1">
	<unicode hex="0052"/>
	<advance width="600"/>
	<outline>
		<contour>
			<point x="117" y="0" type="line"/>
			<point x="163" y="0" type="line"/>
			<point x="163" y="303" type="line"/>
			<point x="305" y="303" type="line" smooth="yes"/>
			<point x="436" y="303"/>
			<point x="522" y="365"/>
			<point x="522" y="485" type="curve" smooth="yes"/>
			<point x="522" y="611"/>
			<point x="436" y="659"/>
			<point x="305" y="659" type="curve" smooth="yes"/>
			<point x="117" y="659" type="line"/>
		</contour>
		<contour>
			<point x="163" y="341" type="line"/>
			<point x="163" y="620" type="line"/>
			<point x="293" y="620" type="line" smooth="yes"/>
			<point x="410" y="620"/>
			<point x="475" y="584"/>
			<point x="475" y="485" type="curve" smooth="yes"/>
			<point x="475" y="388"/>
			<point x="410" y="341"/>
			<point x="293" y="341" type="curve" smooth="yes"/>
		</contour>
		<contour>
			<point x="295" y="316" type="line"/>
			<point x="481" y="0" type="line"/>
			<point x="535" y="0" type="line"/>
			<point x="339" y="329" type="line"/>
		</contour>
		<contour>
			<point name="aboveUC" x="305" y="679" type="move"/>
		</contour>
		<contour>
			<point name="baseLC" x="133" y="0" type="move"/>
		</contour>
		<contour>
			<point name="belowLC" x="320" y="-20" type="move"/>
		</contour>
	</outline>
</glyph>
<glyph name="W" format="1">
	<unicode hex="0057"/>
	<advance width="600"/>
	<outline>
		<contour>
			<point x="122" y="0" type="line"/>
			<point x="181" y="0" type="line"/>
			<point x="269" y="313" type="line" smooth="yes"/>
			<point x="281" y="351"/>
			<point x="289" y="389"/>
			<point x="299" y="428" type="curve"/>
			<point x="302" y="428" type="line"/>
			<point x="312" y="389"/>
			<point x="320" y="351"/>
			<point x="330" y="313" type="curve" smooth="yes"/>
			<point x="421" y="0" type="line"/>
			<point x="480" y="0" type="line"/>
			<point x="586" y="660" type="line"/>
			<point x="541" y="660" type="line"/>
			<point x="474" y="209" type="line"/>
			<point x="467" y="156"/>
			<point x="460" y="108"/>
			<point x="454" y="53" type="curve"/>
			<point x="450" y="53" type="line"/>
			<point x="435" y="108"/>
			<point x="421" y="156"/>
			<point x="407" y="209" type="curve" smooth="yes"/>
			<point x="325" y="488" type="line"/>
			<point x="278" y="488" type="line"/>
			<point x="196" y="209" type="line" smooth="yes"/>
			<point x="182" y="156"/>
			<point x="168" y="109"/>
			<point x="153" y="53" type="curve"/>
			<point x="150" y="53" type="line"/>
			<point x="145" y="109"/>
			<point x="136" y="156"/>
			<point x="130" y="209" type="curve" smooth="yes"/>
			<point x="60" y="660" type="line"/>
			<point x="14" y="660" type="line"/>
		</contour>
		<contour>
			<point name="aboveUC" x="300" y="679" type="move"/>
		</contour>
		<contour>
			<point name="belowLC" x="304" y="-20" type="move"/>
		</contour>
	</outline>
</glyph>
<glyph name="bracketright" format="1">
  <advance width="600"/>
  <unicode hex="005D"/>
  <outline>
    <contour>
      <point x="95" y="-152" type="line"/>
      <point x="360" y="-152" type="line"/>
      <point x="360" y="708" type="line"/>
      <point x="95" y="708" type="line"/>
      <point x="95" y="679" type="line"/>
      <point x="321" y="679" type="line"/>
      <point x="321" y="-123" type="line"/>
      <point x="95" y="-123" type="line"/>
    </contour>
  </outline>
</glyph>
<glyph name="a" format="1">
  <advance width="600"/>
  <unicode hex="0061"/>
  <outline>
    <contour>
      <point x="259" y="-12" type="curve" smooth="yes"/>
      <point x="330" y="-12"/>
      <point x="405" y="28"/>
      <point x="460" y="72" type="curve"/>
      <point x="462" y="72" type="line"/>
      <point x="467" y="0" type="line"/>
      <point x="504" y="0" type="line"/>
      <point x="504" y="307" type="line" smooth="yes"/>
      <point x="504" y="410"/>
      <point x="451" y="492"/>
      <point x="322" y="492" type="curve" smooth="yes"/>
      <point x="237" y="492"/>
      <point x="153" y="448"/>
      <point x="115" y="421" type="curve"/>
      <point x="135" y="388" type="line"/>
      <point x="175" y="416"/>
      <point x="245" y="453"/>
      <point x="317" y="453" type="curve" smooth="yes"/>
      <point x="427" y="453"/>
      <point x="459" y="380"/>
      <point x="460" y="301" type="curve"/>
      <point x="200" y="278"/>
      <point x="92" y="227"/>
      <point x="92" y="120" type="curve" smooth="yes"/>
      <point x="92" y="29"/>
      <point x="173" y="-12"/>
    </contour>
    <contour>
      <point x="267" y="26" type="curve" smooth="yes"/>
      <point x="202" y="26"/>
      <point x="137" y="53"/>
      <point x="137" y="122" type="curve" smooth="yes"/>
      <point x="137" y="199"/>
      <point x="216" y="245"/>
      <point x="460" y="267" type="curve"/>
      <point x="460" y="113" type="line"/>
      <point x="393" y="56"/>
      <point x="328" y="26"/>
    </contour>
    <contour>
      <point x="439" y="0" type="move" name="ogonekLC"/>
    </contour>
    <contour>
      <point x="320" y="502" type="move" name="aboveLC"/>
    </contour>
    <contour>
      <point x="474" y="0" type="move" name="baseLC"/>
    </contour>
    <contour>
      <point x="300" y="-20" type="move" name="belowLC"/>
    </contour>
  </outline>
</glyph>
<glyph name="d" format="1">
  <advance width="600"/>
  <unicode hex="0064"/>
  <outline>
    <contour>
      <point x="279" y="-12" type="curve" smooth="yes"/>
      <point x="346" y="-12"/>
      <point x="408" y="27"/>
      <point x="450" y="71" type="curve"/>
      <point x="452" y="71" type="line"/>
      <point x="457" y="0" type="line"/>
      <point x="495" y="0" type="line"/>
      <point x="495" y="719" type="line"/>
      <point x="450" y="719" type="line"/>
      <point x="450" y="521" type="line"/>
      <point x="453" y="424" type="line"/>
      <point x="451" y="424" type="line"/>
      <point x="403" y="467"/>
      <point x="354" y="492"/>
      <point x="293" y="492" type="curve" smooth="yes"/>
      <point x="174" y="492"/>
      <point x="67" y="394"/>
      <point x="67" y="239" type="curve" smooth="yes"/>
      <point x="67" y="77"/>
      <point x="153" y="-12"/>
    </contour>
    <contour>
      <point x="285" y="27" type="curve" smooth="yes"/>
      <point x="178" y="27"/>
      <point x="114" y="112"/>
      <point x="114" y="239" type="curve" smooth="yes"/>
      <point x="114" y="360"/>
      <point x="195" y="453"/>
      <point x="296" y="453" type="curve" smooth="yes"/>
      <point x="346" y="453"/>
      <point x="396" y="434"/>
      <point x="450" y="382" type="curve"/>
      <point x="450" y="115" type="line"/>
      <point x="397" y="59"/>
      <point x="341" y="27"/>
    </contour>
    <contour>
      <point x="467" y="739" type="move" name="aboveUC"/>
    </contour>
    <contour>
      <point x="297" y="0" type="move" name="baseLC"/>
    </contour>
    <contour>
      <point x="301" y="-20" type="move" name="belowLC"/>
    </contour>
  </outline>
</glyph>
<glyph name="e" format="1">
	<unicode hex="0065"/>
	<advance width="600"/>
	<outline>
		<contour>
			<point x="330" y="-12" type="curve" smooth="yes"/>
			<point x="415" y="-12"/>
			<point x="469" y="16"/>
			<point x="512" y="45" type="curve"/>
			<point x="494" y="78" type="line"/>
			<point x="449" y="47"/>
			<point x="398" y="26"/>
			<point x="333" y="26" type="curve" smooth="yes"/>
			<point x="219" y="26"/>
			<point x="122" y="102"/>
			<point x="122" y="241" type="curve" smooth="yes"/>
			<point x="122" y="376"/>
			<point x="218" y="454"/>
			<point x="318" y="454" type="curve" smooth="yes"/>
			<point x="421" y="454"/>
			<point x="492" y="389"/>
			<point x="492" y="253" type="curve"/>
			<point x="510" y="271" type="line"/>
			<point x="99" y="271" type="line"/>
			<point x="99" y="233" type="line"/>
			<point x="530" y="233" type="line"/>
			<point x="532" y="245"/>
			<point x="532" y="258"/>
			<point x="532" y="270" type="curve" smooth="yes"/>
			<point x="532" y="408"/>
			<point x="449" y="492"/>
			<point x="317" y="492" type="curve" smooth="yes"/>
			<point x="192" y="492"/>
			<point x="77" y="396"/>
			<point x="77" y="240" type="curve" smooth="yes"/>
			<point x="77" y="82"/>
			<point x="191" y="-12"/>
		</contour>
		<contour>
			<point name="ogonekLC" x="405" y="0" type="move"/>
		</contour>
		<contour>
			<point name="aboveLC" x="319" y="502" type="move"/>
		</contour>
		<contour>
			<point name="baseLC" x="319" y="0" type="move"/>
		</contour>
		<contour>
			<point name="belowLC" x="319" y="-20" type="move"/>
		</contour>
	</outline>
</glyph>
<glyph name="g" format="1">
  <advance width="600"/>
  <unicode hex="0067"/>
  <outline>
    <contour>
      <point x="308" y="-231" type="curve" smooth="yes"/>
      <point x="463" y="-231"/>
      <point x="562" y="-150"/>
      <point x="562" y="-67" type="curve" smooth="yes"/>
      <point x="562" y="11"/>
      <point x="509" y="41"/>
      <point x="387" y="41" type="curve" smooth="yes"/>
      <point x="268" y="41" type="line" smooth="yes"/>
      <point x="201" y="41"/>
      <point x="157" y="62"/>
      <point x="157" y="108" type="curve" smooth="yes"/>
      <point x="157" y="134"/>
      <point x="176" y="158"/>
      <point x="204" y="175" type="curve"/>
      <point x="233" y="160"/>
      <point x="266" y="153"/>
      <point x="295" y="153" type="curve" smooth="yes"/>
      <point x="393" y="153"/>
      <point x="472" y="222"/>
      <point x="472" y="320" type="curve" smooth="yes"/>
      <point x="472" y="371"/>
      <point x="445" y="413"/>
      <point x="416" y="442" type="curve"/>
      <point x="561" y="442" type="line"/>
      <point x="561" y="480" type="line"/>
      <point x="361" y="480" type="line"/>
      <point x="342" y="488"/>
      <point x="321" y="492"/>
      <point x="295" y="492" type="curve" smooth="yes"/>
      <point x="197" y="492"/>
      <point x="116" y="420"/>
      <point x="116" y="321" type="curve" smooth="yes"/>
      <point x="116" y="263"/>
      <point x="142" y="222"/>
      <point x="173" y="197" type="curve"/>
      <point x="173" y="193" type="line"/>
      <point x="135" y="167"/>
      <point x="115" y="133"/>
      <point x="115" y="102" type="curve" smooth="yes"/>
      <point x="115" y="62"/>
      <point x="141" y="37"/>
      <point x="165" y="25" type="curve"/>
      <point x="165" y="21" type="line"/>
      <point x="113" y="-11"/>
      <point x="84" y="-54"/>
      <point x="84" y="-92" type="curve" smooth="yes"/>
      <point x="84" y="-176"/>
      <point x="158" y="-231"/>
    </contour>
    <contour>
      <point x="295" y="188" type="curve" smooth="yes"/>
      <point x="221" y="188"/>
      <point x="161" y="242"/>
      <point x="161" y="321" type="curve" smooth="yes"/>
      <point x="161" y="399"/>
      <point x="221" y="455"/>
      <point x="295" y="455" type="curve" smooth="yes"/>
      <point x="368" y="455"/>
      <point x="428" y="399"/>
      <point x="428" y="321" type="curve" smooth="yes"/>
      <point x="428" y="242"/>
      <point x="368" y="188"/>
    </contour>
    <contour>
      <point x="305" y="-195" type="curve" smooth="yes"/>
      <point x="185" y="-195"/>
      <point x="126" y="-151"/>
      <point x="126" y="-93" type="curve" smooth="yes"/>
      <point x="126" y="-58"/>
      <point x="146" y="-23"/>
      <point x="204" y="8" type="curve"/>
      <point x="226" y="1"/>
      <point x="253" y="-1"/>
      <point x="277" y="-1" type="curve" smooth="yes"/>
      <point x="391" y="-1" type="line" smooth="yes"/>
      <point x="475" y="-1"/>
      <point x="516" y="-18"/>
      <point x="516" y="-72" type="curve" smooth="yes"/>
      <point x="516" y="-132"/>
      <point x="437" y="-195"/>
    </contour>
    <contour>
      <point x="309" y="502" type="move" name="aboveLC"/>
    </contour>
    <contour>
      <point x="309" y="-227" type="move" name="belowLC"/>
    </contour>
  </outline>
</glyph>
<glyph name="q" format="1">
  <advance width="600"/>
  <unicode hex="0071"/>
  <outline>
    <contour>
      <point x="450" y="-217" type="line"/>
      <point x="495" y="-217" type="line"/>
      <point x="495" y="480" type="line"/>
      <point x="458" y="480" type="line"/>
      <point x="453" y="425" type="line"/>
      <point x="451" y="425" type="line"/>
      <point x="403" y="467"/>
      <point x="355" y="492"/>
      <point x="293" y="492" type="curve" smooth="yes"/>
      <point x="174" y="492"/>
      <point x="67" y="394"/>
      <point x="67" y="239" type="curve" smooth="yes"/>
      <point x="67" y="77"/>
      <point x="153" y="-12"/>
      <point x="279" y="-12" type="curve" smooth="yes"/>
      <point x="346" y="-12"/>
      <point x="406" y="26"/>
      <point x="451" y="72" type="curve"/>
      <point x="453" y="72" type="line"/>
      <point x="450" y="-24" type="line"/>
    </contour>
    <contour>
      <point x="285" y="27" type="curve" smooth="yes"/>
      <point x="178" y="27"/>
      <point x="114" y="112"/>
      <point x="114" y="239" type="curve" smooth="yes"/>
      <point x="114" y="360"/>
      <point x="195" y="453"/>
      <point x="296" y="453" type="curve" smooth="yes"/>
      <point x="346" y="453"/>
      <point x="396" y="434"/>
      <point x="450" y="382" type="curve"/>
      <point x="450" y="115" type="line"/>
      <point x="397" y="59"/>
      <point x="341" y="27"/>
    </contour>
    <contour>
      <point x="301" y="502" type="move" name="aboveLC"/>
    </contour>
    <contour>
      <point x="468" y="-227" type="move" name="belowLC"/>
    </contour>
  </outline>
</glyph>
<glyph name="u" format="1">
	<unicode hex="0075"/>
	<advance width="600"/>
	<outline>
		<contour>
			<point x="259" y="-12" type="curve" smooth="yes"/>
			<point x="336" y="-12"/>
			<point x="396" y="32"/>
			<point x="448" y="93" type="curve"/>
			<point x="452" y="93" type="line"/>
			<point x="457" y="0" type="line"/>
			<point x="494" y="0" type="line"/>
			<point x="494" y="480" type="line"/>
			<point x="450" y="480" type="line"/>
			<point x="450" y="137" type="line"/>
			<point x="384" y="62"/>
			<point x="334" y="28"/>
			<point x="266" y="28" type="curve" smooth="yes"/>
			<point x="171" y="28"/>
			<point x="131" y="80"/>
			<point x="131" y="187" type="curve" smooth="yes"/>
			<point x="131" y="480" type="line"/>
			<point x="87" y="480" type="line"/>
			<point x="87" y="181" type="line" smooth="yes"/>
			<point x="87" y="51"/>
			<point x="143" y="-12"/>
		</contour>
		<contour>
			<point name="ogonekLC" x="429" y="0" type="move"/>
		</contour>
		<contour>
			<point name="aboveLC" x="294" y="502" type="move"/>
		</contour>
		<contour>
			<point name="baseLC" x="465" y="0" type="move"/>
		</contour>
		<contour>
			<point name="belowLC" x="293" y="-20" type="move"/>
		</contour>
	</outline>
</glyph>
<glyph name="v" format="1">
	<unicode hex="0076"/>
	<advance width="600"/>
	<outline>
		<contour>
			<point x="278" y="0" type="line"/>
			<point x="325" y="0" type="line"/>
			<point x="538" y="480" type="line"/>
			<point x="495" y="480" type="line"/>
			<point x="362" y="179" type="line" smooth="yes"/>
			<point x="341" y="131"/>
			<point x="323" y="85"/>
			<point x="304" y="41" type="curve"/>
			<point x="300" y="41" type="line"/>
			<point x="282" y="85"/>
			<point x="262" y="131"/>
			<point x="240" y="179" type="curve" smooth="yes"/>
			<point x="108" y="480" type="line"/>
			<point x="62" y="480" type="line"/>
		</contour>
		<contour>
			<point name="aboveLC" x="300" y="502" type="move"/>
		</contour>
		<contour>
			<point name="belowLC" x="300" y="-20" type="move"/>
		</contour>
	</outline>
</glyph>
<glyph name="w" format="1">
  <advance width="600"/>
  <unicode hex="0077"/>
  <outline>
    <contour>
      <point x="134" y="0" type="line"/>
      <point x="194" y="0" type="line"/>
      <point x="267" y="289" type="line" smooth="yes"/>
      <point x="279" y="332"/>
      <point x="288" y="378"/>
      <point x="298" y="428" type="curve"/>
      <point x="302" y="428" type="line"/>
      <point x="314" y="378"/>
      <point x="322" y="333"/>
      <point x="333" y="290" type="curve" smooth="yes"/>
      <point x="408" y="0" type="line"/>
      <point x="468" y="0" type="line"/>
      <point x="589" y="480" type="line"/>
      <point x="545" y="480" type="line"/>
      <point x="470" y="169" type="line" smooth="yes"/>
      <point x="460" y="125"/>
      <point x="451" y="84"/>
      <point x="440" y="41" type="curve"/>
      <point x="436" y="41" type="line"/>
      <point x="427" y="84"/>
      <point x="415" y="125"/>
      <point x="404" y="169" type="curve" smooth="yes"/>
      <point x="328" y="472" type="line"/>
      <point x="275" y="472" type="line"/>
      <point x="198" y="169" type="line"/>
      <point x="187" y="125"/>
      <point x="176" y="84"/>
      <point x="167" y="41" type="curve"/>
      <point x="163" y="41" type="line"/>
      <point x="155" y="84"/>
      <point x="145" y="125"/>
      <point x="134" y="169" type="curve" smooth="yes"/>
      <point x="58" y="480" type="line"/>
      <point x="11" y="480" type="line"/>
    </contour>
    <contour>
      <point x="300" y="502" type="move" name="aboveLC"/>
    </contour>
    <contour>
      <point x="300" y="-20" type="move" name="belowLC"/>
    </contour>
  </outline>
</glyph>
<glyph name="z" format="1">
	<unicode hex="007A"/>
	<advance width="600"/>
	<outline>
		<contour>
			<point x="72" y="0" type="line"/>
			<point x="526" y="0" type="line"/>
			<point x="526" y="39" type="line"/>
			<point x="139" y="39" type="line"/>
			<point x="515" y="457" type="line"/>
			<point x="515" y="480" type="line"/>
			<point x="112" y="480" type="line"/>
			<point x="112" y="442" type="line"/>
			<point x="448" y="442" type="line"/>
			<point x="72" y="24" type="line"/>
		</contour>
		<contour>
			<point name="aboveLC" x="319" y="502" type="move"/>
		</contour>
		<contour>
			<point name="baseLC" x="320" y="0" type="move"/>
		</contour>
		<contour>
			<point name="belowLC" x="315" y="-20" type="move"/>
		</contour>
	</outline>
</glyph>
<glyph name="asciitilde" format="1">
  <advance width="600"/>
  <unicode hex="007E"/>
  <outline>
    <contour>
      <point x="389" y="266" type="curve" smooth="yes"/>
      <point x="434" y="266"/>
      <point x="480" y="292"/>
      <point x="509" y="379" type="curve"/>
      <point x="478" y="393" type="line"/>
      <point x="452" y="314"/>
      <point x="425" y="304"/>
      <point x="391" y="304" type="curve" smooth="yes"/>
      <point x="334" y="304"/>
      <point x="287" y="394"/>
      <point x="211" y="394" type="curve" smooth="yes"/>
      <point x="166" y="394"/>
      <point x="120" y="368"/>
      <point x="91" y="279" type="curve"/>
      <point x="122" y="267" type="line"/>
      <point x="148" y="344"/>
      <point x="175" y="356"/>
      <point x="209" y="356" type="curve" smooth="yes"/>
      <point x="266" y="356"/>
      <point x="313" y="266"/>
    </contour>
  </outline>
</glyph>
<glyph name="sterling" format="1">
	<unicode hex="00A3"/>
	<advance width="600"/>
	<outline>
		<contour>
			<point x="85" y="0" type="line"/>
			<point x="520" y="0" type="line"/>
			<point x="520" y="40" type="line"/>
			<point x="169" y="40" type="line"/>
			<point x="169" y="44" type="line"/>
			<point x="224" y="88"/>
			<point x="252" y="138"/>
			<point x="252" y="221" type="curve" smooth="yes"/>
			<point x="252" y="323"/>
			<point x="192" y="395"/>
			<point x="192" y="481" type="curve" smooth="yes"/>
			<point x="192" y="554"/>
			<point x="245" y="612"/>
			<point x="347" y="612" type="curve" smooth="yes"/>
			<point x="413" y="612"/>
			<point x="456" y="586"/>
			<point x="489" y="553" type="curve"/>
			<point x="518" y="580" type="line"/>
			<point x="484" y="618"/>
			<point x="431" y="651"/>
			<point x="349" y="651" type="curve" smooth="yes"/>
			<point x="226" y="651"/>
			<point x="150" y="586"/>
			<point x="150" y="481" type="curve" smooth="yes"/>
			<point x="150" y="392"/>
			<point x="212" y="312"/>
			<point x="212" y="221" type="curve" smooth="yes"/>
			<point x="212" y="144"/>
			<point x="176" y="69"/>
			<point x="85" y="27" type="curve"/>
		</contour>
		<contour>
			<point x="81" y="293" type="line"/>
			<point x="433" y="293" type="line"/>
			<point x="433" y="329" type="line"/>
			<point x="193" y="329" type="line"/>
			<point x="81" y="326" type="line"/>
		</contour>
	</outline>
</glyph>
<glyph name="yen" format="1">
  <advance width="600"/>
  <unicode hex="00A5"/>
  <outline>
    <contour>
      <point x="277" y="0" type="line"/>
      <point x="321" y="0" type="line"/>
      <point x="321" y="165" type="line"/>
      <point x="512" y="165" type="line"/>
      <point x="512" y="199" type="line"/>
      <point x="321" y="199" type="line"/>
      <point x="321" y="270" type="line"/>
      <point x="512" y="270" type="line"/>
      <point x="512" y="303" type="line"/>
      <point x="335" y="303" type="line"/>
      <point x="535" y="639" type="line"/>
      <point x="491" y="639" type="line"/>
      <point x="380" y="446" type="line" smooth="yes"/>
      <point x="353" y="402"/>
      <point x="329" y="358"/>
      <point x="302" y="309" type="curve"/>
      <point x="298" y="309" type="line"/>
      <point x="271" y="358"/>
      <point x="247" y="402"/>
      <point x="222" y="446" type="curve" smooth="yes"/>
      <point x="112" y="639" type="line"/>
      <point x="65" y="639" type="line"/>
      <point x="263" y="303" type="line"/>
      <point x="88" y="303" type="line"/>
      <point x="88" y="270" type="line"/>
      <point x="277" y="270" type="line"/>
      <point x="277" y="199" type="line"/>
      <point x="88" y="199" type="line"/>
      <point x="88" y="165" type="line"/>
      <point x="277" y="165" type="line"/>
    </contour>
  </outline>
</glyph>
<glyph name="brokenbar" format="1">
  <advance width="600"/>
  <unicode hex="00A6"/>
  <outline>
    <contour>
      <point x="280" y="-250" type="line"/>
      <point x="320" y="-250" type="line"/>
      <point x="320" y="190" type="line"/>
      <point x="280" y="190" type="line"/>
    </contour>
    <contour>
      <point x="280" y="310" type="line"/>
      <point x="320" y="310" type="line"/>
      <point x="320" y="750" type="line"/>
      <point x="280" y="750" type="line"/>
    </contour>
  </outline>
</glyph>
<glyph name="section" format="1">
	<unicode hex="00A7"/>
	<advance width="600"/>
	<outline>
		<contour>
			<point x="294" y="-52" type="curve" smooth="yes"/>
			<point x="370" y="-52"/>
			<point x="436" y="0"/>
			<point x="436" y="72" type="curve" smooth="yes"/>
			<point x="436" y="241"/>
			<point x="143" y="204"/>
			<point x="143" y="355" type="curve" smooth="yes"/>
			<point x="143" y="409"/>
			<point x="181" y="436"/>
			<point x="236" y="463" type="curve"/>
			<point x="216" y="491" type="line"/>
			<point x="154" y="464"/>
			<point x="102" y="423"/>
			<point x="102" y="352" type="curve" smooth="yes"/>
			<point x="102" y="170"/>
			<point x="394" y="206"/>
			<point x="394" y="70" type="curve" smooth="yes"/>
			<point x="394" y="24"/>
			<point x="355" y="-15"/>
			<point x="294" y="-15" type="curve" smooth="yes"/>
			<point x="228" y="-15"/>
			<point x="190" y="7"/>
			<point x="154" y="39" type="curve"/>
			<point x="124" y="11" type="line"/>
			<point x="165" y="-26"/>
			<point x="221" y="-52"/>
		</contour>
		<contour>
			<point x="355" y="173" type="curve"/>
			<point x="378" y="143" type="line"/>
			<point x="446" y="174"/>
			<point x="498" y="207"/>
			<point x="498" y="284" type="curve" smooth="yes"/>
			<point x="498" y="469"/>
			<point x="209" y="436"/>
			<point x="209" y="567" type="curve" smooth="yes"/>
			<point x="209" y="605"/>
			<point x="235" y="643"/>
			<point x="303" y="643" type="curve" smooth="yes"/>
			<point x="357" y="643"/>
			<point x="392" y="623"/>
			<point x="427" y="597" type="curve"/>
			<point x="451" y="628" type="line"/>
			<point x="411" y="658"/>
			<point x="361" y="681"/>
			<point x="302" y="681" type="curve" smooth="yes"/>
			<point x="209" y="681"/>
			<point x="166" y="621"/>
			<point x="166" y="564" type="curve" smooth="yes"/>
			<point x="166" y="401"/>
			<point x="457" y="436"/>
			<point x="457" y="281" type="curve" smooth="yes"/>
			<point x="457" y="221"/>
			<point x="419" y="198"/>
		</contour>
	</outline>
</glyph>
<glyph name="degree" format="1">
  <advance width="600"/>
  <unicode hex="00B0"/>
  <outline>
    <contour>
      <point x="300" y="447" type="curve" smooth="yes"/>
      <point x="359" y="447"/>
      <point x="414" y="491"/>
      <point x="414" y="565" type="curve" smooth="yes"/>
      <point x="414" y="640"/>
      <point x="359" y="684"/>
      <point x="300" y="684" type="curve" smooth="yes"/>
      <point x="241" y="684"/>
      <point x="186" y="640"/>
      <point x="186" y="565" type="curve" smooth="yes"/>
      <point x="186" y="491"/>
      <point x="241" y="447"/>
    </contour>
    <contour>
      <point x="300" y="479" type="curve" smooth="yes"/>
      <point x="253" y="479"/>
      <point x="220" y="516"/>
      <point x="220" y="565" type="curve" smooth="yes"/>
      <point x="220" y="616"/>
      <point x="253" y="653"/>
      <point x="300" y="653" type="curve" smooth="yes"/>
      <point x="347" y="653"/>
      <point x="380" y="616"/>
      <point x="380" y="565" type="curve" smooth="yes"/>
      <point x="380" y="516"/>
      <point x="347" y="479"/>
    </contour>
  </outline>
</glyph>
<glyph name="paragraph" format="1">
  <advance width="600"/>
  <unicode hex="00B6"/>
  <outline>
    <contour>
      <point x="336" y="244" type="curve" smooth="yes"/>
      <point x="363" y="244" type="line"/>
      <point x="363" y="659" type="line"/>
      <point x="319" y="659" type="line" smooth="yes"/>
      <point x="182" y="659"/>
      <point x="87" y="601"/>
      <point x="87" y="451" type="curve" smooth="yes"/>
      <point x="87" y="302"/>
      <point x="188" y="244"/>
    </contour>
    <contour>
      <point x="419" y="-80" type="line"/>
      <point x="461" y="-80" type="line"/>
      <point x="461" y="659" type="line"/>
      <point x="419" y="659" type="line"/>
    </contour>
  </outline>
</glyph>
<glyph name="Thorn" format="1">
	<unicode hex="00DE"/>
	<advance width="600"/>
	<outline>
		<contour>
			<point x="118" y="0" type="line"/>
			<point x="164" y="0" type="line"/>
			<point x="164" y="166" type="line"/>
			<point x="298" y="166" type="line" smooth="yes"/>
			<point x="445" y="166"/>
			<point x="533" y="229"/>
			<point x="533" y="358" type="curve" smooth="yes"/>
			<point x="533" y="493"/>
			<point x="445" y="542"/>
			<point x="298" y="542" type="curve" smooth="yes"/>
			<point x="164" y="542" type="line"/>
			<point x="164" y="659" type="line"/>
			<point x="118" y="659" type="line"/>
		</contour>
		<contour>
			<point x="164" y="205" type="line"/>
			<point x="164" y="503" type="line"/>
			<point x="286" y="503" type="line" smooth="yes"/>
			<point x="420" y="503"/>
			<point x="485" y="468"/>
			<point x="485" y="358" type="curve" smooth="yes"/>
			<point x="485" y="250"/>
			<point x="421" y="205"/>
			<point x="286" y="205" type="curve" smooth="yes"/>
		</contour>
	</outline>
</glyph>
<glyph name="ae" format="1">
  <advance width="600"/>
  <unicode hex="00E6"/>
  <outline>
    <contour>
      <point x="143" y="-12" type="curve" smooth="yes"/>
      <point x="215" y="-12"/>
      <point x="277" y="37"/>
      <point x="326" y="102" type="curve"/>
      <point x="306" y="130" type="line"/>
      <point x="268" y="67"/>
      <point x="204" y="26"/>
      <point x="151" y="26" type="curve" smooth="yes"/>
      <point x="98" y="26"/>
      <point x="62" y="59"/>
      <point x="62" y="116" type="curve" smooth="yes"/>
      <point x="62" y="191"/>
      <point x="111" y="240"/>
      <point x="296" y="263" type="curve"/>
      <point x="296" y="297" type="line"/>
      <point x="94" y="275"/>
      <point x="18" y="212"/>
      <point x="18" y="114" type="curve" smooth="yes"/>
      <point x="18" y="33"/>
      <point x="72" y="-12"/>
    </contour>
    <contour>
      <point x="459" y="-12" type="curve" smooth="yes"/>
      <point x="514" y="-12"/>
      <point x="554" y="8"/>
      <point x="585" y="29" type="curve"/>
      <point x="567" y="62" type="line"/>
      <point x="541" y="44"/>
      <point x="504" y="27"/>
      <point x="461" y="27" type="curve" smooth="yes"/>
      <point x="364" y="27"/>
      <point x="319" y="115"/>
      <point x="319" y="241" type="curve" smooth="yes"/>
      <point x="319" y="397"/>
      <point x="386" y="454"/>
      <point x="454" y="454" type="curve" smooth="yes"/>
      <point x="527" y="454"/>
      <point x="561" y="386"/>
      <point x="561" y="257" type="curve"/>
      <point x="570" y="271" type="line"/>
      <point x="296" y="271" type="line"/>
      <point x="296" y="233" type="line"/>
      <point x="597" y="233" type="line"/>
      <point x="599" y="252"/>
      <point x="599" y="266"/>
      <point x="599" y="280" type="curve" smooth="yes"/>
      <point x="599" y="393"/>
      <point x="554" y="492"/>
      <point x="455" y="492" type="curve" smooth="yes"/>
      <point x="389" y="492"/>
      <point x="323" y="447"/>
      <point x="297" y="343" type="curve"/>
      <point x="313" y="343" type="line"/>
      <point x="299" y="447"/>
      <point x="252" y="492"/>
      <point x="181" y="492" type="curve" smooth="yes"/>
      <point x="122" y="492"/>
      <point x="67" y="463"/>
      <point x="35" y="442" type="curve"/>
      <point x="54" y="410" type="line"/>
      <point x="83" y="431"/>
      <point x="134" y="453"/>
      <point x="177" y="453" type="curve" smooth="yes"/>
      <point x="240" y="453"/>
      <point x="280" y="409"/>
      <point x="279" y="290" type="curve" smooth="yes"/>
      <point x="279" y="245" type="line"/>
      <point x="279" y="96"/>
      <point x="342" y="-12"/>
    </contour>
    <contour>
      <point x="319" y="502" type="move" name="aboveLC"/>
    </contour>
    <contour>
      <point x="457" y="0" type="move" name="baseLC"/>
    </contour>
    <contour>
      <point x="310" y="-20" type="move" name="belowLC"/>
    </contour>
  </outline>
</glyph>
<glyph name="odieresis" format="1">
	<unicode hex="00F6"/>
	<advance width="600"/>
	<outline>
		<component base="o"/>
		<component base="dieresiscmb"/>
		<contour>
			<point name="ogonekLC" x="300" y="0" type="move"/>
		</contour>
	</outline>
</glyph>
<glyph name="dotlessi" format="1">
  <advance width="600"/>
  <unicode hex="0131"/>
  <outline>
    <contour>
      <point x="338" y="0" type="line"/>
      <point x="382" y="0" type="line"/>
      <point x="382" y="480" type="line"/>
      <point x="97" y="480" type="line"/>
      <point x="97" y="442" type="line"/>
      <point x="338" y="442" type="line"/>
    </contour>
    <contour>
      <point x="359" y="0" type="move" name="ogonekLC"/>
    </contour>
    <contour>
      <point x="349" y="502" type="move" name="aboveLC"/>
    </contour>
    <contour>
      <point x="354" y="0" type="move" name="baseLC"/>
    </contour>
    <contour>
      <point x="349" y="-20" type="move" name="belowLC"/>
    </contour>
  </outline>
</glyph>
<glyph name="kgreenlandic" format="1">
  <advance width="600"/>
  <unicode hex="0138"/>
  <outline>
    <contour>
      <point x="123" y="0" type="line"/>
      <point x="168" y="0" type="line"/>
      <point x="168" y="134" type="line"/>
      <point x="307" y="266" type="line"/>
      <point x="516" y="0" type="line"/>
      <point x="567" y="0" type="line"/>
      <point x="338" y="294" type="line"/>
      <point x="535" y="480" type="line"/>
      <point x="480" y="480" type="line"/>
      <point x="170" y="191" type="line"/>
      <point x="168" y="189" type="line"/>
      <point x="168" y="480" type="line"/>
      <point x="123" y="480" type="line"/>
    </contour>
  </outline>
</glyph>
<glyph name="Lslash" format="1">
  <advance width="600"/>
  <unicode hex="0141"/>
  <outline>
    <contour>
      <point x="37" y="188" type="line"/>
      <point x="154" y="248" type="line"/>
      <point x="191" y="264" type="line"/>
      <point x="440" y="395" type="line"/>
      <point x="423" y="427" type="line"/>
      <point x="191" y="305" type="line"/>
      <point x="154" y="288" type="line"/>
      <point x="20" y="219" type="line"/>
    </contour>
    <component base="L"/>
    <contour>
      <point x="187" y="679" type="move" name="aboveUC"/>
    </contour>
    <contour>
      <point x="357" y="-20" type="move" name="belowLC"/>
    </contour>
  </outline>
</glyph>
<glyph name="Eng" format="1">
  <advance width="600"/>
  <unicode hex="014A"/>
  <outline>
    <contour>
      <point x="388" y="-12" type="curve" smooth="yes"/>
      <point x="475" y="-12"/>
      <point x="545" y="74"/>
      <point x="545" y="337" type="curve" smooth="yes"/>
      <point x="545" y="583"/>
      <point x="450" y="671"/>
      <point x="322" y="671" type="curve" smooth="yes"/>
      <point x="254" y="671"/>
      <point x="186" y="623"/>
      <point x="141" y="572" type="curve"/>
      <point x="141" y="659" type="line"/>
      <point x="96" y="659" type="line"/>
      <point x="96" y="0" type="line"/>
      <point x="142" y="0" type="line"/>
      <point x="142" y="524" type="line"/>
      <point x="184" y="580"/>
      <point x="259" y="629"/>
      <point x="316" y="629" type="curve" smooth="yes"/>
      <point x="423" y="629"/>
      <point x="497" y="563"/>
      <point x="497" y="337" type="curve" smooth="yes"/>
      <point x="497" y="106"/>
      <point x="446" y="33"/>
      <point x="384" y="33" type="curve" smooth="yes"/>
      <point x="362" y="33"/>
      <point x="346" y="37"/>
      <point x="331" y="44" type="curve"/>
      <point x="317" y="1" type="line"/>
      <point x="335" y="-8"/>
      <point x="365" y="-12"/>
    </contour>
    <contour>
      <point x="323" y="679" type="move" name="aboveUC"/>
    </contour>
    <contour>
      <point x="309" y="-20" type="move" name="belowLC"/>
    </contour>
  </outline>
</glyph>
<glyph name="Tbar" format="1">
  <advance width="600"/>
  <unicode hex="0166"/>
  <outline>
    <contour>
      <point x="131" y="328" type="line"/>
      <point x="469" y="328" type="line"/>
      <point x="469" y="365" type="line"/>
      <point x="216" y="365" type="line"/>
      <point x="131" y="363" type="line"/>
    </contour>
    <component base="T"/>
    <contour>
      <point x="300" y="679" type="move" name="aboveUC"/>
    </contour>
    <contour>
      <point x="300" y="-20" type="move" name="belowLC"/>
    </contour>
  </outline>
</glyph>
<glyph name="tbar" format="1">
  <advance width="600"/>
  <unicode hex="0167"/>
  <outline>
    <contour>
      <point x="80" y="233" type="line"/>
      <point x="505" y="233" type="line"/>
      <point x="505" y="271" type="line"/>
      <point x="226" y="271" type="line"/>
      <point x="80" y="266" type="line"/>
    </contour>
    <component base="t"/>
    <contour>
      <point x="252" y="634" type="move" name="aboveLC"/>
    </contour>
    <contour>
      <point x="387" y="-20" type="move" name="belowLC"/>
    </contour>
  </outline>
</glyph>
<glyph name="Schwa" format="1">
  <advance width="600"/>
  <unicode hex="018F"/>
  <outline>
    <contour>
      <point x="299" y="-12" type="curve" smooth="yes"/>
      <point x="445" y="-12"/>
      <point x="544" y="123"/>
      <point x="544" y="331" type="curve" smooth="yes"/>
      <point x="544" y="540"/>
      <point x="456" y="671"/>
      <point x="302" y="671" type="curve" smooth="yes"/>
      <point x="228" y="671"/>
      <point x="172" y="639"/>
      <point x="133" y="597" type="curve"/>
      <point x="157" y="566" type="line"/>
      <point x="194" y="606"/>
      <point x="244" y="631"/>
      <point x="302" y="631" type="curve" smooth="yes"/>
      <point x="430" y="631"/>
      <point x="498" y="514"/>
      <point x="498" y="331" type="curve" smooth="yes"/>
      <point x="498" y="146"/>
      <point x="421" y="28"/>
      <point x="299" y="28" type="curve" smooth="yes"/>
      <point x="180" y="28"/>
      <point x="109" y="143"/>
      <point x="109" y="331" type="curve"/>
      <point x="88" y="299" type="line"/>
      <point x="506" y="299" type="line"/>
      <point x="506" y="337" type="line"/>
      <point x="64" y="337" type="line"/>
      <point x="64" y="335"/>
      <point x="64" y="333"/>
      <point x="64" y="329" type="curve" smooth="yes"/>
      <point x="64" y="130"/>
      <point x="152" y="-12"/>
    </contour>
    <contour>
      <point x="316" y="679" type="move" name="aboveUC"/>
    </contour>
    <contour>
      <point x="310" y="0" type="move" name="ogonekUC"/>
    </contour>
    <contour>
      <point x="310" y="0" type="move" name="baseLC"/>
    </contour>
    <contour>
      <point x="301" y="-20" type="move" name="belowLC"/>
    </contour>
  </outline>
</glyph>
<glyph name="Ghook" format="1">
  <advance width="600"/>
  <unicode hex="0193"/>
  <outline>
    <contour>
      <point x="518" y="592" type="line"/>
      <point x="487" y="640"/>
      <point x="475" y="661"/>
      <point x="475" y="700" type="curve" smooth="yes"/>
      <point x="475" y="729"/>
      <point x="493" y="757"/>
      <point x="530" y="757" type="curve" smooth="yes"/>
      <point x="546" y="757"/>
      <point x="556" y="751"/>
      <point x="567" y="747" type="curve"/>
      <point x="577" y="783" type="line"/>
      <point x="563" y="789"/>
      <point x="547" y="795"/>
      <point x="528" y="795" type="curve" smooth="yes"/>
      <point x="475" y="795"/>
      <point x="434" y="762"/>
      <point x="434" y="707" type="curve" smooth="yes"/>
      <point x="434" y="668"/>
      <point x="446" y="645"/>
      <point x="478" y="595" type="curve"/>
    </contour>
    <component base="G"/>
  </outline>
</glyph>
<glyph name="Ohorn" format="1">
  <advance width="600"/>
  <unicode hex="01A0"/>
  <outline>
    <contour>
      <point x="437" y="614" type="line"/>
      <point x="501" y="630"/>
      <point x="543" y="668"/>
      <point x="543" y="732" type="curve" smooth="yes"/>
      <point x="543" y="756"/>
      <point x="536" y="780"/>
      <point x="524" y="802" type="curve"/>
      <point x="484" y="783" type="line"/>
      <point x="494" y="766"/>
      <point x="498" y="745"/>
      <point x="498" y="729" type="curve" smooth="yes"/>
      <point x="498" y="681"/>
      <point x="468" y="650"/>
      <point x="401" y="640" type="curve"/>
    </contour>
    <component base="O"/>
    <contour>
      <point x="300" y="679" type="move" name="aboveUC"/>
    </contour>
    <contour>
      <point x="300" y="-20" type="move" name="belowLC"/>
    </contour>
  </outline>
</glyph>
<glyph name="ohorn" format="1">
  <advance width="600"/>
  <unicode hex="01A1"/>
  <outline>
    <contour>
      <point x="428" y="445" type="line"/>
      <point x="482" y="460"/>
      <point x="539" y="494"/>
      <point x="539" y="573" type="curve" smooth="yes"/>
      <point x="539" y="597"/>
      <point x="532" y="621"/>
      <point x="520" y="644" type="curve"/>
      <point x="482" y="624" type="line"/>
      <point x="492" y="607"/>
      <point x="496" y="587"/>
      <point x="496" y="570" type="curve" smooth="yes"/>
      <point x="496" y="512"/>
      <point x="461" y="480"/>
      <point x="392" y="469" type="curve"/>
    </contour>
    <component base="o"/>
    <contour>
      <point x="300" y="502" type="move" name="aboveLC"/>
    </contour>
    <contour>
      <point x="300" y="-20" type="move" name="belowLC"/>
    </contour>
  </outline>
</glyph>
<glyph name="Uhorn" format="1">
  <advance width="600"/>
  <unicode hex="01AF"/>
  <outline>
    <contour>
      <point x="510" y="633" type="line"/>
      <point x="563" y="647"/>
      <point x="613" y="677"/>
      <point x="613" y="750" type="curve" smooth="yes"/>
      <point x="613" y="774"/>
      <point x="606" y="798"/>
      <point x="593" y="820" type="curve"/>
      <point x="554" y="801" type="line"/>
      <point x="563" y="784"/>
      <point x="568" y="763"/>
      <point x="568" y="747" type="curve" smooth="yes"/>
      <point x="568" y="694"/>
      <point x="542" y="668"/>
      <point x="478" y="659" type="curve"/>
    </contour>
    <component base="U"/>
    <contour>
      <point x="300" y="679" type="move" name="aboveUC"/>
    </contour>
    <contour>
      <point x="300" y="-20" type="move" name="belowLC"/>
    </contour>
  </outline>
</glyph>
<glyph name="aringacute" format="1">
  <advance width="600"/>
  <unicode hex="01FB"/>
  <outline>
    <contour>
      <point x="285" y="723" type="line"/>
      <point x="413" y="786" type="line"/>
      <point x="391" y="822" type="line"/>
      <point x="262" y="736" type="line"/>
    </contour>
    <component base="aring"/>
  </outline>
</glyph>
<glyph name="alphalatinturned" format="1">
	<unicode hex="0252"/>
	<advance width="600"/>
	<outline>
		<contour>
			<point x="310" y="-12" type="curve" smooth="yes"/>
			<point x="429" y="-12"/>
			<point x="533" y="84"/>
			<point x="533" y="247" type="curve" smooth="yes"/>
			<point x="533" y="396"/>
			<point x="465" y="492"/>
			<point x="329" y="492" type="curve" smooth="yes"/>
			<point x="261" y="492"/>
			<point x="192" y="453"/>
			<point x="150" y="409" type="curve"/>
			<point x="148" y="409" type="line"/>
			<point x="143" y="480" type="line"/>
			<point x="105" y="480" type="line"/>
			<point x="105" y="0" type="line"/>
			<point x="142" y="0" type="line"/>
			<point x="147" y="54" type="line"/>
			<point x="149" y="54" type="line"/>
			<point x="198" y="14"/>
			<point x="260" y="-12"/>
		</contour>
		<contour>
			<point x="307" y="27" type="curve" smooth="yes"/>
			<point x="267" y="27"/>
			<point x="207" y="46"/>
			<point x="150" y="98" type="curve"/>
			<point x="150" y="365" type="line"/>
			<point x="203" y="422"/>
			<point x="266" y="453"/>
			<point x="322" y="453" type="curve" smooth="yes"/>
			<point x="439" y="453"/>
			<point x="486" y="365"/>
			<point x="486" y="246" type="curve" smooth="yes"/>
			<point x="486" y="117"/>
			<point x="411" y="27"/>
		</contour>
		<contour>
			<point name="aboveLC" x="320" y="502" type="move"/>
		</contour>
		<contour>
			<point name="belowLC" x="319" y="-20" type="move"/>
		</contour>
	</outline>
</glyph>
<glyph name="ccurl" format="1">
  <advance width="600"/>
  <unicode hex="0255"/>
  <outline>
    <contour>
      <point x="180" y="-105" type="line"/>
      <point x="221" y="35"/>
      <point x="339" y="139"/>
      <point x="419" y="139" type="curve" smooth="yes"/>
      <point x="468" y="139"/>
      <point x="487" y="118"/>
      <point x="487" y="93" type="curve" smooth="yes"/>
      <point x="487" y="53"/>
      <point x="443" y="26"/>
      <point x="357" y="26" type="curve" smooth="yes"/>
      <point x="228" y="26"/>
      <point x="133" y="111"/>
      <point x="133" y="239" type="curve" smooth="yes"/>
      <point x="133" y="366"/>
      <point x="224" y="454"/>
      <point x="341" y="454" type="curve" smooth="yes"/>
      <point x="405" y="454"/>
      <point x="454" y="430"/>
      <point x="495" y="389" type="curve"/>
      <point x="521" y="419" type="line"/>
      <point x="480" y="461"/>
      <point x="424" y="492"/>
      <point x="340" y="492" type="curve" smooth="yes"/>
      <point x="205" y="492"/>
      <point x="87" y="400"/>
      <point x="87" y="239" type="curve" smooth="yes"/>
      <point x="87" y="80"/>
      <point x="208" y="-12"/>
      <point x="357" y="-12" type="curve" smooth="yes"/>
      <point x="472" y="-12"/>
      <point x="526" y="35"/>
      <point x="526" y="95" type="curve" smooth="yes"/>
      <point x="526" y="143"/>
      <point x="490" y="175"/>
      <point x="421" y="175" type="curve" smooth="yes"/>
      <point x="318" y="175"/>
      <point x="198" y="71"/>
      <point x="141" y="-90" type="curve"/>
    </contour>
    <contour>
      <point x="340" y="502" type="move" name="aboveLC"/>
    </contour>
    <contour>
      <point x="360" y="-20" type="move" name="belowLC"/>
    </contour>
  </outline>
</glyph>
<glyph name="dtail" format="1">
  <advance width="600"/>
  <unicode hex="0256"/>
  <outline>
    <contour>
      <point x="547" y="-179" type="curve" smooth="yes"/>
      <point x="566" y="-179"/>
      <point x="588" y="-173"/>
      <point x="599" y="-167" type="curve"/>
      <point x="589" y="-131" type="line"/>
      <point x="579" y="-135"/>
      <point x="564" y="-140"/>
      <point x="548" y="-140" type="curve" smooth="yes"/>
      <point x="506" y="-140"/>
      <point x="494" y="-101"/>
      <point x="494" y="-42" type="curve"/>
      <point x="494" y="719" type="line"/>
      <point x="450" y="719" type="line"/>
      <point x="450" y="521" type="line"/>
      <point x="452" y="424" type="line"/>
      <point x="450" y="424" type="line"/>
      <point x="402" y="467"/>
      <point x="353" y="492"/>
      <point x="293" y="492" type="curve" smooth="yes"/>
      <point x="174" y="492"/>
      <point x="67" y="394"/>
      <point x="67" y="239" type="curve" smooth="yes"/>
      <point x="67" y="77"/>
      <point x="153" y="-12"/>
      <point x="279" y="-12" type="curve" smooth="yes"/>
      <point x="346" y="-12"/>
      <point x="409" y="26"/>
      <point x="450" y="70" type="curve"/>
      <point x="452" y="70" type="line"/>
      <point x="450" y="-50" type="line"/>
      <point x="450" y="-139"/>
      <point x="481" y="-179"/>
    </contour>
    <contour>
      <point x="285" y="27" type="curve" smooth="yes"/>
      <point x="178" y="27"/>
      <point x="114" y="112"/>
      <point x="114" y="239" type="curve" smooth="yes"/>
      <point x="114" y="360"/>
      <point x="195" y="453"/>
      <point x="295" y="453" type="curve" smooth="yes"/>
      <point x="345" y="453"/>
      <point x="396" y="434"/>
      <point x="450" y="382" type="curve"/>
      <point x="450" y="115" type="line"/>
      <point x="397" y="59"/>
      <point x="341" y="27"/>
    </contour>
    <contour>
      <point x="314" y="739" type="move" name="aboveUC"/>
    </contour>
    <contour>
      <point x="302" y="-227" type="move" name="belowLC"/>
    </contour>
  </outline>
</glyph>
<glyph name="dhook" format="1">
	<unicode hex="0257"/>
	<advance width="600"/>
	<outline>
		<contour>
			<point x="278" y="-12" type="curve" smooth="yes"/>
			<point x="346" y="-12"/>
			<point x="407" y="27"/>
			<point x="449" y="71" type="curve"/>
			<point x="452" y="71" type="line"/>
			<point x="456" y="0" type="line"/>
			<point x="494" y="0" type="line"/>
			<point x="494" y="591" type="line"/>
			<point x="494" y="652"/>
			<point x="510" y="695"/>
			<point x="556" y="695" type="curve" smooth="yes"/>
			<point x="571" y="695"/>
			<point x="584" y="691"/>
			<point x="594" y="687" type="curve"/>
			<point x="604" y="723" type="line"/>
			<point x="591" y="729"/>
			<point x="573" y="733"/>
			<point x="555" y="733" type="curve" smooth="yes"/>
			<point x="489" y="733"/>
			<point x="450" y="689"/>
			<point x="450" y="598" type="curve"/>
			<point x="450" y="521" type="line"/>
			<point x="452" y="424" type="line"/>
			<point x="450" y="424" type="line"/>
			<point x="402" y="467"/>
			<point x="353" y="492"/>
			<point x="293" y="492" type="curve" smooth="yes"/>
			<point x="174" y="492"/>
			<point x="67" y="394"/>
			<point x="67" y="239" type="curve" smooth="yes"/>
			<point x="67" y="77"/>
			<point x="153" y="-12"/>
		</contour>
		<contour>
			<point x="285" y="27" type="curve" smooth="yes"/>
			<point x="178" y="27"/>
			<point x="114" y="112"/>
			<point x="114" y="239" type="curve" smooth="yes"/>
			<point x="114" y="360"/>
			<point x="194" y="453"/>
			<point x="295" y="453" type="curve" smooth="yes"/>
			<point x="345" y="453"/>
			<point x="395" y="434"/>
			<point x="450" y="382" type="curve"/>
			<point x="450" y="115" type="line"/>
			<point x="397" y="59"/>
			<point x="341" y="27"/>
		</contour>
		<contour>
			<point name="aboveUC" x="318" y="739" type="move"/>
		</contour>
		<contour>
			<point name="belowLC" x="300" y="-20" type="move"/>
		</contour>
	</outline>
</glyph>
<glyph name="ereversed" format="1">
  <advance width="600"/>
  <unicode hex="0258"/>
  <outline>
    <contour>
      <point x="270" y="-12" type="curve" smooth="yes"/>
      <point x="408" y="-12"/>
      <point x="523" y="82"/>
      <point x="523" y="239" type="curve" smooth="yes"/>
      <point x="523" y="396"/>
      <point x="419" y="492"/>
      <point x="294" y="492" type="curve" smooth="yes"/>
      <point x="163" y="492"/>
      <point x="68" y="408"/>
      <point x="68" y="270" type="curve" smooth="yes"/>
      <point x="68" y="258"/>
      <point x="68" y="245"/>
      <point x="70" y="233" type="curve"/>
      <point x="501" y="233" type="line"/>
      <point x="501" y="271" type="line"/>
      <point x="90" y="271" type="line"/>
      <point x="108" y="253" type="line"/>
      <point x="108" y="389"/>
      <point x="190" y="454"/>
      <point x="293" y="454" type="curve" smooth="yes"/>
      <point x="393" y="454"/>
      <point x="478" y="376"/>
      <point x="478" y="241" type="curve" smooth="yes"/>
      <point x="478" y="102"/>
      <point x="381" y="26"/>
      <point x="268" y="26" type="curve" smooth="yes"/>
      <point x="202" y="26"/>
      <point x="151" y="47"/>
      <point x="106" y="78" type="curve"/>
      <point x="88" y="44" type="line"/>
      <point x="132" y="16"/>
      <point x="185" y="-12"/>
    </contour>
    <contour>
      <point x="302" y="502" type="move" name="aboveLC"/>
    </contour>
    <contour>
      <point x="291" y="-20" type="move" name="belowLC"/>
    </contour>
  </outline>
</glyph>
<glyph name="ghook" format="1">
  <advance width="600"/>
  <unicode hex="0260"/>
  <outline>
    <contour>
      <point x="286" y="-229" type="curve" smooth="yes"/>
      <point x="414" y="-229"/>
      <point x="494" y="-156"/>
      <point x="494" y="-42" type="curve" smooth="yes"/>
      <point x="494" y="473" type="line" smooth="yes"/>
      <point x="494" y="533"/>
      <point x="510" y="577"/>
      <point x="557" y="577" type="curve" smooth="yes"/>
      <point x="572" y="577"/>
      <point x="584" y="573"/>
      <point x="594" y="569" type="curve"/>
      <point x="604" y="605" type="line"/>
      <point x="591" y="611"/>
      <point x="574" y="615"/>
      <point x="556" y="615" type="curve" smooth="yes"/>
      <point x="489" y="615"/>
      <point x="450" y="570"/>
      <point x="450" y="479" type="curve"/>
      <point x="452" y="424" type="line"/>
      <point x="450" y="424" type="line"/>
      <point x="406" y="465"/>
      <point x="354" y="492"/>
      <point x="293" y="492" type="curve" smooth="yes"/>
      <point x="174" y="492"/>
      <point x="67" y="398"/>
      <point x="67" y="246" type="curve" smooth="yes"/>
      <point x="67" y="88"/>
      <point x="153" y="0"/>
      <point x="279" y="0" type="curve" smooth="yes"/>
      <point x="347" y="0"/>
      <point x="409" y="37"/>
      <point x="450" y="82" type="curve"/>
      <point x="452" y="82" type="line"/>
      <point x="450" y="-35" type="line" smooth="yes"/>
      <point x="449" y="-132"/>
      <point x="390" y="-192"/>
      <point x="286" y="-192" type="curve" smooth="yes"/>
      <point x="232" y="-192"/>
      <point x="175" y="-177"/>
      <point x="125" y="-142" type="curve"/>
      <point x="105" y="-177" type="line"/>
      <point x="155" y="-209"/>
      <point x="217" y="-229"/>
    </contour>
    <contour>
      <point x="285" y="39" type="curve" smooth="yes"/>
      <point x="178" y="39"/>
      <point x="114" y="122"/>
      <point x="114" y="246" type="curve" smooth="yes"/>
      <point x="114" y="363"/>
      <point x="194" y="453"/>
      <point x="295" y="453" type="curve" smooth="yes"/>
      <point x="345" y="453"/>
      <point x="396" y="434"/>
      <point x="450" y="382" type="curve"/>
      <point x="450" y="127" type="line"/>
      <point x="397" y="70"/>
      <point x="341" y="39"/>
    </contour>
    <contour>
      <point x="301" y="502" type="move" name="aboveLC"/>
    </contour>
    <contour>
      <point x="291" y="-227" type="move" name="belowLC"/>
    </contour>
  </outline>
</glyph>
<glyph name="gscript" format="1">
  <advance width="600"/>
  <unicode hex="0261"/>
  <outline>
    <contour>
      <point x="286" y="-229" type="curve" smooth="yes"/>
      <point x="415" y="-229"/>
      <point x="495" y="-155"/>
      <point x="495" y="-40" type="curve" smooth="yes"/>
      <point x="495" y="480" type="line"/>
      <point x="458" y="480" type="line"/>
      <point x="453" y="425" type="line"/>
      <point x="451" y="425" type="line"/>
      <point x="406" y="465"/>
      <point x="354" y="492"/>
      <point x="294" y="492" type="curve" smooth="yes"/>
      <point x="174" y="492"/>
      <point x="67" y="398"/>
      <point x="67" y="246" type="curve" smooth="yes"/>
      <point x="67" y="88"/>
      <point x="153" y="0"/>
      <point x="279" y="0" type="curve" smooth="yes"/>
      <point x="346" y="0"/>
      <point x="407" y="37"/>
      <point x="449" y="82" type="curve"/>
      <point x="452" y="82" type="line"/>
      <point x="451" y="-35" type="line"/>
      <point x="450" y="-132"/>
      <point x="391" y="-192"/>
      <point x="286" y="-192" type="curve" smooth="yes"/>
      <point x="233" y="-192"/>
      <point x="175" y="-177"/>
      <point x="124" y="-142" type="curve"/>
      <point x="104" y="-177" type="line"/>
      <point x="155" y="-210"/>
      <point x="218" y="-229"/>
    </contour>
    <contour>
      <point x="285" y="39" type="curve" smooth="yes"/>
      <point x="178" y="39"/>
      <point x="113" y="122"/>
      <point x="113" y="246" type="curve" smooth="yes"/>
      <point x="113" y="363"/>
      <point x="195" y="453"/>
      <point x="296" y="453" type="curve" smooth="yes"/>
      <point x="346" y="453"/>
      <point x="396" y="434"/>
      <point x="450" y="382" type="curve"/>
      <point x="450" y="127" type="line"/>
      <point x="397" y="70"/>
      <point x="341" y="39"/>
    </contour>
    <contour>
      <point x="310" y="502" type="move" name="aboveLC"/>
    </contour>
    <contour>
      <point x="291" y="-227" type="move" name="belowLC"/>
    </contour>
  </outline>
</glyph>
<glyph name="gammalatin" format="1">
  <advance width="600"/>
  <unicode hex="0263"/>
  <outline>
    <contour>
      <point x="275" y="25" type="line"/>
      <point x="327" y="25" type="line"/>
      <point x="538" y="480" type="line"/>
      <point x="493" y="480" type="line"/>
      <point x="363" y="189" type="line"/>
      <point x="341" y="142"/>
      <point x="327" y="109"/>
      <point x="303" y="64" type="curve"/>
      <point x="299" y="64" type="line"/>
      <point x="276" y="109"/>
      <point x="262" y="142"/>
      <point x="240" y="189" type="curve"/>
      <point x="110" y="480" type="line"/>
      <point x="62" y="480" type="line"/>
    </contour>
    <contour>
      <point x="301" y="-231" type="curve" smooth="yes"/>
      <point x="361" y="-231"/>
      <point x="391" y="-189"/>
      <point x="391" y="-129" type="curve" smooth="yes"/>
      <point x="391" y="-83"/>
      <point x="362" y="-35"/>
      <point x="326" y="44" type="curve"/>
      <point x="276" y="44" type="line"/>
      <point x="241" y="-35"/>
      <point x="212" y="-83"/>
      <point x="212" y="-129" type="curve" smooth="yes"/>
      <point x="212" y="-189"/>
      <point x="241" y="-231"/>
    </contour>
    <contour>
      <point x="301" y="-195" type="curve" smooth="yes"/>
      <point x="268" y="-195"/>
      <point x="254" y="-167"/>
      <point x="254" y="-131" type="curve" smooth="yes"/>
      <point x="254" y="-96"/>
      <point x="275" y="-44"/>
      <point x="299" y="3" type="curve"/>
      <point x="303" y="3" type="line"/>
      <point x="327" y="-44"/>
      <point x="349" y="-92"/>
      <point x="349" y="-131" type="curve" smooth="yes"/>
      <point x="349" y="-167"/>
      <point x="335" y="-195"/>
    </contour>
    <contour>
      <point x="300" y="502" type="move" name="aboveLC"/>
    </contour>
    <contour>
      <point x="300" y="-229" type="move" name="belowLC"/>
    </contour>
  </outline>
</glyph>
<glyph name="hhook" format="1">
  <advance width="600"/>
  <unicode hex="0266"/>
  <outline>
    <contour>
      <point x="105" y="0" type="line"/>
      <point x="150" y="0" type="line"/>
      <point x="150" y="342" type="line"/>
      <point x="219" y="415"/>
      <point x="266" y="450"/>
      <point x="334" y="450" type="curve" smooth="yes"/>
      <point x="429" y="450"/>
      <point x="469" y="399"/>
      <point x="469" y="291" type="curve" smooth="yes"/>
      <point x="469" y="0" type="line"/>
      <point x="514" y="0" type="line"/>
      <point x="514" y="297" type="line" smooth="yes"/>
      <point x="514" y="427"/>
      <point x="458" y="490"/>
      <point x="341" y="490" type="curve" smooth="yes"/>
      <point x="265" y="490"/>
      <point x="206" y="445"/>
      <point x="149" y="383" type="curve"/>
      <point x="145" y="383" type="line"/>
      <point x="150" y="508" type="line"/>
      <point x="150" y="556" type="line"/>
      <point x="151" y="637"/>
      <point x="184" y="693"/>
      <point x="264" y="693" type="curve" smooth="yes"/>
      <point x="285" y="693"/>
      <point x="309" y="689"/>
      <point x="332" y="677" type="curve"/>
      <point x="346" y="713" type="line"/>
      <point x="321" y="724"/>
      <point x="289" y="731"/>
      <point x="263" y="731" type="curve" smooth="yes"/>
      <point x="164" y="731"/>
      <point x="105" y="667"/>
      <point x="105" y="558" type="curve"/>
    </contour>
    <contour>
      <point x="263" y="739" type="move" name="aboveUC"/>
    </contour>
    <contour>
      <point x="319" y="-20" type="move" name="belowLC"/>
    </contour>
  </outline>
</glyph>
<glyph name="henghook" format="1">
  <advance width="600"/>
  <unicode hex="0267"/>
  <outline>
    <contour>
      <point x="397" y="-181" type="curve" smooth="yes"/>
      <point x="478" y="-181"/>
      <point x="514" y="-132"/>
      <point x="514" y="-32" type="curve"/>
      <point x="514" y="297" type="line" smooth="yes"/>
      <point x="514" y="427"/>
      <point x="458" y="490"/>
      <point x="341" y="490" type="curve" smooth="yes"/>
      <point x="265" y="490"/>
      <point x="206" y="445"/>
      <point x="149" y="383" type="curve"/>
      <point x="145" y="383" type="line"/>
      <point x="150" y="508" type="line"/>
      <point x="150" y="556" type="line"/>
      <point x="151" y="637"/>
      <point x="184" y="693"/>
      <point x="264" y="693" type="curve" smooth="yes"/>
      <point x="285" y="693"/>
      <point x="308" y="688"/>
      <point x="332" y="677" type="curve"/>
      <point x="346" y="713" type="line"/>
      <point x="320" y="724"/>
      <point x="289" y="731"/>
      <point x="263" y="731" type="curve" smooth="yes"/>
      <point x="164" y="731"/>
      <point x="105" y="667"/>
      <point x="105" y="558" type="curve"/>
      <point x="105" y="0" type="line"/>
      <point x="150" y="0" type="line"/>
      <point x="150" y="342" type="line"/>
      <point x="219" y="415"/>
      <point x="266" y="450"/>
      <point x="334" y="450" type="curve" smooth="yes"/>
      <point x="429" y="450"/>
      <point x="469" y="399"/>
      <point x="469" y="291" type="curve" smooth="yes"/>
      <point x="469" y="-29" type="line"/>
      <point x="469" y="-95"/>
      <point x="457" y="-142"/>
      <point x="396" y="-142" type="curve" smooth="yes"/>
      <point x="373" y="-142"/>
      <point x="351" y="-136"/>
      <point x="337" y="-131" type="curve"/>
      <point x="326" y="-167" type="line"/>
      <point x="343" y="-174"/>
      <point x="372" y="-181"/>
    </contour>
    <contour>
      <point x="263" y="739" type="move" name="aboveUC"/>
    </contour>
    <contour>
      <point x="382" y="-227" type="move" name="belowLC"/>
    </contour>
  </outline>
</glyph>
<glyph name="istroke" format="1">
	<unicode hex="0268"/>
	<advance width="600"/>
	<outline>
		<component base="istroke.d"/>
		<component base="dotaccentcmb" xOffset="49"/>
		<contour>
			<point name="aboveUC" x="349" y="725" type="move"/>
		</contour>
		<contour>
			<point name="baseLC" x="354" y="0" type="move"/>
		</contour>
		<contour>
			<point name="belowLC" x="349" y="-20" type="move"/>
		</contour>
	</outline>
</glyph>
<glyph name="lezh" format="1">
  <advance width="600"/>
  <unicode hex="026E"/>
  <outline>
    <contour>
      <point x="102" y="0" type="line"/>
      <point x="146" y="0" type="line"/>
      <point x="146" y="719" type="line"/>
      <point x="102" y="719" type="line"/>
    </contour>
    <contour>
      <point x="351" y="-229" type="curve" smooth="yes"/>
      <point x="454" y="-229"/>
      <point x="554" y="-153"/>
      <point x="554" y="-15" type="curve" smooth="yes"/>
      <point x="554" y="110"/>
      <point x="457" y="208"/>
      <point x="287" y="163" type="curve"/>
      <point x="299" y="145" type="line"/>
      <point x="534" y="457" type="line"/>
      <point x="534" y="480" type="line"/>
      <point x="142" y="480" type="line"/>
      <point x="142" y="442" type="line"/>
      <point x="474" y="442" type="line"/>
      <point x="253" y="150" type="line"/>
      <point x="278" y="121" type="line"/>
      <point x="300" y="132"/>
      <point x="317" y="138"/>
      <point x="354" y="138" type="curve" smooth="yes"/>
      <point x="451" y="138"/>
      <point x="508" y="79"/>
      <point x="508" y="-18" type="curve" smooth="yes"/>
      <point x="508" y="-121"/>
      <point x="436" y="-190"/>
      <point x="350" y="-190" type="curve" smooth="yes"/>
      <point x="263" y="-190"/>
      <point x="214" y="-159"/>
      <point x="177" y="-123" type="curve"/>
      <point x="151" y="-154" type="line"/>
      <point x="191" y="-191"/>
      <point x="249" y="-229"/>
    </contour>
    <contour>
      <point x="128" y="739" type="move" name="aboveUC"/>
    </contour>
    <contour>
      <point x="352" y="-227" type="move" name="belowLC"/>
    </contour>
  </outline>
</glyph>
<glyph name="nhookleft" format="1">
  <advance width="600"/>
  <unicode hex="0272"/>
  <outline>
    <contour>
      <point x="53" y="-181" type="curve" smooth="yes"/>
      <point x="121" y="-181"/>
      <point x="151" y="-139"/>
      <point x="151" y="-47" type="curve" smooth="yes"/>
      <point x="151" y="344" type="line"/>
      <point x="220" y="417"/>
      <point x="267" y="452"/>
      <point x="335" y="452" type="curve" smooth="yes"/>
      <point x="429" y="452"/>
      <point x="469" y="401"/>
      <point x="469" y="293" type="curve" smooth="yes"/>
      <point x="469" y="0" type="line"/>
      <point x="514" y="0" type="line"/>
      <point x="514" y="299" type="line" smooth="yes"/>
      <point x="514" y="429"/>
      <point x="458" y="492"/>
      <point x="341" y="492" type="curve" smooth="yes"/>
      <point x="264" y="492"/>
      <point x="208" y="447"/>
      <point x="153" y="388" type="curve"/>
      <point x="149" y="388" type="line"/>
      <point x="144" y="480" type="line"/>
      <point x="107" y="480" type="line"/>
      <point x="107" y="-44" type="line" smooth="yes"/>
      <point x="107" y="-103"/>
      <point x="95" y="-142"/>
      <point x="52" y="-142" type="curve" smooth="yes"/>
      <point x="37" y="-142"/>
      <point x="22" y="-137"/>
      <point x="12" y="-133" type="curve"/>
      <point x="2" y="-169" type="line"/>
      <point x="13" y="-175"/>
      <point x="35" y="-181"/>
    </contour>
    <contour>
      <point x="322" y="502" type="move" name="aboveLC"/>
    </contour>
    <contour>
      <point x="120" y="-227" type="move" name="belowLC"/>
    </contour>
  </outline>
</glyph>
<glyph name="rfishhook" format="1">
  <advance width="600"/>
  <unicode hex="027E"/>
  <outline>
    <contour>
      <point x="163" y="0" type="line"/>
      <point x="208" y="0" type="line"/>
      <point x="208" y="236" type="line" smooth="yes"/>
      <point x="208" y="382"/>
      <point x="296" y="450"/>
      <point x="413" y="450" type="curve" smooth="yes"/>
      <point x="447" y="450"/>
      <point x="481" y="447"/>
      <point x="518" y="433" type="curve"/>
      <point x="530" y="472" type="line"/>
      <point x="496" y="486"/>
      <point x="455" y="492"/>
      <point x="412" y="492" type="curve" smooth="yes"/>
      <point x="273" y="492"/>
      <point x="163" y="417"/>
      <point x="163" y="244" type="curve" smooth="yes"/>
    </contour>
    <contour>
      <point x="359" y="502" type="move" name="aboveLC"/>
    </contour>
    <contour>
      <point x="190" y="-20" type="move" name="belowLC"/>
    </contour>
  </outline>
</glyph>
<glyph name="esh" format="1">
  <advance width="600"/>
  <unicode hex="0283"/>
  <outline>
    <contour>
      <point x="188" y="-229" type="curve" smooth="yes"/>
      <point x="281" y="-229"/>
      <point x="323" y="-172"/>
      <point x="323" y="-53" type="curve" smooth="yes"/>
      <point x="323" y="554" type="line" smooth="yes"/>
      <point x="323" y="635"/>
      <point x="341" y="695"/>
      <point x="426" y="695" type="curve" smooth="yes"/>
      <point x="459" y="695"/>
      <point x="484" y="683"/>
      <point x="515" y="666" type="curve"/>
      <point x="530" y="702" type="line"/>
      <point x="492" y="722"/>
      <point x="465" y="733"/>
      <point x="425" y="733" type="curve" smooth="yes"/>
      <point x="324" y="733"/>
      <point x="279" y="676"/>
      <point x="279" y="557" type="curve" smooth="yes"/>
      <point x="279" y="-50" type="line"/>
      <point x="279" y="-131"/>
      <point x="264" y="-191"/>
      <point x="187" y="-191" type="curve" smooth="yes"/>
      <point x="147" y="-191"/>
      <point x="112" y="-177"/>
      <point x="81" y="-162" type="curve"/>
      <point x="63" y="-197" type="line"/>
      <point x="103" y="-218"/>
      <point x="142" y="-229"/>
    </contour>
    <contour>
      <point x="346" y="739" type="move" name="aboveUC"/>
    </contour>
    <contour>
      <point x="274" y="-227" type="move" name="belowLC"/>
    </contour>
  </outline>
</glyph>
<glyph name="ysmall" format="1">
  <advance width="600"/>
  <unicode hex="028F"/>
  <outline>
    <contour>
      <point x="279" y="0" type="line"/>
      <point x="323" y="0" type="line"/>
      <point x="323" y="173" type="line"/>
      <point x="531" y="480" type="line"/>
      <point x="481" y="480" type="line"/>
      <point x="378" y="325" type="line"/>
      <point x="352" y="284"/>
      <point x="327" y="251"/>
      <point x="304" y="210" type="curve"/>
      <point x="300" y="210" type="line"/>
      <point x="276" y="251"/>
      <point x="250" y="285"/>
      <point x="224" y="325" type="curve"/>
      <point x="121" y="480" type="line"/>
      <point x="71" y="480" type="line"/>
      <point x="279" y="173" type="line"/>
    </contour>
    <contour>
      <point x="300" y="502" type="move" name="aboveLC"/>
    </contour>
    <contour>
      <point x="300" y="-20" type="move" name="belowLC"/>
    </contour>
  </outline>
</glyph>
<glyph name="zretroflex" format="1">
	<unicode hex="0290"/>
	<advance width="600"/>
	<outline>
		<contour>
			<point x="560" y="-181" type="curve" smooth="yes"/>
			<point x="578" y="-181"/>
			<point x="600" y="-175"/>
			<point x="611" y="-169" type="curve"/>
			<point x="601" y="-133" type="line"/>
			<point x="591" y="-137"/>
			<point x="576" y="-142"/>
			<point x="561" y="-142" type="curve" smooth="yes"/>
			<point x="518" y="-142"/>
			<point x="506" y="-103"/>
			<point x="506" y="-44" type="curve" smooth="yes"/>
			<point x="506" y="39" type="line"/>
			<point x="139" y="39" type="line"/>
			<point x="506" y="457" type="line"/>
			<point x="506" y="480" type="line"/>
			<point x="112" y="480" type="line"/>
			<point x="112" y="442" type="line"/>
			<point x="439" y="442" type="line"/>
			<point x="72" y="24" type="line"/>
			<point x="72" y="0" type="line"/>
			<point x="462" y="0" type="line"/>
			<point x="462" y="-49" type="line" smooth="yes"/>
			<point x="462" y="-139"/>
			<point x="491" y="-181"/>
		</contour>
		<contour>
			<point name="aboveLC" x="319" y="502" type="move"/>
		</contour>
	</outline>
</glyph>
<glyph name="ezh" format="1">
  <advance width="600"/>
  <unicode hex="0292"/>
  <outline>
    <contour>
      <point x="291" y="-229" type="curve" smooth="yes"/>
      <point x="408" y="-229"/>
      <point x="523" y="-152"/>
      <point x="523" y="-11" type="curve" smooth="yes"/>
      <point x="523" y="113"/>
      <point x="442" y="185"/>
      <point x="300" y="185" type="curve" smooth="yes"/>
      <point x="281" y="185"/>
      <point x="247" y="183"/>
      <point x="211" y="168" type="curve"/>
      <point x="216" y="161" type="line"/>
      <point x="503" y="457" type="line"/>
      <point x="503" y="480" type="line"/>
      <point x="107" y="480" type="line"/>
      <point x="107" y="442" type="line"/>
      <point x="438" y="442" type="line"/>
      <point x="155" y="152" type="line"/>
      <point x="179" y="121" type="line"/>
      <point x="218" y="140"/>
      <point x="237" y="149"/>
      <point x="284" y="149" type="curve" smooth="yes"/>
      <point x="410" y="149"/>
      <point x="477" y="87"/>
      <point x="477" y="-14" type="curve" smooth="yes"/>
      <point x="477" y="-119"/>
      <point x="390" y="-190"/>
      <point x="290" y="-190" type="curve" smooth="yes"/>
      <point x="189" y="-190"/>
      <point x="133" y="-148"/>
      <point x="88" y="-103" type="curve"/>
      <point x="63" y="-135" type="line"/>
      <point x="111" y="-179"/>
      <point x="174" y="-229"/>
    </contour>
    <contour>
      <point x="308" y="502" type="move" name="aboveLC"/>
    </contour>
    <contour>
      <point x="289" y="-229" type="move" name="belowLC"/>
    </contour>
  </outline>
</glyph>
<glyph name="kturned" format="1">
  <advance width="600"/>
  <unicode hex="029E"/>
  <outline>
    <contour>
      <point x="432" y="-217" type="line"/>
      <point x="477" y="-217" type="line"/>
      <point x="477" y="480" type="line"/>
      <point x="432" y="480" type="line"/>
      <point x="432" y="344" type="line"/>
      <point x="65" y="0" type="line"/>
      <point x="120" y="0" type="line"/>
      <point x="428" y="290" type="line"/>
      <point x="432" y="290" type="line"/>
    </contour>
    <contour>
      <point x="273" y="171" type="line"/>
      <point x="302" y="202" type="line"/>
      <point x="84" y="480" type="line"/>
      <point x="33" y="480" type="line"/>
    </contour>
    <contour>
      <point x="277" y="502" type="move" name="aboveLC"/>
    </contour>
    <contour>
      <point x="450" y="-227" type="move" name="belowLC"/>
    </contour>
  </outline>
</glyph>
<glyph name="dezh" format="1">
  <advance width="600"/>
  <unicode hex="02A4"/>
  <outline>
    <contour>
      <point x="160" y="-12" type="curve" smooth="yes"/>
      <point x="214" y="-12"/>
      <point x="254" y="31"/>
      <point x="273" y="70" type="curve"/>
      <point x="275" y="70" type="line"/>
      <point x="280" y="0" type="line"/>
      <point x="315" y="0" type="line"/>
      <point x="315" y="719" type="line"/>
      <point x="272" y="719" type="line"/>
      <point x="272" y="524" type="line"/>
      <point x="275" y="426" type="line"/>
      <point x="273" y="426" type="line"/>
      <point x="253" y="461"/>
      <point x="220" y="492"/>
      <point x="174" y="492" type="curve" smooth="yes"/>
      <point x="86" y="492"/>
      <point x="7" y="394"/>
      <point x="7" y="239" type="curve" smooth="yes"/>
      <point x="7" y="78"/>
      <point x="70" y="-12"/>
    </contour>
    <contour>
      <point x="166" y="27" type="curve" smooth="yes"/>
      <point x="95" y="27"/>
      <point x="53" y="112"/>
      <point x="53" y="239" type="curve" smooth="yes"/>
      <point x="53" y="360"/>
      <point x="106" y="453"/>
      <point x="177" y="453" type="curve" smooth="yes"/>
      <point x="217" y="453"/>
      <point x="245" y="425"/>
      <point x="272" y="382" type="curve"/>
      <point x="272" y="116" type="line"/>
      <point x="245" y="66"/>
      <point x="211" y="27"/>
    </contour>
    <contour>
      <point x="463" y="-229" type="curve" smooth="yes"/>
      <point x="544" y="-229"/>
      <point x="618" y="-160"/>
      <point x="618" y="-16" type="curve" smooth="yes"/>
      <point x="618" y="99"/>
      <point x="559" y="176"/>
      <point x="465" y="176" type="curve"/>
      <point x="448" y="176"/>
      <point x="424" y="172"/>
      <point x="399" y="162" type="curve"/>
      <point x="414" y="144" type="line"/>
      <point x="598" y="457" type="line"/>
      <point x="598" y="480" type="line"/>
      <point x="306" y="480" type="line"/>
      <point x="306" y="442" type="line"/>
      <point x="542" y="442" type="line"/>
      <point x="373" y="152" type="line"/>
      <point x="396" y="119" type="line"/>
      <point x="417" y="131"/>
      <point x="432" y="138"/>
      <point x="458" y="138" type="curve" smooth="yes"/>
      <point x="530" y="138"/>
      <point x="572" y="80"/>
      <point x="572" y="-17" type="curve" smooth="yes"/>
      <point x="572" y="-131"/>
      <point x="524" y="-191"/>
      <point x="463" y="-191" type="curve" smooth="yes"/>
      <point x="403" y="-191"/>
      <point x="373" y="-167"/>
      <point x="342" y="-136" type="curve"/>
      <point x="317" y="-166" type="line"/>
      <point x="351" y="-201"/>
      <point x="390" y="-229"/>
    </contour>
    <contour>
      <point x="280" y="730" type="move" name="aboveUC"/>
    </contour>
    <contour>
      <point x="330" y="-227" type="move" name="belowLC"/>
    </contour>
  </outline>
</glyph>
<glyph name="tesh" format="1">
  <advance width="600"/>
  <unicode hex="02A7"/>
  <outline>
    <contour>
      <point x="266" y="-12" type="curve" smooth="yes"/>
      <point x="286" y="-12"/>
      <point x="317" y="-4"/>
      <point x="344" y="6" type="curve"/>
      <point x="333" y="42" type="line"/>
      <point x="315" y="34"/>
      <point x="290" y="27"/>
      <point x="272" y="27" type="curve" smooth="yes"/>
      <point x="207" y="27"/>
      <point x="192" y="68"/>
      <point x="192" y="129" type="curve" smooth="yes"/>
      <point x="192" y="442" type="line"/>
      <point x="422" y="442" type="line"/>
      <point x="422" y="480" type="line"/>
      <point x="192" y="480" type="line"/>
      <point x="192" y="619" type="line"/>
      <point x="154" y="619" type="line"/>
      <point x="149" y="480" type="line"/>
      <point x="73" y="476" type="line"/>
      <point x="73" y="442" type="line"/>
      <point x="148" y="442" type="line"/>
      <point x="148" y="133" type="line" smooth="yes"/>
      <point x="148" y="47"/>
      <point x="175" y="-12"/>
    </contour>
    <contour>
      <point x="344" y="-229" type="curve" smooth="yes"/>
      <point x="417" y="-229"/>
      <point x="451" y="-183"/>
      <point x="451" y="-89" type="curve" smooth="yes"/>
      <point x="451" y="590" type="line" smooth="yes"/>
      <point x="451" y="651"/>
      <point x="463" y="695"/>
      <point x="524" y="695" type="curve" smooth="yes"/>
      <point x="539" y="695"/>
      <point x="554" y="689"/>
      <point x="564" y="685" type="curve"/>
      <point x="575" y="721" type="line"/>
      <point x="562" y="727"/>
      <point x="543" y="733"/>
      <point x="523" y="733" type="curve" smooth="yes"/>
      <point x="443" y="733"/>
      <point x="406" y="687"/>
      <point x="406" y="594" type="curve" smooth="yes"/>
      <point x="406" y="-86" type="line"/>
      <point x="406" y="-147"/>
      <point x="396" y="-191"/>
      <point x="343" y="-191" type="curve" smooth="yes"/>
      <point x="324" y="-191"/>
      <point x="305" y="-185"/>
      <point x="293" y="-181" type="curve"/>
      <point x="282" y="-217" type="line"/>
      <point x="297" y="-223"/>
      <point x="321" y="-229"/>
    </contour>
    <contour>
      <point x="309" y="730" type="move" name="aboveUC"/>
    </contour>
    <contour>
      <point x="331" y="-227" type="move" name="belowLC"/>
    </contour>
  </outline>
</glyph>
<glyph name="ringhalfrightmod" format="1">
  <advance width="600"/>
  <unicode hex="02BE"/>
  <outline>
    <contour>
      <point x="229" y="538" type="line"/>
      <point x="336" y="534"/>
      <point x="403" y="589"/>
      <point x="403" y="681" type="curve" smooth="yes"/>
      <point x="403" y="772"/>
      <point x="336" y="827"/>
      <point x="229" y="823" type="curve"/>
      <point x="229" y="791" type="line"/>
      <point x="312" y="791"/>
      <point x="362" y="749"/>
      <point x="362" y="681" type="curve" smooth="yes"/>
      <point x="362" y="612"/>
      <point x="312" y="570"/>
      <point x="229" y="570" type="curve"/>
    </contour>
  </outline>
</glyph>
<glyph name="hookrhoticmod" format="1">
  <advance width="600"/>
  <unicode hex="02DE"/>
  <outline>
    <contour>
      <point x="325" y="232" type="curve" smooth="yes"/>
      <point x="351" y="232"/>
      <point x="370" y="244"/>
      <point x="384" y="255" type="curve"/>
      <point x="367" y="283" type="line"/>
      <point x="357" y="275"/>
      <point x="345" y="267"/>
      <point x="329" y="267" type="curve" smooth="yes"/>
      <point x="301" y="267"/>
      <point x="282" y="284"/>
      <point x="271" y="378" type="curve"/>
      <point x="150" y="330" type="line"/>
      <point x="150" y="293" type="line"/>
      <point x="243" y="327" type="line"/>
      <point x="256" y="259"/>
      <point x="286" y="232"/>
    </contour>
  </outline>
</glyph>
<glyph name="circumflexcmb" format="1">
  <advance width="600"/>
  <unicode hex="0302"/>
  <outline>
    <contour>
      <point x="184" y="572" type="line"/>
      <point x="298" y="698" type="line"/>
      <point x="302" y="698" type="line"/>
      <point x="416" y="572" type="line"/>
      <point x="438" y="593" type="line"/>
      <point x="321" y="737" type="line"/>
      <point x="279" y="737" type="line"/>
      <point x="162" y="593" type="line"/>
    </contour>
    <contour>
      <point x="300" y="502" type="move" name="_aboveLC"/>
    </contour>
    <contour>
      <point x="300" y="729" type="move" name="aboveLC"/>
    </contour>
  </outline>
</glyph>
<glyph name="macroncmb" format="1">
	<unicode hex="0304"/>
	<advance width="600"/>
	<outline>
		<contour>
			<point x="177" y="606" type="line"/>
			<point x="423" y="606" type="line"/>
			<point x="423" y="642" type="line"/>
			<point x="177" y="642" type="line"/>
		</contour>
		<contour>
			<point name="_aboveLC" x="300" y="502" type="move"/>
		</contour>
		<contour>
			<point name="aboveLC" x="300" y="520" type="move"/>
		</contour>
	</outline>
</glyph>
<glyph name="brevecmb" format="1">
	<unicode hex="0306"/>
	<advance width="600"/>
	<outline>
		<contour>
			<point x="300" y="570" type="curve" smooth="yes"/>
			<point x="403" y="570"/>
			<point x="441" y="652"/>
			<point x="449" y="718" type="curve"/>
			<point x="416" y="723" type="line"/>
			<point x="408" y="667"/>
			<point x="372" y="604"/>
			<point x="300" y="604" type="curve" smooth="yes"/>
			<point x="228" y="604"/>
			<point x="192" y="667"/>
			<point x="184" y="723" type="curve"/>
			<point x="151" y="718" type="line"/>
			<point x="159" y="652"/>
			<point x="197" y="570"/>
		</contour>
		<contour>
			<point name="_aboveLC" x="300" y="502" type="move"/>
		</contour>
		<contour>
			<point name="aboveLC" x="300" y="524" type="move"/>
		</contour>
	</outline>
</glyph>
<glyph name="dotaccentcmb" format="1">
  <advance width="600"/>
  <unicode hex="0307"/>
  <outline>
    <contour>
      <point x="300" y="597" type="curve" smooth="yes"/>
      <point x="326" y="597"/>
      <point x="347" y="615"/>
      <point x="347" y="645" type="curve" smooth="yes"/>
      <point x="347" y="674"/>
      <point x="326" y="693"/>
      <point x="300" y="693" type="curve" smooth="yes"/>
      <point x="274" y="693"/>
      <point x="253" y="674"/>
      <point x="253" y="645" type="curve" smooth="yes"/>
      <point x="253" y="615"/>
      <point x="274" y="597"/>
    </contour>
    <contour>
      <point x="300" y="502" type="move" name="_aboveLC"/>
    </contour>
    <contour>
      <point x="300" y="684" type="move" name="aboveLC"/>
    </contour>
  </outline>
</glyph>
<glyph name="dieresiscmb" format="1">
  <advance width="600"/>
  <unicode hex="0308"/>
  <outline>
    <contour>
      <point x="211" y="598" type="curve" smooth="yes"/>
      <point x="234" y="598"/>
      <point x="251" y="617"/>
      <point x="251" y="640" type="curve" smooth="yes"/>
      <point x="251" y="663"/>
      <point x="234" y="681"/>
      <point x="211" y="681" type="curve" smooth="yes"/>
      <point x="188" y="681"/>
      <point x="171" y="663"/>
      <point x="171" y="640" type="curve" smooth="yes"/>
      <point x="171" y="617"/>
      <point x="188" y="598"/>
    </contour>
    <contour>
      <point x="389" y="598" type="curve" smooth="yes"/>
      <point x="412" y="598"/>
      <point x="429" y="617"/>
      <point x="429" y="640" type="curve" smooth="yes"/>
      <point x="429" y="663"/>
      <point x="412" y="681"/>
      <point x="389" y="681" type="curve" smooth="yes"/>
      <point x="366" y="681"/>
      <point x="349" y="663"/>
      <point x="349" y="640" type="curve" smooth="yes"/>
      <point x="349" y="617"/>
      <point x="366" y="598"/>
    </contour>
    <contour>
      <point x="300" y="502" type="move" name="_aboveLC"/>
    </contour>
    <contour>
      <point x="300" y="659" type="move" name="aboveLC"/>
    </contour>
  </outline>
</glyph>
<glyph name="hoicmb" format="1">
  <advance width="600"/>
  <unicode hex="0309"/>
  <outline>
    <contour>
      <point x="275" y="575" type="line"/>
      <point x="323" y="588"/>
      <point x="370" y="611"/>
      <point x="370" y="663" type="curve" smooth="yes"/>
      <point x="370" y="716"/>
      <point x="315" y="739"/>
      <point x="248" y="741" type="curve"/>
      <point x="245" y="707" type="line"/>
      <point x="300" y="705"/>
      <point x="330" y="689"/>
      <point x="330" y="658" type="curve" smooth="yes"/>
      <point x="330" y="629"/>
      <point x="303" y="614"/>
      <point x="267" y="603" type="curve"/>
    </contour>
    <contour>
      <point x="300" y="502" type="move" name="_aboveLC"/>
    </contour>
    <contour>
      <point x="300" y="528" type="move" name="aboveLC"/>
    </contour>
  </outline>
</glyph>
<glyph name="candrabinducmb" format="1">
  <advance width="600"/>
  <unicode hex="0310"/>
  <outline>
    <contour>
      <point x="300" y="570" type="curve" smooth="yes"/>
      <point x="403" y="570"/>
      <point x="443" y="652"/>
      <point x="450" y="718" type="curve"/>
      <point x="418" y="723" type="line"/>
      <point x="410" y="666"/>
      <point x="373" y="603"/>
      <point x="300" y="603" type="curve" smooth="yes"/>
      <point x="227" y="603"/>
      <point x="190" y="666"/>
      <point x="182" y="723" type="curve"/>
      <point x="150" y="718" type="line"/>
      <point x="157" y="652"/>
      <point x="197" y="570"/>
    </contour>
    <contour>
      <point x="300" y="700" type="curve" smooth="yes"/>
      <point x="325" y="700"/>
      <point x="344" y="718"/>
      <point x="344" y="746" type="curve" smooth="yes"/>
      <point x="344" y="774"/>
      <point x="325" y="792"/>
      <point x="300" y="792" type="curve" smooth="yes"/>
      <point x="275" y="792"/>
      <point x="256" y="774"/>
      <point x="256" y="746" type="curve" smooth="yes"/>
      <point x="256" y="718"/>
      <point x="275" y="700"/>
    </contour>
    <contour>
      <point x="300" y="502" type="move" name="_aboveLC"/>
    </contour>
  </outline>
</glyph>
<glyph name="commaturnedabovecmb" format="1">
  <advance width="600"/>
  <unicode hex="0312"/>
  <outline>
    <contour>
      <point x="299" y="548" type="curve" smooth="yes"/>
      <point x="318" y="548"/>
      <point x="334" y="560"/>
      <point x="334" y="586" type="curve" smooth="yes"/>
      <point x="334" y="610"/>
      <point x="314" y="620"/>
      <point x="298" y="620" type="curve" smooth="yes"/>
      <point x="286" y="620"/>
      <point x="277" y="615"/>
      <point x="267" y="601" type="curve"/>
      <point x="305" y="567" type="line"/>
      <point x="305" y="569"/>
      <point x="289" y="614"/>
      <point x="289" y="616" type="curve" smooth="yes"/>
      <point x="289" y="648"/>
      <point x="304" y="675"/>
      <point x="343" y="696" type="curve"/>
      <point x="328" y="721" type="line"/>
      <point x="277" y="696"/>
      <point x="256" y="653"/>
      <point x="256" y="610" type="curve" smooth="yes"/>
      <point x="256" y="570"/>
      <point x="272" y="548"/>
    </contour>
    <contour>
      <point x="300" y="502" type="move" name="_aboveLC"/>
    </contour>
  </outline>
</glyph>
<glyph name="minusbelowcmb" format="1">
	<unicode hex="0320"/>
	<advance width="600"/>
	<outline>
		<contour>
			<point x="191" y="-147" type="line"/>
			<point x="409" y="-147" type="line"/>
			<point x="409" y="-114" type="line"/>
			<point x="191" y="-114" type="line"/>
		</contour>
		<contour>
			<point name="_belowLC" x="300" y="-20" type="move"/>
		</contour>
	</outline>
</glyph>
<glyph name="cedillacmb" format="1">
  <advance width="600"/>
  <unicode hex="0327"/>
  <outline>
    <contour>
      <point x="223" y="-219" type="line"/>
      <point x="317" y="-213"/>
      <point x="368" y="-186"/>
      <point x="368" y="-134" type="curve" smooth="yes"/>
      <point x="368" y="-94"/>
      <point x="340" y="-76"/>
      <point x="297" y="-65" type="curve"/>
      <point x="327" y="2" type="line"/>
      <point x="292" y="2" type="line"/>
      <point x="251" y="-85" type="line"/>
      <point x="306" y="-93"/>
      <point x="329" y="-107"/>
      <point x="329" y="-136" type="curve" smooth="yes"/>
      <point x="329" y="-166"/>
      <point x="303" y="-183"/>
      <point x="216" y="-189" type="curve"/>
    </contour>
    <contour>
      <point x="300" y="0" type="move" name="_baseLC"/>
    </contour>
  </outline>
</glyph>
<glyph name="breveinvertedbelowcmb" format="1">
  <advance width="600"/>
  <unicode hex="032F"/>
  <outline>
    <component base="breveinvertedcmb" yOffset="-801"/>
    <contour>
      <point x="300" y="-20" type="move" name="_belowLC"/>
    </contour>
  </outline>
</glyph>
<glyph name="squarebelowcmb" format="1">
	<unicode hex="033B"/>
	<advance width="600"/>
	<outline>
		<contour>
			<point x="182" y="-236" type="line"/>
			<point x="418" y="-236" type="line"/>
			<point x="418" y="-84" type="line"/>
			<point x="182" y="-84" type="line"/>
		</contour>
		<contour>
			<point x="214" y="-204" type="line"/>
			<point x="214" y="-115" type="line"/>
			<point x="386" y="-115" type="line"/>
			<point x="386" y="-204" type="line"/>
		</contour>
		<contour>
			<point name="_belowLC" x="300" y="-20" type="move"/>
		</contour>
	</outline>
</glyph>
<glyph name="xabovecmb" format="1">
  <advance width="600"/>
  <unicode hex="033D"/>
  <outline>
    <contour>
      <point x="239" y="564" type="line"/>
      <point x="300" y="624" type="line"/>
      <point x="361" y="564" type="line"/>
      <point x="382" y="585" type="line"/>
      <point x="322" y="643" type="line"/>
      <point x="382" y="701" type="line"/>
      <point x="361" y="722" type="line"/>
      <point x="300" y="663" type="line"/>
      <point x="239" y="722" type="line"/>
      <point x="218" y="701" type="line"/>
      <point x="278" y="643" type="line"/>
      <point x="218" y="585" type="line"/>
    </contour>
    <contour>
      <point x="300" y="502" type="move" name="_aboveLC"/>
    </contour>
  </outline>
</glyph>
<glyph name="numeralsign" format="1">
  <advance width="600"/>
  <unicode hex="0374"/>
  <outline>
    <contour>
      <point x="272" y="485" type="line"/>
      <point x="302" y="485" type="line"/>
      <point x="328" y="621" type="line"/>
      <point x="338" y="693" type="line"/>
      <point x="296" y="693" type="line"/>
    </contour>
  </outline>
</glyph>
<glyph name="lownumeralsign" format="1">
  <advance width="600"/>
  <unicode hex="0375"/>
  <outline>
    <contour>
      <point x="262" y="0" type="line"/>
      <point x="304" y="0" type="line"/>
      <point x="328" y="208" type="line"/>
      <point x="298" y="208" type="line"/>
      <point x="272" y="72" type="line"/>
    </contour>
  </outline>
</glyph>
<glyph name="Alphatonos" format="1">
  <advance width="600"/>
  <unicode hex="0386"/>
  <outline>
    <contour>
      <point x="51" y="0" type="line"/>
      <point x="97" y="0" type="line"/>
      <point x="229" y="388" type="line" smooth="yes"/>
      <point x="255" y="466"/>
      <point x="278" y="532"/>
      <point x="301" y="614" type="curve"/>
      <point x="305" y="614" type="line"/>
      <point x="328" y="532"/>
      <point x="350" y="466"/>
      <point x="377" y="388" type="curve" smooth="yes"/>
      <point x="506" y="0" type="line"/>
      <point x="555" y="0" type="line"/>
      <point x="326" y="659" type="line"/>
      <point x="280" y="659" type="line"/>
    </contour>
    <contour>
      <point x="157" y="226" type="line"/>
      <point x="446" y="226" type="line"/>
      <point x="446" y="265" type="line"/>
      <point x="157" y="265" type="line"/>
    </contour>
    <component base="tonos.cap" xOffset="-201"/>
  </outline>
</glyph>
<glyph name="Etatonos" format="1">
  <advance width="600"/>
  <unicode hex="0389"/>
  <outline>
    <contour>
      <point x="193" y="0" type="line"/>
      <point x="237" y="0" type="line"/>
      <point x="237" y="330" type="line"/>
      <point x="469" y="330" type="line"/>
      <point x="469" y="0" type="line"/>
      <point x="513" y="0" type="line"/>
      <point x="513" y="659" type="line"/>
      <point x="469" y="659" type="line"/>
      <point x="469" y="370" type="line"/>
      <point x="237" y="370" type="line"/>
      <point x="237" y="659" type="line"/>
      <point x="193" y="659" type="line"/>
    </contour>
    <component base="tonos.cap" xOffset="-219"/>
  </outline>
</glyph>
<glyph name="Iotatonos" format="1">
  <advance width="600"/>
  <unicode hex="038A"/>
  <outline>
    <contour>
      <point x="175" y="0" type="line"/>
      <point x="493" y="0" type="line"/>
      <point x="493" y="40" type="line"/>
      <point x="357" y="40" type="line"/>
      <point x="357" y="619" type="line"/>
      <point x="493" y="619" type="line"/>
      <point x="493" y="659" type="line"/>
      <point x="175" y="659" type="line"/>
      <point x="175" y="619" type="line"/>
      <point x="311" y="619" type="line"/>
      <point x="311" y="40" type="line"/>
      <point x="175" y="40" type="line"/>
    </contour>
    <component base="tonos.cap" xOffset="-219"/>
  </outline>
</glyph>
<glyph name="Upsilontonos" format="1">
  <advance width="600"/>
  <unicode hex="038E"/>
  <outline>
    <contour>
      <point x="362" y="0" type="line"/>
      <point x="406" y="0" type="line"/>
      <point x="406" y="242" type="line"/>
      <point x="589" y="659" type="line"/>
      <point x="547" y="659" type="line"/>
      <point x="452" y="441" type="line" smooth="yes"/>
      <point x="431" y="390"/>
      <point x="409" y="336"/>
      <point x="388" y="286" type="curve"/>
      <point x="384" y="286" type="line"/>
      <point x="361" y="336"/>
      <point x="340" y="386"/>
      <point x="316" y="441" type="curve" smooth="yes"/>
      <point x="224" y="659" type="line"/>
      <point x="179" y="659" type="line"/>
      <point x="362" y="242" type="line"/>
    </contour>
    <component base="tonos.cap" xOffset="-200"/>
  </outline>
</glyph>
<glyph name="Omegatonos" format="1">
  <advance width="600"/>
  <unicode hex="038F"/>
  <outline>
    <contour>
      <point x="133" y="0" type="line"/>
      <point x="293" y="0" type="line"/>
      <point x="293" y="34" type="line"/>
      <point x="229" y="109"/>
      <point x="191" y="213"/>
      <point x="191" y="356" type="curve" smooth="yes"/>
      <point x="191" y="513"/>
      <point x="247" y="629"/>
      <point x="343" y="629" type="curve" smooth="yes"/>
      <point x="440" y="629"/>
      <point x="496" y="513"/>
      <point x="496" y="356" type="curve" smooth="yes"/>
      <point x="496" y="213"/>
      <point x="458" y="109"/>
      <point x="394" y="34" type="curve"/>
      <point x="394" y="0" type="line"/>
      <point x="554" y="0" type="line"/>
      <point x="554" y="39" type="line"/>
      <point x="446" y="39" type="line"/>
      <point x="446" y="43" type="line"/>
      <point x="509" y="130"/>
      <point x="542" y="225"/>
      <point x="542" y="358" type="curve" smooth="yes"/>
      <point x="542" y="537"/>
      <point x="466" y="671"/>
      <point x="343" y="671" type="curve" smooth="yes"/>
      <point x="221" y="671"/>
      <point x="144" y="537"/>
      <point x="144" y="358" type="curve" smooth="yes"/>
      <point x="144" y="225"/>
      <point x="178" y="130"/>
      <point x="241" y="43" type="curve"/>
      <point x="241" y="39" type="line"/>
      <point x="133" y="39" type="line"/>
    </contour>
    <component base="tonos.cap" xOffset="-219"/>
  </outline>
</glyph>
<glyph name="Gamma" format="1">
  <advance width="600"/>
  <unicode hex="0393"/>
  <outline>
    <contour>
      <point x="157" y="0" type="line"/>
      <point x="203" y="0" type="line"/>
      <point x="203" y="619" type="line"/>
      <point x="520" y="619" type="line"/>
      <point x="520" y="659" type="line"/>
      <point x="157" y="659" type="line"/>
    </contour>
  </outline>
</glyph>
<glyph name="Delta" format="1">
  <advance width="600"/>
  <unicode hex="0394"/>
  <outline>
    <contour>
      <point x="50" y="0" type="line"/>
      <point x="550" y="0" type="line"/>
      <point x="550" y="27" type="line"/>
      <point x="324" y="659" type="line"/>
      <point x="276" y="659" type="line"/>
      <point x="50" y="27" type="line"/>
    </contour>
    <contour>
      <point x="101" y="40" type="line"/>
      <point x="223" y="386" type="line"/>
      <point x="299" y="607" type="line"/>
      <point x="303" y="607" type="line"/>
      <point x="377" y="386" type="line"/>
      <point x="499" y="40" type="line"/>
    </contour>
  </outline>
</glyph>
<glyph name="Phi" format="1">
  <advance width="600"/>
  <unicode hex="03A6"/>
  <outline>
    <contour>
      <point x="288" y="67" type="curve"/>
      <point x="312" y="67" type="line" smooth="yes"/>
      <point x="466" y="67"/>
      <point x="567" y="170"/>
      <point x="567" y="332" type="curve" smooth="yes"/>
      <point x="567" y="493"/>
      <point x="466" y="592"/>
      <point x="312" y="592" type="curve" smooth="yes"/>
      <point x="288" y="592" type="line" smooth="yes"/>
      <point x="134" y="592"/>
      <point x="33" y="493"/>
      <point x="33" y="332" type="curve" smooth="yes"/>
      <point x="33" y="170"/>
      <point x="134" y="67"/>
    </contour>
    <contour>
      <point x="287" y="105" type="line"/>
      <point x="159" y="105"/>
      <point x="79" y="197"/>
      <point x="79" y="332" type="curve" smooth="yes"/>
      <point x="79" y="466"/>
      <point x="159" y="554"/>
      <point x="287" y="554" type="curve" smooth="yes"/>
      <point x="313" y="554" type="line" smooth="yes"/>
      <point x="440" y="554"/>
      <point x="521" y="466"/>
      <point x="521" y="332" type="curve" smooth="yes"/>
      <point x="521" y="197"/>
      <point x="440" y="105"/>
      <point x="313" y="105" type="curve" smooth="yes"/>
    </contour>
    <contour>
      <point x="281" y="-22" type="line"/>
      <point x="319" y="-22" type="line"/>
      <point x="319" y="681" type="line"/>
      <point x="281" y="681" type="line"/>
    </contour>
  </outline>
</glyph>
<glyph name="Psi" format="1">
  <advance width="600"/>
  <unicode hex="03A8"/>
  <outline>
    <contour>
      <point x="286" y="257" type="curve"/>
      <point x="314" y="257" type="line" smooth="yes"/>
      <point x="457" y="257"/>
      <point x="541" y="332"/>
      <point x="541" y="498" type="curve" smooth="yes"/>
      <point x="541" y="659" type="line"/>
      <point x="497" y="659" type="line"/>
      <point x="497" y="499" type="line" smooth="yes"/>
      <point x="497" y="364"/>
      <point x="436" y="295"/>
      <point x="315" y="295" type="curve" smooth="yes"/>
      <point x="285" y="295" type="line" smooth="yes"/>
      <point x="164" y="295"/>
      <point x="103" y="364"/>
      <point x="103" y="499" type="curve" smooth="yes"/>
      <point x="103" y="659" type="line"/>
      <point x="59" y="659" type="line"/>
      <point x="59" y="498" type="line" smooth="yes"/>
      <point x="59" y="332"/>
      <point x="143" y="257"/>
    </contour>
    <contour>
      <point x="279" y="0" type="line"/>
      <point x="321" y="0" type="line"/>
      <point x="321" y="659" type="line"/>
      <point x="279" y="659" type="line"/>
    </contour>
  </outline>
</glyph>
<glyph name="alpha" format="1">
  <advance width="600"/>
  <unicode hex="03B1"/>
  <outline>
    <contour>
      <point x="263" y="-12" type="curve" smooth="yes"/>
      <point x="334" y="-12"/>
      <point x="389" y="23"/>
      <point x="437" y="96" type="curve"/>
      <point x="439" y="96" type="line"/>
      <point x="429" y="24"/>
      <point x="466" y="-12"/>
      <point x="516" y="-12" type="curve" smooth="yes"/>
      <point x="539" y="-12"/>
      <point x="554" y="-6"/>
      <point x="565" y="-1" type="curve"/>
      <point x="557" y="35" type="line"/>
      <point x="548" y="31"/>
      <point x="534" y="27"/>
      <point x="522" y="27" type="curve" smooth="yes"/>
      <point x="496" y="27"/>
      <point x="474" y="48"/>
      <point x="474" y="80" type="curve" smooth="yes"/>
      <point x="474" y="177"/>
      <point x="507" y="345"/>
      <point x="533" y="480" type="curve"/>
      <point x="489" y="480" type="line"/>
      <point x="466" y="348" type="line"/>
      <point x="464" y="348" type="line"/>
      <point x="439" y="455"/>
      <point x="360" y="492"/>
      <point x="290" y="492" type="curve" smooth="yes"/>
      <point x="172" y="492"/>
      <point x="67" y="396"/>
      <point x="67" y="228" type="curve" smooth="yes"/>
      <point x="67" y="69"/>
      <point x="147" y="-12"/>
    </contour>
    <contour>
      <point x="269" y="27" type="curve" smooth="yes"/>
      <point x="170" y="27"/>
      <point x="113" y="105"/>
      <point x="113" y="228" type="curve" smooth="yes"/>
      <point x="113" y="372"/>
      <point x="200" y="453"/>
      <point x="292" y="453" type="curve" smooth="yes"/>
      <point x="344" y="453"/>
      <point x="418" y="433"/>
      <point x="449" y="298" type="curve"/>
      <point x="441" y="204" type="line" smooth="yes"/>
      <point x="433" y="108"/>
      <point x="352" y="27"/>
    </contour>
    <contour>
      <point x="303" y="502" type="move" name="aboveLC"/>
    </contour>
    <contour>
      <point x="301" y="-20" type="move" name="belowLC"/>
    </contour>
  </outline>
</glyph>
<glyph name="beta" format="1">
  <advance width="600"/>
  <unicode hex="03B2"/>
  <outline>
    <contour>
      <point x="105" y="-180" type="line"/>
      <point x="150" y="-180" type="line"/>
      <point x="149" y="-95"/>
      <point x="149" y="-17"/>
      <point x="147" y="66" type="curve"/>
      <point x="198" y="8"/>
      <point x="269" y="-12"/>
      <point x="337" y="-12" type="curve" smooth="yes"/>
      <point x="444" y="-12"/>
      <point x="535" y="66"/>
      <point x="535" y="189" type="curve" smooth="yes"/>
      <point x="535" y="296"/>
      <point x="467" y="369"/>
      <point x="353" y="383" type="curve"/>
      <point x="353" y="387" type="line"/>
      <point x="431" y="430"/>
      <point x="473" y="489"/>
      <point x="473" y="564" type="curve" smooth="yes"/>
      <point x="473" y="675"/>
      <point x="389" y="731"/>
      <point x="297" y="731" type="curve" smooth="yes"/>
      <point x="168" y="731"/>
      <point x="105" y="636"/>
      <point x="105" y="507" type="curve" smooth="yes"/>
    </contour>
    <contour>
      <point x="332" y="27" type="curve" smooth="yes"/>
      <point x="271" y="27"/>
      <point x="202" y="44"/>
      <point x="148" y="112" type="curve"/>
      <point x="148" y="240"/>
      <point x="149" y="365"/>
      <point x="149" y="493" type="curve" smooth="yes"/>
      <point x="149" y="627"/>
      <point x="209" y="693"/>
      <point x="299" y="693" type="curve" smooth="yes"/>
      <point x="369" y="693"/>
      <point x="427" y="649"/>
      <point x="427" y="562" type="curve" smooth="yes"/>
      <point x="427" y="492"/>
      <point x="377" y="411"/>
      <point x="251" y="383" type="curve"/>
      <point x="260" y="345" type="line"/>
      <point x="279" y="349"/>
      <point x="298" y="351"/>
      <point x="316" y="351" type="curve" smooth="yes"/>
      <point x="433" y="351"/>
      <point x="490" y="283"/>
      <point x="490" y="191" type="curve" smooth="yes"/>
      <point x="490" y="91"/>
      <point x="419" y="27"/>
    </contour>
  </outline>
</glyph>
<glyph name="gamma" format="1">
  <advance width="600"/>
  <unicode hex="03B3"/>
  <outline>
    <contour>
      <point x="276" y="-180" type="curve"/>
      <point x="321" y="-180" type="line"/>
      <point x="321" y="-124"/>
      <point x="319" y="-55"/>
      <point x="312" y="0" type="curve"/>
      <point x="439" y="197"/>
      <point x="491" y="317"/>
      <point x="525" y="480" type="curve"/>
      <point x="479" y="480" type="line"/>
      <point x="457" y="336"/>
      <point x="389" y="194"/>
      <point x="307" y="56" type="curve"/>
      <point x="303" y="56" type="line"/>
      <point x="269" y="216"/>
      <point x="190" y="394"/>
      <point x="107" y="492" type="curve"/>
      <point x="64" y="478" type="line"/>
      <point x="171" y="356"/>
      <point x="279" y="105"/>
      <point x="279" y="-68" type="curve" smooth="yes"/>
      <point x="279" y="-113"/>
      <point x="278" y="-134"/>
    </contour>
  </outline>
</glyph>
<glyph name="delta" format="1">
  <advance width="600"/>
  <unicode hex="03B4"/>
  <outline>
    <contour>
      <point x="302" y="-12" type="curve" smooth="yes"/>
      <point x="445" y="-12"/>
      <point x="528" y="80"/>
      <point x="528" y="217" type="curve" smooth="yes"/>
      <point x="528" y="339"/>
      <point x="439" y="407"/>
      <point x="344" y="464" type="curve" smooth="yes"/>
      <point x="239" y="528"/>
      <point x="173" y="567"/>
      <point x="173" y="629" type="curve" smooth="yes"/>
      <point x="173" y="662"/>
      <point x="204" y="694"/>
      <point x="277" y="694" type="curve" smooth="yes"/>
      <point x="331" y="694"/>
      <point x="398" y="685"/>
      <point x="509" y="646" type="curve"/>
      <point x="522" y="686" type="line"/>
      <point x="416" y="721"/>
      <point x="344" y="731"/>
      <point x="279" y="731" type="curve" smooth="yes"/>
      <point x="173" y="731"/>
      <point x="127" y="682"/>
      <point x="127" y="629" type="curve" smooth="yes"/>
      <point x="127" y="550"/>
      <point x="209" y="500"/>
      <point x="316" y="434" type="curve" smooth="yes"/>
      <point x="403" y="380"/>
      <point x="482" y="319"/>
      <point x="482" y="215" type="curve" smooth="yes"/>
      <point x="482" y="109"/>
      <point x="426" y="27"/>
      <point x="303" y="27" type="curve" smooth="yes"/>
      <point x="207" y="27"/>
      <point x="117" y="99"/>
      <point x="117" y="207" type="curve" smooth="yes"/>
      <point x="117" y="316"/>
      <point x="199" y="397"/>
      <point x="340" y="427" type="curve"/>
      <point x="315" y="456" type="line"/>
      <point x="180" y="425"/>
      <point x="72" y="339"/>
      <point x="72" y="205" type="curve" smooth="yes"/>
      <point x="72" y="69"/>
      <point x="189" y="-12"/>
    </contour>
  </outline>
</glyph>
<glyph name="epsilon" format="1">
  <advance width="600"/>
  <unicode hex="03B5"/>
  <outline>
    <contour>
      <point x="315" y="-12" type="curve" smooth="yes"/>
      <point x="402" y="-12"/>
      <point x="459" y="6"/>
      <point x="528" y="60" type="curve"/>
      <point x="506" y="93" type="line"/>
      <point x="443" y="41"/>
      <point x="392" y="26"/>
      <point x="320" y="26" type="curve" smooth="yes"/>
      <point x="209" y="26"/>
      <point x="150" y="67"/>
      <point x="150" y="132" type="curve" smooth="yes"/>
      <point x="150" y="196"/>
      <point x="210" y="234"/>
      <point x="326" y="234" type="curve" smooth="yes"/>
      <point x="349" y="234"/>
      <point x="368" y="234"/>
      <point x="396" y="232" type="curve"/>
      <point x="396" y="273" type="line"/>
      <point x="371" y="271"/>
      <point x="359" y="270"/>
      <point x="340" y="270" type="curve" smooth="yes"/>
      <point x="223" y="270"/>
      <point x="175" y="311"/>
      <point x="175" y="364" type="curve" smooth="yes"/>
      <point x="175" y="425"/>
      <point x="234" y="454"/>
      <point x="320" y="454" type="curve" smooth="yes"/>
      <point x="383" y="454"/>
      <point x="435" y="436"/>
      <point x="488" y="396" type="curve"/>
      <point x="509" y="428" type="line"/>
      <point x="455" y="469"/>
      <point x="394" y="492"/>
      <point x="321" y="492" type="curve" smooth="yes"/>
      <point x="210" y="492"/>
      <point x="130" y="450"/>
      <point x="130" y="368" type="curve" smooth="yes"/>
      <point x="130" y="319"/>
      <point x="160" y="278"/>
      <point x="213" y="257" type="curve"/>
      <point x="213" y="253" type="line"/>
      <point x="157" y="237"/>
      <point x="104" y="201"/>
      <point x="104" y="130" type="curve" smooth="yes"/>
      <point x="104" y="45"/>
      <point x="179" y="-12"/>
    </contour>
    <contour>
      <point x="310" y="0" type="move" name="ogonekLC"/>
    </contour>
    <contour>
      <point x="303" y="502" type="move" name="aboveLC"/>
    </contour>
    <contour>
      <point x="301" y="-20" type="move" name="belowLC"/>
    </contour>
  </outline>
</glyph>
<glyph name="zeta" format="1">
  <advance width="600"/>
  <unicode hex="03B6"/>
  <outline>
    <contour>
      <point x="463" y="-183" type="line"/>
      <point x="502" y="-133"/>
      <point x="518" y="-93"/>
      <point x="518" y="-66" type="curve" smooth="yes"/>
      <point x="518" y="-6"/>
      <point x="464" y="10"/>
      <point x="362" y="29" type="curve" smooth="yes"/>
      <point x="261" y="47"/>
      <point x="180" y="86"/>
      <point x="180" y="220" type="curve" smooth="yes"/>
      <point x="180" y="388"/>
      <point x="364" y="580"/>
      <point x="517" y="681" type="curve"/>
      <point x="521" y="681" type="line"/>
      <point x="521" y="719" type="line"/>
      <point x="164" y="719" type="line"/>
      <point x="164" y="681" type="line"/>
      <point x="241" y="683"/>
      <point x="388" y="683"/>
      <point x="463" y="684" type="curve"/>
      <point x="325" y="592"/>
      <point x="133" y="398"/>
      <point x="133" y="219" type="curve" smooth="yes"/>
      <point x="133" y="62"/>
      <point x="224" y="13"/>
      <point x="336" y="-8" type="curve" smooth="yes"/>
      <point x="448" y="-30"/>
      <point x="476" y="-41"/>
      <point x="476" y="-73" type="curve" smooth="yes"/>
      <point x="476" y="-100"/>
      <point x="465" y="-115"/>
      <point x="427" y="-162" type="curve"/>
    </contour>
  </outline>
</glyph>
<glyph name="eta" format="1">
  <advance width="600"/>
  <unicode hex="03B7"/>
  <outline>
    <contour>
      <point x="459" y="-180" type="curve"/>
      <point x="504" y="-180" type="line"/>
      <point x="504" y="308" type="line" smooth="yes"/>
      <point x="504" y="432"/>
      <point x="460" y="492"/>
      <point x="362" y="492" type="curve" smooth="yes"/>
      <point x="278" y="492"/>
      <point x="220" y="464"/>
      <point x="159" y="379" type="curve"/>
      <point x="157" y="379" type="line"/>
      <point x="152" y="480" type="line"/>
      <point x="110" y="480" type="line"/>
      <point x="114" y="431"/>
      <point x="115" y="396"/>
      <point x="115" y="358" type="curve" smooth="yes"/>
      <point x="115" y="0" type="line"/>
      <point x="159" y="0" type="line"/>
      <point x="159" y="331" type="line"/>
      <point x="233" y="430"/>
      <point x="281" y="452"/>
      <point x="353" y="452" type="curve" smooth="yes"/>
      <point x="430" y="452"/>
      <point x="462" y="404"/>
      <point x="462" y="302" type="curve" smooth="yes"/>
      <point x="462" y="147"/>
      <point x="462" y="-19"/>
    </contour>
    <contour>
      <point x="302" y="502" type="move" name="aboveLC"/>
    </contour>
    <contour>
      <point x="284" y="-20" type="move" name="belowLC"/>
    </contour>
  </outline>
</glyph>
<glyph name="theta" format="1">
  <advance width="600"/>
  <unicode hex="03B8"/>
  <outline>
    <contour>
      <point x="300" y="-12" type="curve" smooth="yes"/>
      <point x="438" y="-12"/>
      <point x="518" y="99"/>
      <point x="518" y="363" type="curve" smooth="yes"/>
      <point x="518" y="598"/>
      <point x="438" y="731"/>
      <point x="300" y="731" type="curve" smooth="yes"/>
      <point x="162" y="731"/>
      <point x="82" y="598"/>
      <point x="82" y="363" type="curve" smooth="yes"/>
      <point x="82" y="99"/>
      <point x="162" y="-12"/>
    </contour>
    <contour>
      <point x="300" y="27" type="curve" smooth="yes"/>
      <point x="199" y="27"/>
      <point x="128" y="119"/>
      <point x="128" y="363" type="curve" smooth="yes"/>
      <point x="128" y="582"/>
      <point x="199" y="692"/>
      <point x="300" y="692" type="curve" smooth="yes"/>
      <point x="401" y="692"/>
      <point x="472" y="582"/>
      <point x="472" y="363" type="curve" smooth="yes"/>
      <point x="472" y="119"/>
      <point x="401" y="27"/>
    </contour>
    <contour>
      <point x="108" y="346" type="line"/>
      <point x="492" y="346" type="line"/>
      <point x="492" y="383" type="line"/>
      <point x="108" y="383" type="line"/>
    </contour>
  </outline>
</glyph>
<glyph name="iota" format="1">
  <advance width="600"/>
  <unicode hex="03B9"/>
  <outline>
    <contour>
      <point x="359" y="-12" type="curve" smooth="yes"/>
      <point x="395" y="-12"/>
      <point x="421" y="-3"/>
      <point x="442" y="7" type="curve"/>
      <point x="430" y="43" type="line"/>
      <point x="410" y="33"/>
      <point x="385" y="27"/>
      <point x="365" y="27" type="curve" smooth="yes"/>
      <point x="329" y="27"/>
      <point x="304" y="49"/>
      <point x="304" y="94" type="curve" smooth="yes"/>
      <point x="304" y="221"/>
      <point x="306" y="350"/>
      <point x="307" y="480" type="curve"/>
      <point x="263" y="480" type="line"/>
      <point x="263" y="100" type="line" smooth="yes"/>
      <point x="263" y="23"/>
      <point x="295" y="-12"/>
    </contour>
    <contour>
      <point x="276" y="502" type="move" name="aboveLC"/>
    </contour>
    <contour>
      <point x="349" y="-20" type="move" name="belowLC"/>
    </contour>
  </outline>
</glyph>
<glyph name="kappa" format="1">
  <advance width="600"/>
  <unicode hex="03BA"/>
  <outline>
    <contour>
      <point x="125" y="0" type="line"/>
      <point x="166" y="0" type="line"/>
      <point x="166" y="23" type="line" smooth="yes"/>
      <point x="166" y="79"/>
      <point x="177" y="129"/>
      <point x="202" y="169" type="curve" smooth="yes"/>
      <point x="286" y="308"/>
      <point x="429" y="414"/>
      <point x="545" y="449" type="curve"/>
      <point x="538" y="492" type="line"/>
      <point x="413" y="453"/>
      <point x="256" y="337"/>
      <point x="172" y="185" type="curve"/>
      <point x="168" y="185" type="line"/>
      <point x="168" y="372" type="line" smooth="yes"/>
      <point x="168" y="413"/>
      <point x="166" y="457"/>
      <point x="160" y="480" type="curve"/>
      <point x="116" y="480" type="line"/>
      <point x="124" y="442"/>
      <point x="125" y="396"/>
      <point x="125" y="358" type="curve" smooth="yes"/>
    </contour>
    <contour>
      <point x="522" y="-7" type="curve"/>
      <point x="572" y="0" type="line"/>
      <point x="481" y="98"/>
      <point x="373" y="223"/>
      <point x="320" y="330" type="curve"/>
      <point x="287" y="303" type="line"/>
      <point x="341" y="199"/>
      <point x="448" y="75"/>
    </contour>
  </outline>
</glyph>
<glyph name="lambda" format="1">
  <advance width="600"/>
  <unicode hex="03BB"/>
  <outline>
    <contour>
      <point x="117" y="-7" type="line"/>
      <point x="316" y="443" type="line"/>
      <point x="320" y="443" type="line"/>
      <point x="492" y="0" type="line"/>
      <point x="539" y="0" type="line"/>
      <point x="331" y="527" type="line"/>
      <point x="277" y="665"/>
      <point x="240" y="731"/>
      <point x="146" y="731" type="curve" smooth="yes"/>
      <point x="112" y="731"/>
      <point x="88" y="723"/>
      <point x="70" y="715" type="curve"/>
      <point x="84" y="676" type="line"/>
      <point x="99" y="684"/>
      <point x="117" y="692"/>
      <point x="142" y="692" type="curve" smooth="yes"/>
      <point x="212" y="692"/>
      <point x="244" y="642"/>
      <point x="287" y="524" type="curve" smooth="yes"/>
      <point x="298" y="496" type="line"/>
      <point x="69" y="0" type="line"/>
    </contour>
  </outline>
</glyph>
<glyph name="nu" format="1">
  <advance width="600"/>
  <unicode hex="03BD"/>
  <outline>
    <contour>
      <point x="277" y="0" type="curve"/>
      <point x="324" y="0" type="line"/>
      <point x="426" y="165"/>
      <point x="505" y="315"/>
      <point x="529" y="480" type="curve"/>
      <point x="483" y="480" type="line"/>
      <point x="470" y="340"/>
      <point x="385" y="178"/>
      <point x="310" y="46" type="curve"/>
      <point x="306" y="46" type="line"/>
      <point x="274" y="211"/>
      <point x="188" y="379"/>
      <point x="103" y="492" type="curve"/>
      <point x="60" y="478" type="line"/>
      <point x="154" y="352"/>
      <point x="237" y="193"/>
    </contour>
  </outline>
</glyph>
<glyph name="xi" format="1">
  <advance width="600"/>
  <unicode hex="03BE"/>
  <outline>
    <contour>
      <point x="467" y="-183" type="line"/>
      <point x="506" y="-132"/>
      <point x="522" y="-93"/>
      <point x="522" y="-66" type="curve" smooth="yes"/>
      <point x="522" y="-6"/>
      <point x="470" y="10"/>
      <point x="366" y="29" type="curve" smooth="yes"/>
      <point x="266" y="47"/>
      <point x="174" y="77"/>
      <point x="174" y="189" type="curve" smooth="yes"/>
      <point x="174" y="303"/>
      <point x="279" y="366"/>
      <point x="377" y="366" type="curve" smooth="yes"/>
      <point x="406" y="366"/>
      <point x="424" y="366"/>
      <point x="451" y="361" type="curve"/>
      <point x="451" y="406" type="line"/>
      <point x="422" y="401"/>
      <point x="409" y="401"/>
      <point x="380" y="401" type="curve" smooth="yes"/>
      <point x="313" y="401"/>
      <point x="223" y="457"/>
      <point x="223" y="542" type="curve" smooth="yes"/>
      <point x="223" y="631"/>
      <point x="298" y="681"/>
      <point x="375" y="681" type="curve" smooth="yes"/>
      <point x="521" y="681" type="line"/>
      <point x="521" y="719" type="line"/>
      <point x="111" y="719" type="line"/>
      <point x="111" y="681" type="line"/>
      <point x="178" y="683"/>
      <point x="208" y="684"/>
      <point x="274" y="684" type="curve"/>
      <point x="214" y="656"/>
      <point x="177" y="610"/>
      <point x="177" y="542" type="curve" smooth="yes"/>
      <point x="177" y="466"/>
      <point x="230" y="419"/>
      <point x="295" y="391" type="curve"/>
      <point x="295" y="387" type="line"/>
      <point x="206" y="363"/>
      <point x="128" y="288"/>
      <point x="128" y="186" type="curve" smooth="yes"/>
      <point x="128" y="56"/>
      <point x="226" y="14"/>
      <point x="339" y="-8" type="curve" smooth="yes"/>
      <point x="452" y="-29"/>
      <point x="480" y="-41"/>
      <point x="480" y="-73" type="curve" smooth="yes"/>
      <point x="480" y="-100"/>
      <point x="469" y="-115"/>
      <point x="430" y="-162" type="curve"/>
    </contour>
  </outline>
</glyph>
<glyph name="omicron" format="1">
  <advance width="600"/>
  <unicode hex="03BF"/>
  <outline>
    <contour>
      <point x="300" y="-12" type="curve" smooth="yes"/>
      <point x="430" y="-12"/>
      <point x="529" y="79"/>
      <point x="529" y="239" type="curve" smooth="yes"/>
      <point x="529" y="402"/>
      <point x="430" y="492"/>
      <point x="300" y="492" type="curve" smooth="yes"/>
      <point x="170" y="492"/>
      <point x="71" y="402"/>
      <point x="71" y="239" type="curve" smooth="yes"/>
      <point x="71" y="79"/>
      <point x="170" y="-12"/>
    </contour>
    <contour>
      <point x="300" y="27" type="curve" smooth="yes"/>
      <point x="188" y="27"/>
      <point x="117" y="111"/>
      <point x="117" y="239" type="curve" smooth="yes"/>
      <point x="117" y="367"/>
      <point x="188" y="453"/>
      <point x="300" y="453" type="curve" smooth="yes"/>
      <point x="412" y="453"/>
      <point x="483" y="367"/>
      <point x="483" y="239" type="curve" smooth="yes"/>
      <point x="483" y="111"/>
      <point x="412" y="27"/>
    </contour>
  </outline>
</glyph>
<glyph name="tau" format="1">
  <advance width="600"/>
  <unicode hex="03C4"/>
  <outline>
    <contour>
      <point x="371" y="-12" type="curve" smooth="yes"/>
      <point x="399" y="-12"/>
      <point x="427" y="-7"/>
      <point x="442" y="-1" type="curve"/>
      <point x="435" y="36" type="line"/>
      <point x="417" y="30"/>
      <point x="397" y="27"/>
      <point x="377" y="27" type="curve" smooth="yes"/>
      <point x="337" y="27"/>
      <point x="319" y="48"/>
      <point x="319" y="95" type="curve" smooth="yes"/>
      <point x="319" y="209"/>
      <point x="320" y="325"/>
      <point x="322" y="442" type="curve"/>
      <point x="525" y="442" type="line"/>
      <point x="525" y="480" type="line"/>
      <point x="143" y="480" type="line"/>
      <point x="76" y="476" type="line"/>
      <point x="76" y="442" type="line"/>
      <point x="278" y="442" type="line"/>
      <point x="278" y="101" type="line" smooth="yes"/>
      <point x="278" y="23"/>
      <point x="302" y="-12"/>
    </contour>
  </outline>
</glyph>
<glyph name="upsilon" format="1">
  <advance width="600"/>
  <unicode hex="03C5"/>
  <outline>
    <contour>
      <point x="294" y="-12" type="curve" smooth="yes"/>
      <point x="418" y="-12"/>
      <point x="520" y="77"/>
      <point x="520" y="252" type="curve" smooth="yes"/>
      <point x="520" y="333"/>
      <point x="504" y="411"/>
      <point x="474" y="492" type="curve"/>
      <point x="430" y="480" type="line"/>
      <point x="463" y="397"/>
      <point x="474" y="325"/>
      <point x="474" y="252" type="curve" smooth="yes"/>
      <point x="474" y="98"/>
      <point x="395" y="27"/>
      <point x="296" y="27" type="curve" smooth="yes"/>
      <point x="210" y="27"/>
      <point x="132" y="67"/>
      <point x="132" y="188" type="curve" smooth="yes"/>
      <point x="132" y="240"/>
      <point x="138" y="315"/>
      <point x="138" y="372" type="curve" smooth="yes"/>
      <point x="138" y="413"/>
      <point x="138" y="446"/>
      <point x="132" y="480" type="curve"/>
      <point x="88" y="480" type="line"/>
      <point x="95" y="431"/>
      <point x="95" y="396"/>
      <point x="95" y="358" type="curve" smooth="yes"/>
      <point x="95" y="302"/>
      <point x="91" y="245"/>
      <point x="91" y="188" type="curve" smooth="yes"/>
      <point x="91" y="44"/>
      <point x="178" y="-12"/>
    </contour>
    <contour>
      <point x="299" y="502" type="move" name="aboveLC"/>
    </contour>
  </outline>
</glyph>
<glyph name="phi" format="1">
  <advance width="600"/>
  <unicode hex="03C6"/>
  <outline>
    <contour>
      <point x="286" y="-10" type="curve"/>
      <point x="286" y="27" type="line"/>
      <point x="178" y="27"/>
      <point x="100" y="110"/>
      <point x="100" y="241" type="curve" smooth="yes"/>
      <point x="100" y="372"/>
      <point x="178" y="453"/>
      <point x="286" y="453" type="curve"/>
      <point x="286" y="490" type="line"/>
      <point x="159" y="490"/>
      <point x="54" y="402"/>
      <point x="54" y="241" type="curve" smooth="yes"/>
      <point x="54" y="80"/>
      <point x="159" y="-10"/>
    </contour>
    <contour>
      <point x="314" y="-10" type="line"/>
      <point x="441" y="-10"/>
      <point x="546" y="80"/>
      <point x="546" y="241" type="curve" smooth="yes"/>
      <point x="546" y="402"/>
      <point x="441" y="490"/>
      <point x="314" y="490" type="curve"/>
      <point x="314" y="453" type="line"/>
      <point x="422" y="453"/>
      <point x="500" y="372"/>
      <point x="500" y="241" type="curve" smooth="yes"/>
      <point x="500" y="110"/>
      <point x="422" y="27"/>
      <point x="314" y="27" type="curve"/>
    </contour>
    <contour>
      <point x="278" y="-180" type="line"/>
      <point x="322" y="-180" type="line"/>
      <point x="322" y="619" type="line"/>
      <point x="278" y="619" type="line"/>
    </contour>
  </outline>
</glyph>
<glyph name="chi" format="1">
  <advance width="600"/>
  <unicode hex="03C7"/>
  <outline>
    <contour>
      <point x="108" y="-192" type="line"/>
      <point x="299" y="124" type="line"/>
      <point x="303" y="124" type="line"/>
      <point x="506" y="-192" type="line"/>
      <point x="548" y="-177" type="line"/>
      <point x="324" y="161" type="line"/>
      <point x="515" y="480" type="line"/>
      <point x="467" y="480" type="line"/>
      <point x="303" y="203" type="line"/>
      <point x="299" y="203" type="line"/>
      <point x="114" y="492" type="line"/>
      <point x="70" y="478" type="line"/>
      <point x="278" y="162" type="line"/>
      <point x="65" y="-180" type="line"/>
    </contour>
  </outline>
</glyph>
<glyph name="psi" format="1">
  <advance width="600"/>
  <unicode hex="03C8"/>
  <outline>
    <contour>
      <point x="282" y="-12" type="curve"/>
      <point x="283" y="27" type="line"/>
      <point x="176" y="27"/>
      <point x="117" y="94"/>
      <point x="117" y="212" type="curve" smooth="yes"/>
      <point x="117" y="240"/>
      <point x="119" y="310"/>
      <point x="119" y="372" type="curve" smooth="yes"/>
      <point x="119" y="413"/>
      <point x="118" y="446"/>
      <point x="114" y="480" type="curve"/>
      <point x="70" y="480" type="line"/>
      <point x="75" y="431"/>
      <point x="75" y="396"/>
      <point x="75" y="358" type="curve" smooth="yes"/>
      <point x="75" y="212" type="line" smooth="yes"/>
      <point x="75" y="71"/>
      <point x="149" y="-12"/>
    </contour>
    <contour>
      <point x="306" y="-12" type="line"/>
      <point x="446" y="-12"/>
      <point x="536" y="84"/>
      <point x="536" y="255" type="curve" smooth="yes"/>
      <point x="536" y="344"/>
      <point x="522" y="406"/>
      <point x="489" y="492" type="curve"/>
      <point x="446" y="480" type="line"/>
      <point x="481" y="392"/>
      <point x="491" y="335"/>
      <point x="491" y="255" type="curve" smooth="yes"/>
      <point x="491" y="105"/>
      <point x="423" y="27"/>
      <point x="308" y="27" type="curve"/>
    </contour>
    <contour>
      <point x="279" y="-180" type="line"/>
      <point x="322" y="-180" type="line"/>
      <point x="322" y="619" type="line"/>
      <point x="279" y="619" type="line"/>
    </contour>
  </outline>
</glyph>
<glyph name="omega" format="1">
  <advance width="600"/>
  <unicode hex="03C9"/>
  <outline>
    <contour>
      <point x="187" y="-12" type="curve" smooth="yes"/>
      <point x="235" y="-12"/>
      <point x="276" y="16"/>
      <point x="298" y="71" type="curve"/>
      <point x="302" y="71" type="line"/>
      <point x="324" y="16"/>
      <point x="366" y="-12"/>
      <point x="413" y="-12" type="curve" smooth="yes"/>
      <point x="497" y="-12"/>
      <point x="557" y="59"/>
      <point x="557" y="217" type="curve" smooth="yes"/>
      <point x="557" y="337"/>
      <point x="520" y="412"/>
      <point x="464" y="492" type="curve"/>
      <point x="425" y="472" type="line"/>
      <point x="483" y="388"/>
      <point x="511" y="326"/>
      <point x="511" y="216" type="curve" smooth="yes"/>
      <point x="511" y="85"/>
      <point x="469" y="27"/>
      <point x="409" y="27" type="curve" smooth="yes"/>
      <point x="365" y="27"/>
      <point x="319" y="58"/>
      <point x="319" y="165" type="curve" smooth="yes"/>
      <point x="319" y="202"/>
      <point x="320" y="246"/>
      <point x="324" y="295" type="curve"/>
      <point x="273" y="295" type="line"/>
      <point x="278" y="246"/>
      <point x="279" y="202"/>
      <point x="279" y="165" type="curve" smooth="yes"/>
      <point x="279" y="59"/>
      <point x="234" y="27"/>
      <point x="190" y="27" type="curve" smooth="yes"/>
      <point x="134" y="27"/>
      <point x="86" y="89"/>
      <point x="86" y="208" type="curve" smooth="yes"/>
      <point x="86" y="322"/>
      <point x="119" y="391"/>
      <point x="177" y="470" type="curve"/>
      <point x="140" y="492" type="line"/>
      <point x="86" y="414"/>
      <point x="43" y="331"/>
      <point x="43" y="215" type="curve" smooth="yes"/>
      <point x="43" y="61"/>
      <point x="109" y="-12"/>
    </contour>
    <contour>
      <point x="300" y="502" type="move" name="aboveLC"/>
    </contour>
    <contour>
      <point x="300" y="-20" type="move" name="belowLC"/>
    </contour>
  </outline>
</glyph>
<glyph name="beta.a" format="1">
  <advance width="600"/>
  <unicode hex="03D0"/>
  <outline>
    <contour>
      <point x="330" y="-12" type="curve" smooth="yes"/>
      <point x="446" y="-12"/>
      <point x="535" y="70"/>
      <point x="535" y="184" type="curve" smooth="yes"/>
      <point x="535" y="295"/>
      <point x="468" y="373"/>
      <point x="344" y="383" type="curve"/>
      <point x="344" y="387" type="line"/>
      <point x="426" y="429"/>
      <point x="473" y="489"/>
      <point x="473" y="564" type="curve" smooth="yes"/>
      <point x="473" y="676"/>
      <point x="387" y="731"/>
      <point x="299" y="731" type="curve" smooth="yes"/>
      <point x="168" y="731"/>
      <point x="105" y="637"/>
      <point x="105" y="507" type="curve" smooth="yes"/>
      <point x="105" y="215" type="line" smooth="yes"/>
      <point x="105" y="44"/>
      <point x="233" y="-12"/>
    </contour>
    <contour>
      <point x="329" y="28" type="curve" smooth="yes"/>
      <point x="268" y="28"/>
      <point x="148" y="62"/>
      <point x="148" y="228" type="curve" smooth="yes"/>
      <point x="148" y="319"/>
      <point x="149" y="368"/>
      <point x="149" y="493" type="curve" smooth="yes"/>
      <point x="149" y="629"/>
      <point x="208" y="693"/>
      <point x="301" y="693" type="curve" smooth="yes"/>
      <point x="369" y="693"/>
      <point x="427" y="649"/>
      <point x="427" y="562" type="curve" smooth="yes"/>
      <point x="427" y="461"/>
      <point x="341" y="391"/>
      <point x="130" y="359" type="curve"/>
      <point x="139" y="322" type="line"/>
      <point x="242" y="348"/>
      <point x="297" y="351"/>
      <point x="317" y="351" type="curve" smooth="yes"/>
      <point x="435" y="351"/>
      <point x="490" y="280"/>
      <point x="490" y="185" type="curve" smooth="yes"/>
      <point x="490" y="97"/>
      <point x="424" y="28"/>
    </contour>
  </outline>
</glyph>
<glyph name="theta.a" format="1">
  <advance width="600"/>
  <unicode hex="03D1"/>
  <outline>
    <contour>
      <point x="296" y="-12" type="curve" smooth="yes"/>
      <point x="419" y="-12"/>
      <point x="518" y="70"/>
      <point x="518" y="366" type="curve" smooth="yes"/>
      <point x="518" y="609"/>
      <point x="439" y="731"/>
      <point x="279" y="731" type="curve" smooth="yes"/>
      <point x="178" y="731"/>
      <point x="92" y="665"/>
      <point x="92" y="556" type="curve" smooth="yes"/>
      <point x="92" y="443"/>
      <point x="188" y="308"/>
      <point x="482" y="355" type="curve"/>
      <point x="488" y="392" type="line"/>
      <point x="212" y="344"/>
      <point x="138" y="457"/>
      <point x="138" y="557" type="curve" smooth="yes"/>
      <point x="138" y="643"/>
      <point x="201" y="692"/>
      <point x="280" y="692" type="curve" smooth="yes"/>
      <point x="401" y="693"/>
      <point x="472" y="599"/>
      <point x="472" y="366" type="curve" smooth="yes"/>
      <point x="472" y="98"/>
      <point x="396" y="27"/>
      <point x="299" y="27" type="curve" smooth="yes"/>
      <point x="224" y="27"/>
      <point x="153" y="67"/>
      <point x="153" y="188" type="curve" smooth="yes"/>
      <point x="153" y="243"/>
      <point x="154" y="273"/>
      <point x="147" y="296" type="curve"/>
      <point x="105" y="296" type="line"/>
      <point x="111" y="264"/>
      <point x="112" y="240"/>
      <point x="112" y="184" type="curve" smooth="yes"/>
      <point x="112" y="43"/>
      <point x="192" y="-12"/>
    </contour>
  </outline>
</glyph>
<glyph name="phi.a" format="1">
	<unicode hex="03D5"/>
	<advance width="600"/>
	<outline>
		<contour>
			<point x="279" y="-180" type="line"/>
			<point x="322" y="-180" type="line"/>
			<point x="320" y="-17"/>
			<point x="319" y="147"/>
			<point x="319" y="310" type="curve" smooth="yes"/>
			<point x="319" y="416"/>
			<point x="356" y="453"/>
			<point x="404" y="453" type="curve" smooth="yes"/>
			<point x="466" y="453"/>
			<point x="509" y="366"/>
			<point x="509" y="247" type="curve" smooth="yes"/>
			<point x="509" y="116"/>
			<point x="424" y="27"/>
			<point x="314" y="26" type="curve"/>
			<point x="313" y="-10" type="line"/>
			<point x="441" y="-10"/>
			<point x="555" y="85"/>
			<point x="555" y="248" type="curve" smooth="yes"/>
			<point x="555" y="397"/>
			<point x="501" y="492"/>
			<point x="406" y="492" type="curve" smooth="yes"/>
			<point x="332" y="492"/>
			<point x="279" y="438"/>
			<point x="279" y="319" type="curve" smooth="yes"/>
		</contour>
		<contour>
			<point x="287" y="-10" type="curve"/>
			<point x="288" y="26" type="line"/>
			<point x="184" y="26"/>
			<point x="89" y="95"/>
			<point x="89" y="228" type="curve" smooth="yes"/>
			<point x="89" y="333"/>
			<point x="125" y="395"/>
			<point x="189" y="467" type="curve"/>
			<point x="154" y="493" type="line"/>
			<point x="92" y="421"/>
			<point x="45" y="342"/>
			<point x="45" y="234" type="curve" smooth="yes"/>
			<point x="45" y="66"/>
			<point x="164" y="-10"/>
		</contour>
	</outline>
</glyph>
<glyph name="kai" format="1">
  <advance width="600"/>
  <unicode hex="03D7"/>
  <outline>
    <contour>
      <point x="433" y="-186" type="line"/>
      <point x="477" y="-136"/>
      <point x="528" y="-70"/>
      <point x="572" y="0" type="curve"/>
      <point x="527" y="1" type="line"/>
      <point x="487" y="-59"/>
      <point x="438" y="-123"/>
      <point x="382" y="-180" type="curve"/>
    </contour>
    <component base="kappa"/>
  </outline>
</glyph>
<glyph name="Dje" format="1">
  <advance width="600"/>
  <unicode hex="0402"/>
  <outline>
    <contour>
      <point x="409" y="-12" type="curve" smooth="yes"/>
      <point x="488" y="-12"/>
      <point x="579" y="36"/>
      <point x="579" y="192" type="curve" smooth="yes"/>
      <point x="579" y="336"/>
      <point x="489" y="397"/>
      <point x="351" y="397" type="curve" smooth="yes"/>
      <point x="309" y="397"/>
      <point x="261" y="392"/>
      <point x="229" y="386" type="curve"/>
      <point x="229" y="619" type="line"/>
      <point x="466" y="619" type="line"/>
      <point x="466" y="659" type="line"/>
      <point x="-4" y="659" type="line"/>
      <point x="-4" y="619" type="line"/>
      <point x="183" y="619" type="line"/>
      <point x="183" y="0" type="line"/>
      <point x="229" y="0" type="line"/>
      <point x="229" y="345" type="line"/>
      <point x="259" y="351"/>
      <point x="306" y="357"/>
      <point x="347" y="357" type="curve" smooth="yes"/>
      <point x="463" y="357"/>
      <point x="532" y="307"/>
      <point x="532" y="192" type="curve" smooth="yes"/>
      <point x="532" y="67"/>
      <point x="461" y="29"/>
      <point x="404" y="29" type="curve" smooth="yes"/>
      <point x="389" y="29"/>
      <point x="367" y="34"/>
      <point x="358" y="38" type="curve"/>
      <point x="348" y="-2" type="line"/>
      <point x="361" y="-6"/>
      <point x="388" y="-12"/>
    </contour>
  </outline>
</glyph>
<glyph name="Nje" format="1">
  <advance width="600"/>
  <unicode hex="040A"/>
  <outline>
    <contour>
      <point x="44" y="0" type="line"/>
      <point x="88" y="0" type="line"/>
      <point x="88" y="330" type="line"/>
      <point x="283" y="330" type="line"/>
      <point x="283" y="370" type="line"/>
      <point x="88" y="370" type="line"/>
      <point x="88" y="659" type="line"/>
      <point x="44" y="659" type="line"/>
    </contour>
    <contour>
      <point x="279" y="0" type="line"/>
      <point x="372" y="0" type="line" smooth="yes"/>
      <point x="498" y="0"/>
      <point x="568" y="65"/>
      <point x="568" y="195" type="curve" smooth="yes"/>
      <point x="568" y="319"/>
      <point x="490" y="372"/>
      <point x="369" y="372" type="curve" smooth="yes"/>
      <point x="323" y="372" type="line"/>
      <point x="323" y="659" type="line"/>
      <point x="279" y="659" type="line"/>
    </contour>
    <contour>
      <point x="323" y="39" type="line"/>
      <point x="323" y="333" type="line"/>
      <point x="358" y="333" type="line" smooth="yes"/>
      <point x="469" y="333"/>
      <point x="524" y="292"/>
      <point x="524" y="193" type="curve" smooth="yes"/>
      <point x="524" y="85"/>
      <point x="471" y="39"/>
      <point x="362" y="39" type="curve" smooth="yes"/>
    </contour>
  </outline>
</glyph>
<glyph name="De" format="1">
  <advance width="600"/>
  <unicode hex="0414"/>
  <outline>
    <contour>
      <point x="35" y="-188" type="line"/>
      <point x="73" y="-188" type="line"/>
      <point x="73" y="0" type="line"/>
      <point x="527" y="0" type="line"/>
      <point x="527" y="-188" type="line"/>
      <point x="565" y="-188" type="line"/>
      <point x="572" y="14" type="line"/>
      <point x="572" y="40" type="line"/>
      <point x="28" y="40" type="line"/>
      <point x="28" y="14" type="line"/>
    </contour>
    <contour>
      <point x="457" y="0" type="line"/>
      <point x="503" y="0" type="line"/>
      <point x="503" y="659" type="line"/>
      <point x="208" y="659" type="line"/>
      <point x="185" y="509"/>
      <point x="171" y="421"/>
      <point x="146" y="281" type="curve" smooth="yes"/>
      <point x="113" y="99"/>
      <point x="84" y="51"/>
      <point x="58" y="40" type="curve"/>
      <point x="83" y="16" type="line"/>
      <point x="119" y="31"/>
      <point x="153" y="76"/>
      <point x="188" y="272" type="curve" smooth="yes"/>
      <point x="212" y="401"/>
      <point x="222" y="488"/>
      <point x="245" y="619" type="curve"/>
      <point x="457" y="619" type="line"/>
    </contour>
  </outline>
</glyph>
<glyph name="Ie" format="1">
  <advance width="600"/>
  <unicode hex="0415"/>
  <outline>
    <component base="E"/>
    <contour>
      <point x="336" y="679" type="move" name="aboveUC"/>
    </contour>
  </outline>
</glyph>
<glyph name="Zhe" format="1">
  <advance width="600"/>
  <unicode hex="0416"/>
  <outline>
    <contour>
      <point x="3" y="0" type="line"/>
      <point x="56" y="0" type="line"/>
      <point x="192" y="330" type="line"/>
      <point x="279" y="330" type="line"/>
      <point x="279" y="0" type="line"/>
      <point x="321" y="0" type="line"/>
      <point x="321" y="330" type="line"/>
      <point x="408" y="330" type="line"/>
      <point x="544" y="0" type="line"/>
      <point x="597" y="0" type="line"/>
      <point x="436" y="370" type="line"/>
      <point x="321" y="370" type="line"/>
      <point x="321" y="659" type="line"/>
      <point x="279" y="659" type="line"/>
      <point x="279" y="370" type="line"/>
      <point x="164" y="370" type="line"/>
    </contour>
    <contour>
      <point x="159" y="347" type="line"/>
      <point x="201" y="355" type="line"/>
      <point x="142" y="547" type="line" smooth="yes"/>
      <point x="107" y="657"/>
      <point x="71" y="671"/>
      <point x="27" y="671" type="curve" smooth="yes"/>
      <point x="18" y="671"/>
      <point x="7" y="669"/>
      <point x="0" y="667" type="curve"/>
      <point x="8" y="620" type="line"/>
      <point x="14" y="622"/>
      <point x="22" y="624"/>
      <point x="28" y="624" type="curve" smooth="yes"/>
      <point x="51" y="624"/>
      <point x="76" y="618"/>
      <point x="104" y="529" type="curve" smooth="yes"/>
    </contour>
    <contour>
      <point x="441" y="347" type="line"/>
      <point x="496" y="529" type="line" smooth="yes"/>
      <point x="524" y="618"/>
      <point x="549" y="624"/>
      <point x="572" y="624" type="curve" smooth="yes"/>
      <point x="578" y="624"/>
      <point x="586" y="622"/>
      <point x="592" y="620" type="curve"/>
      <point x="600" y="667" type="line"/>
      <point x="593" y="669"/>
      <point x="581" y="671"/>
      <point x="572" y="671" type="curve" smooth="yes"/>
      <point x="528" y="671"/>
      <point x="492" y="657"/>
      <point x="458" y="547" type="curve" smooth="yes"/>
      <point x="399" y="355" type="line"/>
    </contour>
    <contour>
      <point x="300" y="679" type="move" name="aboveUC"/>
    </contour>
  </outline>
</glyph>
<glyph name="Ka" format="1">
  <advance width="600"/>
  <unicode hex="041A"/>
  <outline>
    <contour>
      <point x="121" y="0" type="line"/>
      <point x="167" y="0" type="line"/>
      <point x="167" y="330" type="line"/>
      <point x="302" y="330" type="line"/>
      <point x="519" y="0" type="line"/>
      <point x="571" y="0" type="line"/>
      <point x="329" y="370" type="line"/>
      <point x="167" y="370" type="line"/>
      <point x="167" y="659" type="line"/>
      <point x="121" y="659" type="line"/>
    </contour>
    <contour>
      <point x="338" y="348" type="line"/>
      <point x="434" y="528" type="line" smooth="yes"/>
      <point x="481" y="614"/>
      <point x="499" y="624"/>
      <point x="527" y="624" type="curve" smooth="yes"/>
      <point x="533" y="624"/>
      <point x="542" y="623"/>
      <point x="548" y="620" type="curve"/>
      <point x="557" y="666" type="line"/>
      <point x="550" y="669"/>
      <point x="540" y="671"/>
      <point x="531" y="671" type="curve" smooth="yes"/>
      <point x="481" y="671"/>
      <point x="454" y="652"/>
      <point x="397" y="546" type="curve" smooth="yes"/>
      <point x="296" y="357" type="line"/>
    </contour>
    <contour>
      <point x="312" y="679" type="move" name="aboveUC"/>
    </contour>
  </outline>
</glyph>
<glyph name="Ef" format="1">
  <advance width="600"/>
  <unicode hex="0424"/>
  <outline>
    <contour>
      <point x="289" y="86" type="curve"/>
      <point x="311" y="86" type="line" smooth="yes"/>
      <point x="474" y="86"/>
      <point x="567" y="179"/>
      <point x="567" y="332" type="curve" smooth="yes"/>
      <point x="567" y="484"/>
      <point x="474" y="573"/>
      <point x="311" y="573" type="curve" smooth="yes"/>
      <point x="289" y="573" type="line" smooth="yes"/>
      <point x="126" y="573"/>
      <point x="33" y="484"/>
      <point x="33" y="332" type="curve" smooth="yes"/>
      <point x="33" y="179"/>
      <point x="126" y="86"/>
    </contour>
    <contour>
      <point x="287" y="124" type="line" smooth="yes"/>
      <point x="150" y="124"/>
      <point x="80" y="206"/>
      <point x="80" y="332" type="curve" smooth="yes"/>
      <point x="80" y="458"/>
      <point x="150" y="535"/>
      <point x="287" y="535" type="curve" smooth="yes"/>
      <point x="313" y="535" type="line" smooth="yes"/>
      <point x="450" y="535"/>
      <point x="520" y="458"/>
      <point x="520" y="332" type="curve" smooth="yes"/>
      <point x="520" y="206"/>
      <point x="450" y="124"/>
      <point x="313" y="124" type="curve" smooth="yes"/>
    </contour>
    <contour>
      <point x="279" y="-12" type="line"/>
      <point x="321" y="-12" type="line"/>
      <point x="321" y="671" type="line"/>
      <point x="279" y="671" type="line"/>
    </contour>
  </outline>
</glyph>
<glyph name="Hard" format="1">
  <advance width="600"/>
  <unicode hex="042A"/>
  <outline>
    <contour>
      <point x="222" y="0" type="line"/>
      <point x="348" y="0" type="line" smooth="yes"/>
      <point x="493" y="0"/>
      <point x="575" y="65"/>
      <point x="575" y="195" type="curve" smooth="yes"/>
      <point x="575" y="317"/>
      <point x="480" y="372"/>
      <point x="340" y="372" type="curve" smooth="yes"/>
      <point x="268" y="372" type="line"/>
      <point x="268" y="659" type="line"/>
      <point x="15" y="659" type="line"/>
      <point x="15" y="619" type="line"/>
      <point x="222" y="619" type="line"/>
    </contour>
    <contour>
      <point x="268" y="39" type="line"/>
      <point x="268" y="333" type="line"/>
      <point x="328" y="333" type="line" smooth="yes"/>
      <point x="459" y="333"/>
      <point x="530" y="288"/>
      <point x="530" y="193" type="curve" smooth="yes"/>
      <point x="530" y="86"/>
      <point x="465" y="39"/>
      <point x="336" y="39" type="curve" smooth="yes"/>
    </contour>
  </outline>
</glyph>
<glyph name="ze" format="1">
  <advance width="600"/>
  <unicode hex="0437"/>
  <outline>
    <contour>
      <point x="281" y="-12" type="curve" smooth="yes"/>
      <point x="414" y="-12"/>
      <point x="498" y="42"/>
      <point x="498" y="130" type="curve" smooth="yes"/>
      <point x="498" y="201"/>
      <point x="446" y="237"/>
      <point x="385" y="253" type="curve"/>
      <point x="385" y="257" type="line"/>
      <point x="437" y="280"/>
      <point x="471" y="315"/>
      <point x="471" y="368" type="curve" smooth="yes"/>
      <point x="471" y="450"/>
      <point x="390" y="492"/>
      <point x="280" y="492" type="curve" smooth="yes"/>
      <point x="193" y="492"/>
      <point x="134" y="465"/>
      <point x="84" y="426" type="curve"/>
      <point x="107" y="395" type="line"/>
      <point x="156" y="432"/>
      <point x="201" y="454"/>
      <point x="278" y="454" type="curve" smooth="yes"/>
      <point x="369" y="454"/>
      <point x="425" y="425"/>
      <point x="425" y="364" type="curve" smooth="yes"/>
      <point x="425" y="307"/>
      <point x="369" y="271"/>
      <point x="254" y="271" type="curve" smooth="yes"/>
      <point x="204" y="271" type="line"/>
      <point x="204" y="233" type="line"/>
      <point x="267" y="233" type="line" smooth="yes"/>
      <point x="385" y="233"/>
      <point x="452" y="200"/>
      <point x="452" y="132" type="curve" smooth="yes"/>
      <point x="452" y="64"/>
      <point x="384" y="26"/>
      <point x="278" y="26" type="curve" smooth="yes"/>
      <point x="210" y="26"/>
      <point x="150" y="41"/>
      <point x="94" y="92" type="curve"/>
      <point x="71" y="62" type="line"/>
      <point x="133" y="6"/>
      <point x="202" y="-12"/>
    </contour>
    <contour>
      <point x="293" y="502" type="move" name="aboveLC"/>
    </contour>
  </outline>
</glyph>
<glyph name="icyr" format="1">
	<unicode hex="0438"/>
	<advance width="600"/>
	<outline>
		<contour>
			<point x="115" y="0" type="line"/>
			<point x="158" y="0" type="line"/>
			<point x="374" y="317" type="line"/>
			<point x="393" y="347"/>
			<point x="423" y="391"/>
			<point x="442" y="421" type="curve"/>
			<point x="446" y="421" type="line"/>
			<point x="444" y="358"/>
			<point x="441" y="293"/>
			<point x="441" y="240" type="curve" smooth="yes"/>
			<point x="441" y="0" type="line"/>
			<point x="485" y="0" type="line"/>
			<point x="485" y="480" type="line"/>
			<point x="442" y="480" type="line"/>
			<point x="226" y="163" type="line"/>
			<point x="207" y="133"/>
			<point x="177" y="89"/>
			<point x="158" y="59" type="curve"/>
			<point x="154" y="59" type="line"/>
			<point x="156" y="123"/>
			<point x="159" y="188"/>
			<point x="159" y="240" type="curve" smooth="yes"/>
			<point x="159" y="480" type="line"/>
			<point x="115" y="480" type="line"/>
		</contour>
		<contour>
			<point name="aboveLC" x="307" y="502" type="move"/>
		</contour>
	</outline>
</glyph>
<glyph name="ef" format="1">
  <advance width="600"/>
  <unicode hex="0444"/>
  <outline>
    <contour>
      <point x="278" y="-217" type="line"/>
      <point x="322" y="-217" type="line"/>
      <point x="322" y="-44" type="line"/>
      <point x="321" y="28" type="line"/>
      <point x="351" y="5"/>
      <point x="382" y="-12"/>
      <point x="410" y="-12" type="curve" smooth="yes"/>
      <point x="491" y="-12"/>
      <point x="559" y="84"/>
      <point x="559" y="247" type="curve" smooth="yes"/>
      <point x="559" y="396"/>
      <point x="511" y="492"/>
      <point x="417" y="492" type="curve" smooth="yes"/>
      <point x="383" y="492"/>
      <point x="349" y="475"/>
      <point x="321" y="451" type="curve"/>
      <point x="322" y="524" type="line"/>
      <point x="322" y="719" type="line"/>
      <point x="278" y="719" type="line"/>
      <point x="278" y="524" type="line"/>
      <point x="279" y="452" type="line"/>
      <point x="251" y="473"/>
      <point x="224" y="492"/>
      <point x="190" y="492" type="curve" smooth="yes"/>
      <point x="108" y="492"/>
      <point x="41" y="394"/>
      <point x="41" y="239" type="curve" smooth="yes"/>
      <point x="41" y="77"/>
      <point x="100" y="-12"/>
      <point x="190" y="-12" type="curve" smooth="yes"/>
      <point x="227" y="-12"/>
      <point x="254" y="7"/>
      <point x="279" y="28" type="curve"/>
      <point x="278" y="-44" type="line"/>
    </contour>
    <contour>
      <point x="197" y="27" type="curve" smooth="yes"/>
      <point x="125" y="27"/>
      <point x="87" y="112"/>
      <point x="87" y="239" type="curve" smooth="yes"/>
      <point x="87" y="360"/>
      <point x="130" y="453"/>
      <point x="193" y="453" type="curve" smooth="yes"/>
      <point x="222" y="453"/>
      <point x="249" y="441"/>
      <point x="279" y="412" type="curve"/>
      <point x="279" y="70" type="line"/>
      <point x="248" y="39"/>
      <point x="225" y="27"/>
    </contour>
    <contour>
      <point x="407" y="27" type="curve" smooth="yes"/>
      <point x="385" y="27"/>
      <point x="353" y="38"/>
      <point x="321" y="68" type="curve"/>
      <point x="321" y="412" type="line"/>
      <point x="353" y="441"/>
      <point x="382" y="453"/>
      <point x="409" y="453" type="curve" smooth="yes"/>
      <point x="485" y="453"/>
      <point x="513" y="365"/>
      <point x="513" y="247" type="curve" smooth="yes"/>
      <point x="513" y="117"/>
      <point x="471" y="27"/>
    </contour>
  </outline>
</glyph>
<glyph name="shcha" format="1">
  <advance width="600"/>
  <unicode hex="0449"/>
  <outline>
    <contour>
      <point x="74" y="0" type="line"/>
      <point x="524" y="0" type="line"/>
      <point x="524" y="480" type="line"/>
      <point x="480" y="480" type="line"/>
      <point x="480" y="39" type="line"/>
      <point x="319" y="39" type="line"/>
      <point x="319" y="480" type="line"/>
      <point x="278" y="480" type="line"/>
      <point x="278" y="39" type="line"/>
      <point x="118" y="39" type="line"/>
      <point x="118" y="480" type="line"/>
      <point x="74" y="480" type="line"/>
    </contour>
    <contour>
      <point x="545" y="-172" type="line"/>
      <point x="582" y="-172" type="line"/>
      <point x="587" y="13" type="line"/>
      <point x="587" y="39" type="line"/>
      <point x="503" y="39" type="line"/>
      <point x="503" y="0" type="line"/>
      <point x="545" y="0" type="line"/>
    </contour>
    <contour>
      <point x="300" y="502" type="move" name="aboveLC"/>
    </contour>
  </outline>
</glyph>
<glyph name="ieukran" format="1">
  <advance width="600"/>
  <unicode hex="0454"/>
  <outline>
    <contour>
      <point x="345" y="-12" type="curve" smooth="yes"/>
      <point x="421" y="-12"/>
      <point x="484" y="19"/>
      <point x="535" y="64" type="curve"/>
      <point x="512" y="95" type="line"/>
      <point x="470" y="57"/>
      <point x="414" y="26"/>
      <point x="347" y="26" type="curve" smooth="yes"/>
      <point x="215" y="26"/>
      <point x="133" y="102"/>
      <point x="133" y="239" type="curve" smooth="yes"/>
      <point x="133" y="377"/>
      <point x="224" y="454"/>
      <point x="347" y="454" type="curve" smooth="yes"/>
      <point x="409" y="454"/>
      <point x="458" y="427"/>
      <point x="498" y="390" type="curve"/>
      <point x="523" y="420" type="line"/>
      <point x="482" y="459"/>
      <point x="429" y="492"/>
      <point x="347" y="492" type="curve" smooth="yes"/>
      <point x="206" y="492"/>
      <point x="88" y="410"/>
      <point x="88" y="239" type="curve" smooth="yes"/>
      <point x="88" y="71"/>
      <point x="197" y="-12"/>
    </contour>
    <contour>
      <point x="114" y="234" type="line"/>
      <point x="432" y="234" type="line"/>
      <point x="432" y="270" type="line"/>
      <point x="114" y="270" type="line"/>
    </contour>
  </outline>
</glyph>
<glyph name="lje" format="1">
  <advance width="600"/>
  <unicode hex="0459"/>
  <outline>
    <contour>
      <point x="32" y="-12" type="curve" smooth="yes"/>
      <point x="80" y="-12"/>
      <point x="127" y="33"/>
      <point x="141" y="141" type="curve" smooth="yes"/>
      <point x="155" y="243"/>
      <point x="160" y="349"/>
      <point x="165" y="442" type="curve"/>
      <point x="300" y="442" type="line"/>
      <point x="300" y="0" type="line"/>
      <point x="341" y="0" type="line"/>
      <point x="341" y="480" type="line"/>
      <point x="128" y="480" type="line"/>
      <point x="124" y="369"/>
      <point x="117" y="261"/>
      <point x="102" y="153" type="curve" smooth="yes"/>
      <point x="90" y="70"/>
      <point x="62" y="33"/>
      <point x="27" y="33" type="curve" smooth="yes"/>
      <point x="19" y="33"/>
      <point x="13" y="35"/>
      <point x="7" y="37" type="curve"/>
      <point x="-3" y="-5" type="line"/>
      <point x="8" y="-10"/>
      <point x="17" y="-12"/>
    </contour>
    <contour>
      <point x="300" y="0" type="line"/>
      <point x="362" y="0" type="line" smooth="yes"/>
      <point x="473" y="0"/>
      <point x="537" y="49"/>
      <point x="537" y="146" type="curve" smooth="yes"/>
      <point x="537" y="241"/>
      <point x="473" y="289"/>
      <point x="362" y="289" type="curve" smooth="yes"/>
      <point x="341" y="289" type="line"/>
      <point x="341" y="480" type="line"/>
      <point x="300" y="480" type="line"/>
    </contour>
    <contour>
      <point x="341" y="38" type="line"/>
      <point x="341" y="251" type="line"/>
      <point x="352" y="251" type="line" smooth="yes"/>
      <point x="451" y="251"/>
      <point x="495" y="220"/>
      <point x="495" y="146" type="curve" smooth="yes"/>
      <point x="495" y="71"/>
      <point x="451" y="38"/>
      <point x="352" y="38" type="curve" smooth="yes"/>
    </contour>
  </outline>
</glyph>
<glyph name="Yat" format="1">
  <advance width="600"/>
  <unicode hex="0462"/>
  <outline>
    <contour>
      <point x="176" y="0" type="line"/>
      <point x="311" y="0" type="line" smooth="yes"/>
      <point x="460" y="0"/>
      <point x="539" y="61"/>
      <point x="539" y="191" type="curve" smooth="yes"/>
      <point x="539" y="312"/>
      <point x="449" y="362"/>
      <point x="304" y="362" type="curve" smooth="yes"/>
      <point x="222" y="362" type="line"/>
      <point x="222" y="703" type="line"/>
      <point x="176" y="703" type="line"/>
    </contour>
    <contour>
      <point x="222" y="38" type="line"/>
      <point x="222" y="324" type="line"/>
      <point x="292" y="324" type="line" smooth="yes"/>
      <point x="429" y="324"/>
      <point x="493" y="284"/>
      <point x="493" y="188" type="curve" smooth="yes"/>
      <point x="493" y="82"/>
      <point x="430" y="38"/>
      <point x="300" y="38" type="curve" smooth="yes"/>
    </contour>
    <contour>
      <point x="30" y="521" type="line"/>
      <point x="450" y="521" type="line"/>
      <point x="450" y="560" type="line"/>
      <point x="30" y="560" type="line"/>
    </contour>
  </outline>
</glyph>
<glyph name="Fita" format="1">
  <advance width="600"/>
  <unicode hex="0472"/>
  <outline>
    <contour>
      <point x="300" y="-12" type="curve" smooth="yes"/>
      <point x="445" y="-12"/>
      <point x="546" y="115"/>
      <point x="546" y="332" type="curve" smooth="yes"/>
      <point x="546" y="548"/>
      <point x="445" y="671"/>
      <point x="300" y="671" type="curve" smooth="yes"/>
      <point x="155" y="671"/>
      <point x="54" y="548"/>
      <point x="54" y="332" type="curve" smooth="yes"/>
      <point x="54" y="115"/>
      <point x="155" y="-12"/>
    </contour>
    <contour>
      <point x="300" y="29" type="curve" smooth="yes"/>
      <point x="179" y="29"/>
      <point x="100" y="138"/>
      <point x="100" y="337" type="curve" smooth="yes"/>
      <point x="100" y="521"/>
      <point x="179" y="630"/>
      <point x="300" y="630" type="curve" smooth="yes"/>
      <point x="421" y="630"/>
      <point x="500" y="521"/>
      <point x="500" y="337" type="curve" smooth="yes"/>
      <point x="500" y="138"/>
      <point x="421" y="29"/>
    </contour>
    <contour>
      <point x="84" y="331" type="line"/>
      <point x="515" y="331" type="line"/>
      <point x="515" y="369" type="line"/>
      <point x="84" y="369" type="line"/>
    </contour>
    <contour>
      <point x="300" y="679" type="move" name="aboveUC"/>
    </contour>
  </outline>
</glyph>
<glyph name="Gheup" format="1">
  <advance width="600"/>
  <unicode hex="0490"/>
  <outline>
    <contour>
      <point x="157" y="0" type="line"/>
      <point x="203" y="0" type="line"/>
      <point x="203" y="619" type="line"/>
      <point x="514" y="619" type="line"/>
      <point x="504" y="659" type="line"/>
      <point x="157" y="659" type="line"/>
    </contour>
    <contour>
      <point x="442" y="619" type="line"/>
      <point x="514" y="619" type="line"/>
      <point x="522" y="831" type="line"/>
      <point x="484" y="831" type="line"/>
      <point x="471" y="659" type="line"/>
      <point x="442" y="659" type="line"/>
    </contour>
  </outline>
</glyph>
<glyph name="Zhedescender" format="1">
  <advance width="600"/>
  <unicode hex="0496"/>
  <outline>
    <contour>
      <point x="574" y="-188" type="line"/>
      <point x="609" y="-188" type="line"/>
      <point x="616" y="14" type="line"/>
      <point x="616" y="40" type="line"/>
      <point x="551" y="40" type="line"/>
      <point x="551" y="0" type="line"/>
      <point x="574" y="0" type="line"/>
    </contour>
    <component base="Zhe"/>
  </outline>
</glyph>
<glyph name="zhedescender" format="1">
  <advance width="600"/>
  <unicode hex="0497"/>
  <outline>
    <contour>
      <point x="565" y="-172" type="line"/>
      <point x="600" y="-172" type="line"/>
      <point x="605" y="13" type="line"/>
      <point x="605" y="39" type="line"/>
      <point x="551" y="39" type="line"/>
      <point x="551" y="0" type="line"/>
      <point x="565" y="0" type="line"/>
    </contour>
    <component base="zhe"/>
  </outline>
</glyph>
<glyph name="kabashkir" format="1">
  <advance width="600"/>
  <unicode hex="04A1"/>
  <outline>
    <contour>
      <point x="220" y="0" type="line"/>
      <point x="262" y="0" type="line"/>
      <point x="262" y="231" type="line"/>
      <point x="382" y="231" type="line"/>
      <point x="528" y="0" type="line"/>
      <point x="575" y="0" type="line"/>
      <point x="403" y="270" type="line"/>
      <point x="262" y="270" type="line"/>
      <point x="262" y="480" type="line"/>
      <point x="220" y="480" type="line"/>
    </contour>
    <contour>
      <point x="35" y="442" type="line"/>
      <point x="220" y="442" type="line"/>
      <point x="262" y="480" type="line"/>
      <point x="35" y="480" type="line"/>
    </contour>
    <contour>
      <point x="410" y="239" type="line"/>
      <point x="464" y="371" type="line" smooth="yes"/>
      <point x="491" y="437"/>
      <point x="511" y="447"/>
      <point x="536" y="447" type="curve" smooth="yes"/>
      <point x="543" y="447"/>
      <point x="545" y="447"/>
      <point x="551" y="445" type="curve"/>
      <point x="561" y="488" type="line"/>
      <point x="556" y="490"/>
      <point x="546" y="492"/>
      <point x="538" y="492" type="curve" smooth="yes"/>
      <point x="497" y="492"/>
      <point x="465" y="474"/>
      <point x="430" y="388" type="curve" smooth="yes"/>
      <point x="371" y="245" type="line"/>
    </contour>
  </outline>
</glyph>
<glyph name="Endescender" format="1">
  <advance width="600"/>
  <unicode hex="04A2"/>
  <outline>
    <contour>
      <point x="89" y="0" type="line"/>
      <point x="135" y="0" type="line"/>
      <point x="135" y="330" type="line"/>
      <point x="465" y="330" type="line"/>
      <point x="465" y="0" type="line"/>
      <point x="511" y="0" type="line"/>
      <point x="511" y="659" type="line"/>
      <point x="465" y="659" type="line"/>
      <point x="465" y="370" type="line"/>
      <point x="135" y="370" type="line"/>
      <point x="135" y="659" type="line"/>
      <point x="89" y="659" type="line"/>
    </contour>
    <contour>
      <point x="536" y="-188" type="line"/>
      <point x="573" y="-188" type="line"/>
      <point x="580" y="14" type="line"/>
      <point x="580" y="40" type="line"/>
      <point x="493" y="40" type="line"/>
      <point x="493" y="0" type="line"/>
      <point x="536" y="0" type="line"/>
    </contour>
  </outline>
</glyph>
<glyph name="ustraight" format="1">
  <advance width="600"/>
  <unicode hex="04AF"/>
  <outline>
    <contour>
      <point x="281" y="-217" type="line"/>
      <point x="325" y="-217" type="line"/>
      <point x="325" y="-5" type="line"/>
      <point x="538" y="480" type="line"/>
      <point x="493" y="480" type="line"/>
      <point x="366" y="187" type="line"/>
      <point x="344" y="140"/>
      <point x="323" y="86"/>
      <point x="304" y="43" type="curve"/>
      <point x="300" y="43" type="line"/>
      <point x="281" y="86"/>
      <point x="258" y="140"/>
      <point x="237" y="187" type="curve"/>
      <point x="110" y="480" type="line"/>
      <point x="62" y="480" type="line"/>
      <point x="281" y="-5" type="line"/>
    </contour>
  </outline>
</glyph>
<glyph name="Hadescender" format="1">
  <advance width="600"/>
  <unicode hex="04B2"/>
  <outline>
    <contour>
      <point x="502" y="-188" type="line"/>
      <point x="538" y="-188" type="line"/>
      <point x="545" y="14" type="line"/>
      <point x="545" y="40" type="line"/>
      <point x="486" y="40" type="line"/>
      <point x="486" y="0" type="line"/>
      <point x="502" y="0" type="line"/>
    </contour>
    <component base="Ha"/>
  </outline>
</glyph>
<glyph name="Chedescender" format="1">
  <advance width="600"/>
  <unicode hex="04B6"/>
  <outline>
    <contour>
      <point x="454" y="0" type="line"/>
      <point x="500" y="0" type="line"/>
      <point x="500" y="659" type="line"/>
      <point x="454" y="659" type="line"/>
      <point x="454" y="352" type="line"/>
      <point x="422" y="346"/>
      <point x="376" y="341"/>
      <point x="318" y="341" type="curve" smooth="yes"/>
      <point x="196" y="341"/>
      <point x="123" y="379"/>
      <point x="123" y="503" type="curve" smooth="yes"/>
      <point x="123" y="659" type="line"/>
      <point x="77" y="659" type="line"/>
      <point x="77" y="503" type="line" smooth="yes"/>
      <point x="77" y="353"/>
      <point x="168" y="300"/>
      <point x="314" y="300" type="curve" smooth="yes"/>
      <point x="374" y="300"/>
      <point x="419" y="306"/>
      <point x="454" y="311" type="curve"/>
    </contour>
    <contour>
      <point x="524" y="-188" type="line"/>
      <point x="562" y="-188" type="line"/>
      <point x="569" y="14" type="line"/>
      <point x="569" y="40" type="line"/>
      <point x="480" y="40" type="line"/>
      <point x="480" y="0" type="line"/>
      <point x="524" y="0" type="line"/>
    </contour>
  </outline>
</glyph>
<glyph name="chedescender" format="1">
  <advance width="600"/>
  <unicode hex="04B7"/>
  <outline>
    <contour>
      <point x="427" y="0" type="line"/>
      <point x="471" y="0" type="line"/>
      <point x="471" y="480" type="line"/>
      <point x="427" y="480" type="line"/>
      <point x="427" y="251" type="line"/>
      <point x="386" y="241"/>
      <point x="357" y="236"/>
      <point x="316" y="236" type="curve" smooth="yes"/>
      <point x="199" y="236"/>
      <point x="147" y="271"/>
      <point x="147" y="363" type="curve" smooth="yes"/>
      <point x="147" y="480" type="line"/>
      <point x="103" y="480" type="line"/>
      <point x="103" y="363" type="line" smooth="yes"/>
      <point x="103" y="245"/>
      <point x="171" y="197"/>
      <point x="309" y="197" type="curve" smooth="yes"/>
      <point x="362" y="197"/>
      <point x="380" y="203"/>
      <point x="427" y="212" type="curve"/>
    </contour>
    <contour>
      <point x="494" y="-172" type="line"/>
      <point x="532" y="-172" type="line"/>
      <point x="537" y="13" type="line"/>
      <point x="537" y="39" type="line"/>
      <point x="451" y="39" type="line"/>
      <point x="451" y="0" type="line"/>
      <point x="494" y="0" type="line"/>
    </contour>
  </outline>
</glyph>
<glyph name="Shha" format="1">
  <advance width="600"/>
  <unicode hex="04BA"/>
  <outline>
    <contour>
      <point x="108" y="0" type="line"/>
      <point x="154" y="0" type="line"/>
      <point x="154" y="347" type="line"/>
      <point x="184" y="353"/>
      <point x="227" y="359"/>
      <point x="282" y="359" type="curve" smooth="yes"/>
      <point x="402" y="359"/>
      <point x="473" y="321"/>
      <point x="473" y="200" type="curve" smooth="yes"/>
      <point x="473" y="0" type="line"/>
      <point x="519" y="0" type="line"/>
      <point x="519" y="200" type="line" smooth="yes"/>
      <point x="519" y="348"/>
      <point x="430" y="399"/>
      <point x="285" y="399" type="curve" smooth="yes"/>
      <point x="229" y="399"/>
      <point x="187" y="394"/>
      <point x="154" y="388" type="curve"/>
      <point x="154" y="659" type="line"/>
      <point x="108" y="659" type="line"/>
    </contour>
  </outline>
</glyph>
<glyph name="Germandbls" format="1">
  <advance width="600"/>
  <unicode hex="1E9E"/>
  <outline>
    <contour>
      <point x="389" y="-12" type="curve" smooth="yes"/>
      <point x="491" y="-12"/>
      <point x="563" y="64"/>
      <point x="563" y="166" type="curve" smooth="yes"/>
      <point x="563" y="264"/>
      <point x="511" y="336"/>
      <point x="340" y="369" type="curve"/>
      <point x="340" y="340" type="line"/>
      <point x="505" y="533" type="line"/>
      <point x="471" y="616"/>
      <point x="412" y="671"/>
      <point x="307" y="671" type="curve" smooth="yes"/>
      <point x="180" y="671"/>
      <point x="87" y="580"/>
      <point x="87" y="425" type="curve" smooth="yes"/>
      <point x="87" y="0" type="line"/>
      <point x="134" y="0" type="line"/>
      <point x="134" y="412" type="line" smooth="yes"/>
      <point x="134" y="562"/>
      <point x="205" y="630"/>
      <point x="306" y="630" type="curve" smooth="yes"/>
      <point x="385" y="630"/>
      <point x="436" y="591"/>
      <point x="464" y="511" type="curve"/>
      <point x="472" y="559" type="line"/>
      <point x="308" y="365" type="line"/>
      <point x="311" y="330" type="line"/>
      <point x="478" y="301"/>
      <point x="514" y="240"/>
      <point x="514" y="165" type="curve" smooth="yes"/>
      <point x="514" y="86"/>
      <point x="468" y="29"/>
      <point x="388" y="29" type="curve" smooth="yes"/>
      <point x="331" y="29"/>
      <point x="290" y="51"/>
      <point x="251" y="98" type="curve"/>
      <point x="222" y="66" type="line"/>
      <point x="262" y="16"/>
      <point x="324" y="-12"/>
    </contour>
  </outline>
</glyph>
<glyph name="varia" format="1">
  <advance width="600"/>
  <unicode hex="1FEF"/>
  <outline>
    <component base="variacmb"/>
    <contour>
      <point x="300" y="502" type="move" name="_aboveLC"/>
    </contour>
  </outline>
</glyph>
<glyph name="quoteleft" format="1">
	<unicode hex="2018"/>
	<advance width="600"/>
	<outline>
		<contour>
			<point x="298" y="385" type="curve" smooth="yes"/>
			<point x="334" y="385"/>
			<point x="359" y="412"/>
			<point x="359" y="448" type="curve" smooth="yes"/>
			<point x="359" y="483"/>
			<point x="335" y="508"/>
			<point x="301" y="508" type="curve" smooth="yes"/>
			<point x="280" y="508"/>
			<point x="262" y="495"/>
			<point x="245" y="474" type="curve"/>
			<point x="297" y="416" type="line"/>
			<point x="270" y="484" type="line"/>
			<point x="270" y="564"/>
			<point x="308" y="628"/>
			<point x="370" y="669" type="curve"/>
			<point x="349" y="700" type="line"/>
			<point x="275" y="658"/>
			<point x="224" y="577"/>
			<point x="224" y="483" type="curve" smooth="yes"/>
			<point x="224" y="421"/>
			<point x="259" y="385"/>
		</contour>
	</outline>
</glyph>
<glyph name="daggerdbl" format="1">
  <advance width="600"/>
  <unicode hex="2021"/>
  <outline>
    <contour>
      <point x="279" y="-80" type="line"/>
      <point x="321" y="-80" type="line"/>
      <point x="318" y="73" type="line"/>
      <point x="450" y="70" type="line"/>
      <point x="450" y="112" type="line"/>
      <point x="318" y="109" type="line"/>
      <point x="321" y="316" type="line"/>
      <point x="318" y="523" type="line"/>
      <point x="450" y="520" type="line"/>
      <point x="450" y="562" type="line"/>
      <point x="318" y="559" type="line"/>
      <point x="321" y="712" type="line"/>
      <point x="279" y="712" type="line"/>
      <point x="282" y="559" type="line"/>
      <point x="150" y="562" type="line"/>
      <point x="150" y="520" type="line"/>
      <point x="282" y="523" type="line"/>
      <point x="279" y="316" type="line"/>
      <point x="282" y="109" type="line"/>
      <point x="150" y="112" type="line"/>
      <point x="150" y="70" type="line"/>
      <point x="282" y="73" type="line"/>
    </contour>
  </outline>
</glyph>
<glyph name="ellipsis" format="1">
  <advance width="600"/>
  <unicode hex="2026"/>
  <outline>
    <contour>
      <point x="108" y="-12" type="curve" smooth="yes"/>
      <point x="136" y="-12"/>
      <point x="165" y="12"/>
      <point x="165" y="51" type="curve" smooth="yes"/>
      <point x="165" y="91"/>
      <point x="136" y="114"/>
      <point x="108" y="114" type="curve" smooth="yes"/>
      <point x="79" y="114"/>
      <point x="51" y="91"/>
      <point x="51" y="51" type="curve" smooth="yes"/>
      <point x="51" y="12"/>
      <point x="79" y="-12"/>
    </contour>
    <contour>
      <point x="300" y="-12" type="curve" smooth="yes"/>
      <point x="329" y="-12"/>
      <point x="357" y="12"/>
      <point x="357" y="51" type="curve" smooth="yes"/>
      <point x="357" y="91"/>
      <point x="329" y="114"/>
      <point x="300" y="114" type="curve" smooth="yes"/>
      <point x="271" y="114"/>
      <point x="243" y="91"/>
      <point x="243" y="51" type="curve" smooth="yes"/>
      <point x="243" y="12"/>
      <point x="271" y="-12"/>
    </contour>
    <contour>
      <point x="492" y="-12" type="curve" smooth="yes"/>
      <point x="521" y="-12"/>
      <point x="549" y="12"/>
      <point x="549" y="51" type="curve" smooth="yes"/>
      <point x="549" y="91"/>
      <point x="521" y="114"/>
      <point x="492" y="114" type="curve" smooth="yes"/>
      <point x="464" y="114"/>
      <point x="436" y="91"/>
      <point x="436" y="51" type="curve" smooth="yes"/>
      <point x="436" y="12"/>
      <point x="464" y="-12"/>
    </contour>
  </outline>
</glyph>
<glyph name="prime" format="1">
	<unicode hex="2032"/>
	<advance width="600"/>
	<outline>
		<contour>
			<point x="272" y="481" type="line"/>
			<point x="301" y="481" type="line"/>
			<point x="328" y="619" type="line"/>
			<point x="338" y="693" type="line"/>
			<point x="296" y="693" type="line"/>
		</contour>
	</outline>
</glyph>
<glyph name="interrobang" format="1">
  <advance width="600"/>
  <unicode hex="203D"/>
  <outline>
    <contour>
      <point x="277" y="219" type="curve"/>
      <point x="299" y="219" type="line"/>
      <point x="284" y="365"/>
      <point x="469" y="377"/>
      <point x="469" y="530" type="curve" smooth="yes"/>
      <point x="469" y="615"/>
      <point x="403" y="682"/>
      <point x="293" y="682" type="curve" smooth="yes"/>
      <point x="216" y="682"/>
      <point x="155" y="650"/>
      <point x="111" y="605" type="curve"/>
      <point x="141" y="579" type="line"/>
      <point x="181" y="621"/>
      <point x="232" y="644"/>
      <point x="290" y="644" type="curve" smooth="yes"/>
      <point x="383" y="644"/>
      <point x="425" y="589"/>
      <point x="425" y="525" type="curve" smooth="yes"/>
      <point x="425" y="393"/>
      <point x="248" y="373"/>
    </contour>
    <contour>
      <point x="267" y="219" type="line"/>
      <point x="293" y="219" type="line"/>
      <point x="302" y="479" type="line"/>
      <point x="302" y="545" type="line"/>
      <point x="260" y="545" type="line"/>
      <point x="261" y="479" type="line"/>
    </contour>
    <contour>
      <point x="285" y="-12" type="curve" smooth="yes"/>
      <point x="314" y="-12"/>
      <point x="342" y="11"/>
      <point x="342" y="51" type="curve" smooth="yes"/>
      <point x="342" y="91"/>
      <point x="314" y="113"/>
      <point x="285" y="113" type="curve" smooth="yes"/>
      <point x="256" y="113"/>
      <point x="228" y="91"/>
      <point x="228" y="51" type="curve" smooth="yes"/>
      <point x="228" y="11"/>
      <point x="256" y="-12"/>
    </contour>
  </outline>
</glyph>
<glyph name="exclamquestion" format="1">
  <advance width="600"/>
  <unicode hex="2049"/>
  <outline>
    <contour>
      <point x="397" y="219" type="curve"/>
      <point x="436" y="219" type="line"/>
      <point x="413" y="362"/>
      <point x="566" y="411"/>
      <point x="566" y="551" type="curve" smooth="yes"/>
      <point x="566" y="624"/>
      <point x="517" y="682"/>
      <point x="434" y="682" type="curve" smooth="yes"/>
      <point x="376" y="682"/>
      <point x="335" y="657"/>
      <point x="297" y="610" type="curve"/>
      <point x="324" y="582" type="line"/>
      <point x="357" y="626"/>
      <point x="388" y="643"/>
      <point x="428" y="643" type="curve" smooth="yes"/>
      <point x="493" y="643"/>
      <point x="521" y="598"/>
      <point x="521" y="546" type="curve" smooth="yes"/>
      <point x="521" y="420"/>
      <point x="371" y="369"/>
    </contour>
    <contour>
      <point x="426" y="-12" type="curve" smooth="yes"/>
      <point x="456" y="-12"/>
      <point x="484" y="11"/>
      <point x="484" y="51" type="curve" smooth="yes"/>
      <point x="484" y="92"/>
      <point x="456" y="114"/>
      <point x="426" y="114" type="curve" smooth="yes"/>
      <point x="396" y="114"/>
      <point x="368" y="92"/>
      <point x="368" y="51" type="curve" smooth="yes"/>
      <point x="368" y="11"/>
      <point x="396" y="-12"/>
    </contour>
    <component base="exclam" xOffset="-140"/>
  </outline>
</glyph>
<glyph name="colonmonetary" format="1">
  <advance width="600"/>
  <unicode hex="20A1"/>
  <outline>
    <contour>
      <point x="350" y="-12" type="curve" smooth="yes"/>
      <point x="433" y="-12"/>
      <point x="488" y="24"/>
      <point x="536" y="82" type="curve"/>
      <point x="506" y="107" type="line"/>
      <point x="461" y="54"/>
      <point x="416" y="26"/>
      <point x="352" y="26" type="curve" smooth="yes"/>
      <point x="227" y="26"/>
      <point x="154" y="143"/>
      <point x="154" y="322" type="curve" smooth="yes"/>
      <point x="154" y="499"/>
      <point x="230" y="613"/>
      <point x="364" y="613" type="curve" smooth="yes"/>
      <point x="419" y="613"/>
      <point x="461" y="586"/>
      <point x="497" y="546" type="curve"/>
      <point x="526" y="573" type="line"/>
      <point x="492" y="615"/>
      <point x="433" y="651"/>
      <point x="366" y="651" type="curve" smooth="yes"/>
      <point x="207" y="651"/>
      <point x="106" y="524"/>
      <point x="106" y="321" type="curve" smooth="yes"/>
      <point x="106" y="118"/>
      <point x="203" y="-12"/>
    </contour>
    <contour>
      <point x="225" y="-105" type="line"/>
      <point x="257" y="-110" type="line"/>
      <point x="357" y="745" type="line"/>
      <point x="325" y="750" type="line"/>
    </contour>
    <contour>
      <point x="327" y="-105" type="line"/>
      <point x="359" y="-110" type="line"/>
      <point x="459" y="745" type="line"/>
      <point x="427" y="750" type="line"/>
    </contour>
  </outline>
</glyph>
<glyph name="franc" format="1">
  <advance width="600"/>
  <unicode hex="20A3"/>
  <outline>
    <contour>
      <point x="160" y="0" type="line"/>
      <point x="205" y="0" type="line"/>
      <point x="205" y="319" type="line"/>
      <point x="478" y="319" type="line"/>
      <point x="478" y="358" type="line"/>
      <point x="205" y="358" type="line"/>
      <point x="205" y="600" type="line"/>
      <point x="531" y="600" type="line"/>
      <point x="531" y="639" type="line"/>
      <point x="160" y="639" type="line"/>
    </contour>
    <contour>
      <point x="78" y="140" type="line"/>
      <point x="376" y="140" type="line"/>
      <point x="376" y="176" type="line"/>
      <point x="162" y="176" type="line"/>
      <point x="78" y="173" type="line"/>
    </contour>
  </outline>
</glyph>
<glyph name="won" format="1">
  <advance width="600"/>
  <unicode hex="20A9"/>
  <outline>
    <contour>
      <point x="163" y="0" type="line"/>
      <point x="220" y="0" type="line"/>
      <point x="269" y="343" type="line"/>
      <point x="298" y="559" type="line"/>
      <point x="302" y="559" type="line"/>
      <point x="329" y="345" type="line"/>
      <point x="381" y="0" type="line"/>
      <point x="442" y="0" type="line"/>
      <point x="526" y="639" type="line"/>
      <point x="484" y="639" type="line"/>
      <point x="428" y="167" type="line"/>
      <point x="413" y="40" type="line"/>
      <point x="409" y="40" type="line"/>
      <point x="395" y="167" type="line"/>
      <point x="330" y="599" type="line"/>
      <point x="273" y="599" type="line"/>
      <point x="209" y="167" type="line"/>
      <point x="194" y="40" type="line"/>
      <point x="190" y="40" type="line"/>
      <point x="177" y="167" type="line"/>
      <point x="119" y="639" type="line"/>
      <point x="74" y="639" type="line"/>
    </contour>
    <contour>
      <point x="45" y="308" type="line"/>
      <point x="551" y="308" type="line"/>
      <point x="551" y="345" type="line"/>
      <point x="122" y="345" type="line"/>
      <point x="45" y="341" type="line"/>
    </contour>
  </outline>
</glyph>
<glyph name="rupeeindian" format="1">
  <advance width="600"/>
  <unicode hex="20B9"/>
  <outline>
    <contour>
      <point x="120" y="281" type="line"/>
      <point x="220" y="281" type="line" smooth="yes"/>
      <point x="360" y="281"/>
      <point x="456" y="344"/>
      <point x="456" y="472" type="curve" smooth="yes"/>
      <point x="456" y="533"/>
      <point x="421" y="585"/>
      <point x="364" y="606" type="curve"/>
      <point x="526" y="606" type="line"/>
      <point x="526" y="639" type="line"/>
      <point x="120" y="639" type="line"/>
      <point x="120" y="601" type="line"/>
      <point x="202" y="601" type="line" smooth="yes"/>
      <point x="333" y="601"/>
      <point x="411" y="564"/>
      <point x="411" y="470" type="curve" smooth="yes"/>
      <point x="411" y="366"/>
      <point x="333" y="320"/>
      <point x="202" y="320" type="curve" smooth="yes"/>
      <point x="120" y="320" type="line"/>
    </contour>
    <contour>
      <point x="120" y="465" type="line"/>
      <point x="526" y="465" type="line"/>
      <point x="526" y="499" type="line"/>
      <point x="193" y="499" type="line"/>
      <point x="120" y="495" type="line"/>
    </contour>
    <contour>
      <point x="431" y="0" type="line"/>
      <point x="484" y="0" type="line"/>
      <point x="242" y="309" type="line"/>
      <point x="208" y="286" type="line"/>
    </contour>
  </outline>
</glyph>
<glyph name="liraturkish" format="1">
  <advance width="600"/>
  <unicode hex="20BA"/>
  <outline>
    <contour>
      <point x="183" y="-12" type="line"/>
      <point x="361" y="-15"/>
      <point x="528" y="57"/>
      <point x="528" y="218" type="curve" smooth="yes"/>
      <point x="528" y="239"/>
      <point x="525" y="253"/>
      <point x="519" y="279" type="curve"/>
      <point x="481" y="266" type="line"/>
      <point x="488" y="245"/>
      <point x="488" y="230"/>
      <point x="488" y="215" type="curve" smooth="yes"/>
      <point x="488" y="91"/>
      <point x="339" y="32"/>
      <point x="229" y="31" type="curve"/>
      <point x="229" y="308" type="line"/>
      <point x="433" y="403" type="line"/>
      <point x="418" y="433" type="line"/>
      <point x="229" y="344" type="line"/>
      <point x="229" y="426" type="line"/>
      <point x="433" y="521" type="line"/>
      <point x="418" y="552" type="line"/>
      <point x="229" y="462" type="line"/>
      <point x="229" y="639" type="line"/>
      <point x="183" y="639" type="line"/>
      <point x="183" y="440" type="line"/>
      <point x="60" y="384" type="line"/>
      <point x="75" y="354" type="line"/>
      <point x="183" y="403" type="line"/>
      <point x="183" y="321" type="line"/>
      <point x="60" y="266" type="line"/>
      <point x="75" y="235" type="line"/>
      <point x="183" y="285" type="line"/>
    </contour>
  </outline>
</glyph>
<glyph name="servicemark" format="1">
  <advance width="600"/>
  <unicode hex="2120"/>
  <outline>
    <contour>
      <point x="136" y="357" type="curve" smooth="yes"/>
      <point x="198" y="357"/>
      <point x="235" y="397"/>
      <point x="235" y="440" type="curve" smooth="yes"/>
      <point x="235" y="484"/>
      <point x="213" y="507"/>
      <point x="175" y="525" type="curve" smooth="yes"/>
      <point x="126" y="550" type="line" smooth="yes"/>
      <point x="99" y="563"/>
      <point x="82" y="578"/>
      <point x="82" y="601" type="curve" smooth="yes"/>
      <point x="82" y="627"/>
      <point x="102" y="649"/>
      <point x="140" y="649" type="curve" smooth="yes"/>
      <point x="163" y="649"/>
      <point x="187" y="635"/>
      <point x="207" y="618" type="curve"/>
      <point x="229" y="644" type="line"/>
      <point x="208" y="665"/>
      <point x="175" y="681"/>
      <point x="142" y="681" type="curve" smooth="yes"/>
      <point x="85" y="681"/>
      <point x="45" y="651"/>
      <point x="45" y="600" type="curve" smooth="yes"/>
      <point x="45" y="555"/>
      <point x="76" y="533"/>
      <point x="103" y="519" type="curve" smooth="yes"/>
      <point x="152" y="493" type="line" smooth="yes"/>
      <point x="185" y="476"/>
      <point x="198" y="470"/>
      <point x="198" y="439" type="curve" smooth="yes"/>
      <point x="198" y="409"/>
      <point x="176" y="389"/>
      <point x="139" y="389" type="curve" smooth="yes"/>
      <point x="102" y="389"/>
      <point x="78" y="403"/>
      <point x="52" y="428" type="curve"/>
      <point x="29" y="403" type="line"/>
      <point x="54" y="375"/>
      <point x="92" y="357"/>
    </contour>
    <contour>
      <point x="302" y="369" type="line"/>
      <point x="339" y="369" type="line"/>
      <point x="339" y="530" type="line"/>
      <point x="334" y="628" type="line"/>
      <point x="338" y="628" type="line"/>
      <point x="420" y="419" type="line"/>
      <point x="453" y="419" type="line"/>
      <point x="535" y="628" type="line"/>
      <point x="539" y="628" type="line"/>
      <point x="535" y="530" type="line"/>
      <point x="535" y="369" type="line"/>
      <point x="571" y="369" type="line"/>
      <point x="571" y="676" type="line"/>
      <point x="520" y="676" type="line"/>
      <point x="470" y="550" type="line"/>
      <point x="440" y="464" type="line"/>
      <point x="436" y="464" type="line"/>
      <point x="405" y="550" type="line"/>
      <point x="353" y="676" type="line"/>
      <point x="302" y="676" type="line"/>
    </contour>
  </outline>
</glyph>
<glyph name="onetenth" format="1">
  <advance width="600"/>
  <unicode hex="2152"/>
  <outline>
    <contour>
      <point x="183" y="402" type="line"/>
      <point x="221" y="402" type="line"/>
      <point x="221" y="639" type="line"/>
      <point x="190" y="639" type="line"/>
      <point x="165" y="625"/>
      <point x="141" y="615"/>
      <point x="101" y="608" type="curve"/>
      <point x="101" y="579" type="line"/>
      <point x="183" y="579" type="line"/>
    </contour>
    <contour>
      <point x="123" y="282" type="line"/>
      <point x="571" y="471" type="line"/>
      <point x="555" y="509" type="line"/>
      <point x="112" y="305" type="line"/>
    </contour>
    <contour>
      <point x="183" y="0" type="line"/>
      <point x="221" y="0" type="line"/>
      <point x="221" y="238" type="line"/>
      <point x="190" y="238" type="line"/>
      <point x="165" y="223"/>
      <point x="141" y="213"/>
      <point x="101" y="206" type="curve"/>
      <point x="101" y="177" type="line"/>
      <point x="183" y="177" type="line"/>
    </contour>
    <contour>
      <point x="432" y="-12" type="curve" smooth="yes"/>
      <point x="498" y="-12"/>
      <point x="542" y="35"/>
      <point x="542" y="120" type="curve" smooth="yes"/>
      <point x="542" y="202"/>
      <point x="498" y="250"/>
      <point x="432" y="250" type="curve" smooth="yes"/>
      <point x="365" y="250"/>
      <point x="321" y="202"/>
      <point x="321" y="120" type="curve" smooth="yes"/>
      <point x="321" y="35"/>
      <point x="365" y="-12"/>
    </contour>
    <contour>
      <point x="432" y="18" type="curve" smooth="yes"/>
      <point x="388" y="18"/>
      <point x="358" y="52"/>
      <point x="358" y="120" type="curve" smooth="yes"/>
      <point x="358" y="184"/>
      <point x="388" y="219"/>
      <point x="432" y="219" type="curve" smooth="yes"/>
      <point x="475" y="219"/>
      <point x="505" y="184"/>
      <point x="505" y="120" type="curve" smooth="yes"/>
      <point x="505" y="52"/>
      <point x="475" y="18"/>
    </contour>
  </outline>
</glyph>
<glyph name="arrowright" format="1">
	<unicode hex="2192"/>
	<advance width="600"/>
	<outline>
		<contour>
			<point x="310" y="-14" type="line"/>
			<point x="579" y="250" type="line"/>
			<point x="579" y="254" type="line"/>
			<point x="310" y="518" type="line"/>
			<point x="284" y="491" type="line"/>
			<point x="515" y="271" type="line"/>
			<point x="28" y="271" type="line"/>
			<point x="28" y="233" type="line"/>
			<point x="515" y="233" type="line"/>
			<point x="284" y="13" type="line"/>
		</contour>
	</outline>
</glyph>
<glyph name="arrowdownright" format="1">
	<unicode hex="2198"/>
	<advance width="600"/>
	<outline>
		<contour>
			<point x="497" y="56" type="line"/>
			<point x="500" y="59" type="line"/>
			<point x="496" y="436" type="line"/>
			<point x="459" y="435" type="line"/>
			<point x="467" y="117" type="line"/>
			<point x="122" y="460" type="line"/>
			<point x="96" y="433" type="line"/>
			<point x="439" y="89" type="line"/>
			<point x="121" y="97" type="line"/>
			<point x="120" y="59" type="line"/>
		</contour>
	</outline>
</glyph>
<glyph name="arrowdblup" format="1">
  <advance width="600"/>
  <unicode hex="21D1"/>
  <outline>
    <contour>
      <point x="61" y="231" type="line"/>
      <point x="298" y="481" type="line"/>
      <point x="302" y="481" type="line"/>
      <point x="539" y="231" type="line"/>
      <point x="566" y="257" type="line"/>
      <point x="302" y="526" type="line"/>
      <point x="298" y="526" type="line"/>
      <point x="34" y="257" type="line"/>
    </contour>
    <contour>
      <point x="380" y="-24" type="line"/>
      <point x="415" y="-24" type="line"/>
      <point x="415" y="407" type="line"/>
      <point x="380" y="407" type="line"/>
    </contour>
    <contour>
      <point x="185" y="-24" type="line"/>
      <point x="220" y="-24" type="line"/>
      <point x="220" y="407" type="line"/>
      <point x="185" y="407" type="line"/>
    </contour>
  </outline>
</glyph>
<glyph name="arrowdblright" format="1">
  <advance width="600"/>
  <unicode hex="21D2"/>
  <outline>
    <contour>
      <point x="310" y="-14" type="line"/>
      <point x="579" y="250" type="line"/>
      <point x="579" y="254" type="line"/>
      <point x="310" y="518" type="line"/>
      <point x="284" y="491" type="line"/>
      <point x="533" y="254" type="line"/>
      <point x="533" y="250" type="line"/>
      <point x="284" y="13" type="line"/>
    </contour>
    <contour>
      <point x="28" y="137" type="line"/>
      <point x="460" y="137" type="line"/>
      <point x="460" y="172" type="line"/>
      <point x="28" y="172" type="line"/>
    </contour>
    <contour>
      <point x="28" y="332" type="line"/>
      <point x="460" y="332" type="line"/>
      <point x="460" y="367" type="line"/>
      <point x="28" y="367" type="line"/>
    </contour>
  </outline>
</glyph>
<glyph name="summation" format="1">
  <advance width="600"/>
  <unicode hex="2211"/>
  <outline>
    <contour>
      <point x="76" y="-120" type="line"/>
      <point x="544" y="-120" type="line"/>
      <point x="544" y="-80" type="line"/>
      <point x="135" y="-80" type="line"/>
      <point x="135" y="-76" type="line"/>
      <point x="384" y="261" type="line"/>
      <point x="146" y="596" type="line"/>
      <point x="146" y="600" type="line"/>
      <point x="513" y="600" type="line"/>
      <point x="513" y="639" type="line"/>
      <point x="88" y="639" type="line"/>
      <point x="88" y="606" type="line"/>
      <point x="333" y="260" type="line"/>
      <point x="76" y="-87" type="line"/>
    </contour>
  </outline>
</glyph>
<glyph name="minus" format="1">
  <advance width="600"/>
  <unicode hex="2212"/>
  <outline>
    <contour>
      <point x="95" y="311" type="line"/>
      <point x="505" y="311" type="line"/>
      <point x="505" y="349" type="line"/>
      <point x="95" y="349" type="line"/>
    </contour>
  </outline>
</glyph>
